SplineFontDB: 3.0
FontName: Oxygen
FullName: Oxygen
FamilyName: Oxygen
Weight: Book
Copyright: Copyright (c) 2011 by vernon adams. All rights reserved.
Version: 1.000
ItalicAngle: 0
UnderlinePosition: -103
UnderlineWidth: 102
Ascent: 1638
Descent: 410
sfntRevision: 0x00010000
LayerCount: 2
Layer: 0 1 "Back"  1
Layer: 1 1 "Fore"  0
NeedsXUIDChange: 1
XUID: [1021 14 500265001 789626]
FSType: 0
OS2Version: 1
OS2_WeightWidthSlopeOnly: 0
OS2_UseTypoMetrics: 1
CreationTime: 1332712004
ModificationTime: 1334133683
PfmFamily: 17
TTFWeight: 400
TTFWidth: 5
LineGap: 0
VLineGap: 0
Panose: 2 0 5 3 0 0 0 9 0 4
OS2TypoAscent: 881
OS2TypoAOffset: 1
OS2TypoDescent: -262
OS2TypoDOffset: 1
OS2TypoLinegap: 0
OS2WinAscent: 0
OS2WinAOffset: 1
OS2WinDescent: 0
OS2WinDOffset: 1
HheadAscent: 0
HheadAOffset: 1
HheadDescent: 0
HheadDOffset: 1
OS2SubXSize: 1331
OS2SubYSize: 1433
OS2SubXOff: 0
OS2SubYOff: 286
OS2SupXSize: 1331
OS2SupYSize: 1433
OS2SupXOff: 0
OS2SupYOff: 983
OS2StrikeYSize: 102
OS2StrikeYPos: 530
OS2Vendor: 'newt'
OS2CodePages: 20000007.00000000
OS2UnicodeRanges: 00000007.00000000.00000000.00000000
Lookup: 258 0 0 "'kern' Horizontal Kerning in Latin lookup 0"  {"'kern' Horizontal Kerning in Latin lookup 0 per glyph data 0"  "'kern' Horizontal Kerning in Latin lookup 0 kerning class 1"  } ['kern' ('DFLT' <'dflt' > 'latn' <'dflt' > ) ]
MarkAttachClasses: 1
DEI: 91125
KernClass2: 23 23 "'kern' Horizontal Kerning in Latin lookup 0 kerning class 1" 
 81 A Agrave Aacute Acircumflex Atilde Adieresis Aring Amacron Abreve Aogonek uni0202
 1 B
 75 D O Q Eth Ograve Oacute Ocircumflex Otilde Odieresis Oslash uni020C uni020E
 1 F
 1 K
 1 L
 1 P
 9 T uni021A
 45 U Ugrave Uacute Ucircumflex Udieresis uni0216
 1 V
 1 W
 18 Y Yacute Ydieresis
 69 b o p ograve oacute ocircumflex otilde odieresis oslash thorn uni020F
 1 e
 1 f
 27 k kcommaaccent kgreenlandic
 29 r rcommaaccent rcaron uni0213
 9 t uni021B
 1 v
 1 w
 1 x
 18 y yacute ydieresis

StartChar: exclam
Encoding: 33 33 4
Width: 586
GlyphClass: 2
Flags: HW
LayerCount: 2
Fore
SplineSet
391 1496 m 1,0,-1
 391 1354 l 1,1,-1
 335 435 l 1,2,-1
 256 435 l 1,3,-1
 194 1354 l 1,4,-1
 194 1496 l 1,5,-1
 391 1496 l 1,0,-1
160 120 m 128,-1,7
 160 173 160 173 195.5 212.5 c 128,-1,8
 231 252 231 252 293.5 252 c 128,-1,9
 356 252 356 252 391 213 c 128,-1,10
 426 174 426 174 426 120 c 128,-1,11
 426 66 426 66 391 27 c 128,-1,12
 356 -12 356 -12 293.5 -12 c 128,-1,13
 231 -12 231 -12 195.5 27.5 c 128,-1,6
 160 67 160 67 160 120 c 128,-1,7
EndSplineSet
EndChar

StartChar: quotedbl
Encoding: 34 34 5
Width: 710
GlyphClass: 2
Flags: HW
LayerCount: 2
Fore
SplineSet
160 1016 m 1,0,-1
 139 1510 l 1,1,-1
 290 1510 l 1,2,-1
 261 1016 l 1,3,-1
 160 1016 l 1,0,-1
446 1016 m 1,4,-1
 425 1510 l 1,5,-1
 576 1510 l 1,6,-1
 547 1016 l 1,7,-1
 446 1016 l 1,4,-1
EndSplineSet
EndChar

StartChar: numbersign
Encoding: 35 35 6
Width: 1134
GlyphClass: 2
Flags: HW
LayerCount: 2
Fore
SplineSet
737 931 m 1,0,-1
 502 931 l 1,1,-1
 422 536 l 1,2,-1
 658 536 l 1,3,-1
 737 931 l 1,0,-1
1032 1055 m 1,4,-1
 1018 931 l 1,5,-1
 871 931 l 1,6,-1
 804 536 l 1,7,-1
 951 536 l 1,8,-1
 941 410 l 1,9,-1
 786 410 l 1,10,-1
 700 -23 l 1,11,-1
 549 -23 l 1,12,-1
 633 410 l 1,13,-1
 398 410 l 1,14,-1
 318 -23 l 1,15,-1
 189 -23 l 1,16,-1
 262 410 l 1,17,-1
 91 410 l 1,18,-1
 101 536 l 1,19,-1
 284 536 l 1,20,-1
 345 930 l 1,21,-1
 168 930 l 1,22,-1
 177 1055 l 1,23,-1
 370 1055 l 1,24,-1
 453 1462 l 1,25,-1
 606 1462 l 1,26,-1
 527 1055 l 1,27,-1
 761 1055 l 1,28,-1
 832 1462 l 1,29,-1
 960 1462 l 1,30,-1
 894 1055 l 1,31,-1
 1032 1055 l 1,4,-1
EndSplineSet
EndChar

StartChar: dollar
Encoding: 36 36 7
Width: 1241
GlyphClass: 2
Flags: HW
LayerCount: 2
Fore
SplineSet
580 1693 m 1,0,-1
 675 1693 l 1,1,-1
 675 1525 l 1,2,3
 927 1519 927 1519 1089 1418 c 1,4,-1
 1039 1277 l 1,5,6
 972 1314 972 1314 862 1343 c 0,7,8
 770 1367 770 1367 675 1371 c 1,9,-1
 675 863 l 1,10,-1
 779 838 l 2,11,12
 959 795 959 795 1052 700.5 c 128,-1,13
 1145 606 1145 606 1145 432 c 0,14,15
 1144 206 1144 206 1006 92 c 0,16,17
 881 -11 881 -11 675 -22 c 1,18,-1
 675 -195 l 1,19,-1
 580 -195 l 1,20,-1
 580 -22 l 1,21,22
 432 -18 432 -18 314 14 c 0,23,24
 176 50 176 50 94 100 c 1,25,-1
 146 244 l 1,26,27
 350 143 350 143 580 132 c 1,28,-1
 580 712 l 1,29,-1
 433 749 l 2,30,31
 96 834 96 834 96 1109 c 0,32,33
 96 1320 96 1320 241 1422 c 0,34,35
 368 1512 368 1512 580 1523 c 1,36,-1
 580 1693 l 1,0,-1
580 1370 m 1,37,38
 276 1351 276 1351 276 1121 c 0,39,40
 276 1036 276 1036 331.5 984.5 c 128,-1,41
 387 933 387 933 498 906 c 2,42,-1
 580 886 l 1,43,-1
 580 1370 l 1,37,38
675 131 m 1,44,45
 966 146 966 146 966 426 c 0,46,47
 966 522 966 522 914.5 581.5 c 128,-1,48
 863 641 863 641 727 675 c 2,49,-1
 675 688 l 1,50,-1
 675 131 l 1,44,45
EndSplineSet
EndChar

StartChar: percent
Encoding: 37 37 8
Width: 1877
GlyphClass: 2
Flags: HW
LayerCount: 2
Fore
SplineSet
560 1298.5 m 128,-1,1
 509 1378 509 1378 419.5 1378 c 128,-1,2
 330 1378 330 1378 280 1298 c 128,-1,3
 230 1218 230 1218 230 1103.5 c 128,-1,4
 230 989 230 989 279.5 916.5 c 128,-1,5
 329 844 329 844 420 844 c 128,-1,6
 511 844 511 844 561 918.5 c 128,-1,7
 611 993 611 993 611 1106 c 128,-1,0
 611 1219 611 1219 560 1298.5 c 128,-1,1
401 -4 m 1,8,-1
 1196 1462 l 1,9,-1
 1358 1462 l 1,10,-1
 536 -4 l 1,11,-1
 401 -4 l 1,8,-1
189.5 1380 m 128,-1,13
 276 1489 276 1489 420.5 1489 c 128,-1,14
 565 1489 565 1489 652.5 1380.5 c 128,-1,15
 740 1272 740 1272 740 1106 c 128,-1,16
 740 940 740 940 652 834 c 128,-1,17
 564 728 564 728 419.5 728 c 128,-1,18
 275 728 275 728 189 833.5 c 128,-1,19
 103 939 103 939 103 1105 c 128,-1,12
 103 1271 103 1271 189.5 1380 c 128,-1,13
1431 640 m 128,-1,21
 1324 640 1324 640 1264.5 561 c 128,-1,22
 1205 482 1205 482 1205 368 c 128,-1,23
 1205 254 1205 254 1264.5 176 c 128,-1,24
 1324 98 1324 98 1431 98 c 128,-1,25
 1538 98 1538 98 1597.5 177 c 128,-1,26
 1657 256 1657 256 1657 370 c 128,-1,27
 1657 484 1657 484 1597.5 562 c 128,-1,20
 1538 640 1538 640 1431 640 c 128,-1,21
1172 646 m 128,-1,29
 1265 754 1265 754 1432.5 754 c 128,-1,30
 1600 754 1600 754 1692 647.5 c 128,-1,31
 1784 541 1784 541 1784 371 c 128,-1,32
 1784 201 1784 201 1690.5 93 c 128,-1,33
 1597 -15 1597 -15 1430 -15 c 128,-1,34
 1263 -15 1263 -15 1171 92.5 c 128,-1,35
 1079 200 1079 200 1079 369 c 128,-1,28
 1079 538 1079 538 1172 646 c 128,-1,29
EndSplineSet
EndChar

StartChar: ampersand
Encoding: 38 38 9
Width: 1477
GlyphClass: 2
Flags: HW
LayerCount: 2
Fore
SplineSet
801 1299.5 m 128,-1,1
 744 1345 744 1345 655.5 1345 c 128,-1,2
 567 1345 567 1345 511 1297.5 c 128,-1,3
 455 1250 455 1250 455 1173.5 c 128,-1,4
 455 1097 455 1097 491.5 1040.5 c 128,-1,5
 528 984 528 984 605 910 c 1,6,7
 800 1006 800 1006 840 1087 c 0,8,9
 858 1125 858 1125 858 1171 c 0,10,0
 858 1254 858 1254 801 1299.5 c 128,-1,1
985 259 m 1,11,-1
 544 726 l 1,12,13
 418 662 418 662 349.5 586 c 128,-1,14
 281 510 281 510 281 393.5 c 128,-1,15
 281 277 281 277 373 204.5 c 128,-1,16
 465 132 465 132 645 132 c 128,-1,17
 825 132 825 132 985 259 c 1,11,-1
441 839 m 1,18,19
 348 940 348 940 308 1008 c 128,-1,20
 268 1076 268 1076 268 1165 c 0,21,22
 268 1314 268 1314 373.5 1401.5 c 128,-1,23
 479 1489 479 1489 657 1489 c 0,24,25
 884 1488 884 1488 990 1352 c 0,26,27
 1046 1280 1046 1280 1046 1199 c 128,-1,28
 1046 1118 1046 1118 1020.5 1061.5 c 0,29,30
 994 1005 994 1005 946 959 c 0,31,32
 854 872 854 872 707 804 c 1,33,-1
 1108 375 l 1,34,35
 1188 459 1188 459 1250 599 c 1,36,-1
 1371 507 l 1,37,38
 1309 371 1309 371 1212 257 c 1,39,-1
 1393 41 l 1,40,41
 1319 13 1319 13 1236 -11 c 1,42,-1
 1100 143 l 1,43,44
 894 -23 894 -23 630.5 -23 c 128,-1,45
 367 -23 367 -23 235.5 87.5 c 128,-1,46
 104 198 104 198 104 395 c 0,47,48
 104 548 104 548 190.5 652 c 128,-1,49
 277 756 277 756 441 839 c 1,18,19
EndSplineSet
EndChar

StartChar: quotesingle
Encoding: 39 39 10
Width: 393
GlyphClass: 2
Flags: HW
LayerCount: 2
Fore
SplineSet
248 1016 m 1,0,-1
 143 1016 l 1,1,-1
 122 1510 l 1,2,-1
 277 1510 l 1,3,-1
 248 1016 l 1,0,-1
EndSplineSet
EndChar

StartChar: parenleft
Encoding: 40 40 11
Width: 612
GlyphClass: 2
Flags: HW
LayerCount: 2
Fore
SplineSet
125 636 m 0,0,1
 125 1068 125 1068 370 1510 c 1,2,-1
 518 1510 l 1,3,4
 290 1090 290 1090 290 642 c 0,5,6
 290 430 290 430 351.5 201 c 128,-1,7
 413 -28 413 -28 520 -218 c 1,8,-1
 373 -218 l 1,9,10
 261 -27 261 -27 193 195 c 128,-1,11
 125 417 125 417 125 636 c 0,0,1
EndSplineSet
EndChar

StartChar: parenright
Encoding: 41 41 12
Width: 612
GlyphClass: 2
Flags: HW
LayerCount: 2
Fore
SplineSet
238 -218 m 1,0,-1
 93 -218 l 1,1,2
 199 -27 199 -27 260.5 201.5 c 128,-1,3
 322 430 322 430 322 642 c 0,4,5
 322 1088 322 1088 93 1510 c 1,6,-1
 241 1510 l 1,7,8
 488 1056 488 1056 488 636 c 0,9,10
 488 418 488 418 419.5 198 c 128,-1,11
 351 -22 351 -22 238 -218 c 1,0,-1
EndSplineSet
EndChar

StartChar: asterisk
Encoding: 42 42 13
Width: 1081
GlyphClass: 2
Flags: HW
LayerCount: 2
Fore
SplineSet
897 617 m 1,0,-1
 762 523 l 1,1,-1
 537 886 l 1,2,-1
 320 523 l 1,3,-1
 184 617 l 1,4,-1
 438 958 l 1,5,-1
 89 1093 l 1,6,-1
 159 1253 l 1,7,-1
 483 1062 l 1,8,-1
 451 1489 l 1,9,-1
 629 1489 l 1,10,-1
 600 1062 l 1,11,-1
 921 1253 l 1,12,-1
 994 1093 l 1,13,-1
 641 958 l 1,14,-1
 687 898 l 2,15,16
 733 837 733 837 797.5 752 c 128,-1,17
 862 667 862 667 897 617 c 1,0,-1
EndSplineSet
EndChar

StartChar: plus
Encoding: 43 43 14
Width: 1081
GlyphClass: 2
Flags: HW
LayerCount: 2
Fore
SplineSet
101 646 m 1,0,-1
 487 646 l 1,1,-1
 487 1065 l 1,2,-1
 621 1065 l 1,3,-1
 621 646 l 1,4,-1
 989 646 l 1,5,-1
 989 512 l 1,6,-1
 619 512 l 1,7,-1
 619 80 l 1,8,-1
 484 80 l 1,9,-1
 484 512 l 1,10,-1
 101 512 l 1,11,-1
 101 646 l 1,0,-1
EndSplineSet
EndChar

StartChar: comma
Encoding: 44 44 15
Width: 508
GlyphClass: 2
Flags: HW
LayerCount: 2
Fore
SplineSet
367 230 m 1,0,-1
 241 -292 l 1,1,-1
 135 -292 l 1,2,-1
 155 230 l 1,3,-1
 367 230 l 1,0,-1
EndSplineSet
EndChar

StartChar: hyphen
Encoding: 45 45 16
Width: 686
GlyphClass: 2
Flags: HW
LayerCount: 2
Fore
SplineSet
89 521 m 1,0,-1
 89 663 l 1,1,-1
 597 663 l 1,2,-1
 597 521 l 1,3,-1
 89 521 l 1,0,-1
EndSplineSet
EndChar

StartChar: period
Encoding: 46 46 17
Width: 494
GlyphClass: 2
Flags: HW
LayerCount: 2
Fore
SplineSet
359 27 m 128,-1,1
 324 -12 324 -12 261.5 -12 c 128,-1,2
 199 -12 199 -12 163.5 27.5 c 128,-1,3
 128 67 128 67 128 120.5 c 128,-1,4
 128 174 128 174 163 213 c 128,-1,5
 198 252 198 252 261 252 c 128,-1,6
 324 252 324 252 359 213 c 128,-1,7
 394 174 394 174 394 120 c 128,-1,0
 394 66 394 66 359 27 c 128,-1,1
EndSplineSet
EndChar

StartChar: slash
Encoding: 47 47 18
Width: 952
GlyphClass: 2
Flags: HW
LayerCount: 2
Fore
SplineSet
194 -218 m 1,0,-1
 50 -218 l 1,1,-1
 726 1466 l 1,2,-1
 872 1466 l 1,3,-1
 194 -218 l 1,0,-1
EndSplineSet
EndChar

StartChar: zero
Encoding: 48 48 19
Width: 1241
GlyphClass: 2
Flags: HW
LayerCount: 2
Fore
SplineSet
622 1373 m 0,0,1
 520 1372 520 1372 447 1292 c 0,2,3
 301 1131 301 1131 301 757 c 0,4,5
 301 375 301 375 447 211 c 0,6,7
 520 129 520 129 622 129 c 128,-1,8
 724 129 724 129 797 211 c 0,9,10
 943 375 943 375 943 757 c 0,11,12
 943 1130 943 1130 797 1292 c 0,13,14
 724 1372 724 1372 622 1373 c 0,0,1
622 -23 m 0,15,16
 489 -23 489 -23 389 35.5 c 0,17,18
 288 94 288 94 228 200 c 0,19,20
 108 409 108 409 109 751 c 0,21,22
 108 1184 108 1184 290 1385 c 0,23,24
 416 1525 416 1525 622 1525 c 0,25,26
 880 1526 880 1526 1008 1310 c 0,27,28
 1132 1102 1132 1102 1132 751 c 0,29,30
 1132 408 1132 408 1014 200 c 0,31,32
 888 -23 888 -23 622 -23 c 0,15,16
EndSplineSet
EndChar

StartChar: one
Encoding: 49 49 20
Width: 626
GlyphClass: 2
Flags: HW
LayerCount: 2
Fore
SplineSet
302 1496 m 1,0,-1
 461 1496 l 1,1,-1
 461 0 l 1,2,-1
 284 0 l 1,3,-1
 284 1311 l 1,4,5
 183 1245 183 1245 37 1198 c 1,6,-1
 37 1365 l 1,7,8
 53 1372 53 1372 102 1393 c 0,9,10
 152 1414 152 1414 176 1425 c 0,11,12
 248 1458 248 1458 302 1496 c 1,0,-1
EndSplineSet
EndChar

StartChar: two
Encoding: 50 50 21
Width: 1116
GlyphClass: 2
Flags: HW
LayerCount: 2
Fore
SplineSet
144 1395 m 1,0,1
 282 1525 282 1525 548 1525 c 0,2,3
 752 1525 752 1525 873 1414.5 c 128,-1,4
 994 1304 994 1304 994 1119 c 2,5,-1
 994 1113 l 1,6,7
 993 981 993 981 928 866 c 128,-1,8
 863 751 863 751 728 605 c 1,9,-1
 306 154 l 1,10,-1
 999 154 l 1,11,-1
 988 0 l 1,12,-1
 113 0 l 1,13,-1
 90 164 l 1,14,-1
 607 738 l 2,15,16
 702 843 702 843 750.5 928.5 c 128,-1,17
 799 1014 799 1014 801 1097 c 1,18,-1
 801 1107 l 2,19,20
 801 1231 801 1231 732 1299.5 c 128,-1,21
 663 1368 663 1368 536 1368 c 0,22,23
 324 1368 324 1368 202 1245 c 1,24,-1
 144 1395 l 1,0,1
EndSplineSet
EndChar

StartChar: three
Encoding: 51 51 22
Width: 1103
GlyphClass: 2
Flags: HW
LayerCount: 2
Fore
SplineSet
496 1373 m 0,0,1
 296 1373 296 1373 161 1266 c 1,2,-1
 105 1412 l 1,3,4
 254 1525 254 1525 534 1525 c 0,5,6
 779 1524 779 1524 901 1356 c 0,7,8
 963 1270 963 1270 963 1143 c 128,-1,9
 963 1016 963 1016 894 926 c 128,-1,10
 825 836 825 836 700 797 c 1,11,12
 840 767 840 767 919.5 666 c 128,-1,13
 999 565 999 565 999 410 c 0,14,15
 999 213 999 213 858 95 c 128,-1,16
 717 -23 717 -23 496 -23 c 0,17,18
 362 -23 362 -23 257.5 12 c 128,-1,19
 153 47 153 47 105 93 c 1,20,-1
 161 240 l 1,21,22
 302 129 302 129 497 129 c 0,23,24
 647 129 647 129 735.5 203.5 c 128,-1,25
 824 278 824 278 824 412 c 0,26,27
 824 576 824 576 714 646 c 0,28,29
 644 691 644 691 567 704 c 0,30,31
 452 722 452 722 323 722 c 1,32,-1
 323 871 l 1,33,34
 507 872 507 872 596 900 c 0,35,36
 771 956 771 956 771 1133 c 0,37,38
 771 1373 771 1373 496 1373 c 0,0,1
EndSplineSet
EndChar

StartChar: four
Encoding: 52 52 23
Width: 1211
GlyphClass: 2
Flags: HW
LayerCount: 2
Fore
SplineSet
784 1269 m 1,0,-1
 284 516 l 1,1,-1
 784 516 l 1,2,-1
 784 1269 l 1,0,-1
1122 371 m 1,3,-1
 952 371 l 1,4,-1
 952 0 l 1,5,-1
 784 0 l 1,6,-1
 784 371 l 1,7,-1
 108 371 l 1,8,-1
 108 524 l 1,9,-1
 765 1496 l 1,10,-1
 952 1496 l 1,11,-1
 952 516 l 1,12,-1
 1136 516 l 1,13,-1
 1122 371 l 1,3,-1
EndSplineSet
EndChar

StartChar: five
Encoding: 53 53 24
Width: 1177
GlyphClass: 2
Flags: HW
LayerCount: 2
Fore
SplineSet
1004 1496 m 1,0,-1
 990 1332 l 1,1,-1
 379 1332 l 1,2,3
 369 1041 369 1041 364 861 c 1,4,5
 477 933 477 933 598.5 933 c 128,-1,6
 720 933 720 933 807.5 897.5 c 0,7,8
 894 862 894 862 950 800 c 0,9,10
 1064 673 1064 673 1064 461.5 c 128,-1,11
 1064 250 1064 250 918.5 113.5 c 128,-1,12
 773 -23 773 -23 522.5 -23 c 128,-1,13
 272 -23 272 -23 121 114 c 1,14,-1
 186 255 l 1,15,16
 334 139 334 139 513.5 139 c 128,-1,17
 693 139 693 139 788 232 c 128,-1,18
 883 325 883 325 883 467 c 128,-1,19
 883 609 883 609 803 692.5 c 128,-1,20
 723 776 723 776 575 776 c 128,-1,21
 427 776 427 776 337 677 c 1,22,-1
 198 696 l 1,23,-1
 237 1496 l 1,24,-1
 1004 1496 l 1,0,-1
EndSplineSet
EndChar

StartChar: six
Encoding: 54 54 25
Width: 1199
GlyphClass: 2
Flags: HW
LayerCount: 2
Fore
SplineSet
292 453 m 0,0,1
 292 262 292 262 430 174 c 0,2,3
 502 128 502 128 601 129 c 0,4,5
 749 129 749 129 833.5 220 c 128,-1,6
 918 311 918 311 918 449.5 c 128,-1,7
 918 588 918 588 833.5 679.5 c 128,-1,8
 749 771 749 771 596.5 771 c 128,-1,9
 444 771 444 771 368 682 c 128,-1,10
 292 593 292 593 292 453 c 0,0,1
412 861 m 1,11,12
 525 921 525 921 644 921 c 128,-1,13
 763 921 763 921 870 861.5 c 128,-1,14
 977 802 977 802 1042 692.5 c 128,-1,15
 1107 583 1107 583 1107 449 c 0,16,17
 1107 245 1107 245 969.5 111 c 128,-1,18
 832 -23 832 -23 607 -23 c 0,19,20
 490 -23 490 -23 393.5 16.5 c 0,21,22
 296 56 296 56 234 124 c 0,23,24
 102 266 102 266 103 472 c 0,25,26
 103 635 103 635 162.5 763.5 c 128,-1,27
 222 892 222 892 378 1089 c 0,28,29
 485 1225 485 1225 644 1413 c 1,30,-1
 707 1489 l 1,31,-1
 938 1489 l 1,32,-1
 412 861 l 1,11,12
EndSplineSet
EndChar

StartChar: seven
Encoding: 55 55 26
Width: 1052
GlyphClass: 2
Flags: HW
LayerCount: 2
Fore
SplineSet
261 0 m 1,0,-1
 775 1341 l 1,1,-1
 100 1341 l 1,2,-1
 111 1496 l 1,3,-1
 978 1496 l 1,4,-1
 978 1360 l 1,5,-1
 443 0 l 1,6,-1
 261 0 l 1,0,-1
EndSplineSet
EndChar

StartChar: eight
Encoding: 56 56 27
Width: 1182
GlyphClass: 2
Flags: HW
LayerCount: 2
Fore
SplineSet
792 1314 m 128,-1,1
 711 1373 711 1373 593.5 1373 c 128,-1,2
 476 1373 476 1373 393.5 1314 c 128,-1,3
 311 1255 311 1255 311 1152 c 0,4,5
 311 916 311 916 594 853 c 1,6,7
 873 916 873 916 873 1152 c 0,8,0
 873 1255 873 1255 792 1314 c 128,-1,1
594 703 m 1,9,10
 451 670 451 670 365 592.5 c 128,-1,11
 279 515 279 515 279 394.5 c 128,-1,12
 279 274 279 274 368 201.5 c 128,-1,13
 457 129 457 129 594 129 c 128,-1,14
 731 129 731 129 817.5 201.5 c 128,-1,15
 904 274 904 274 904 395 c 128,-1,16
 904 516 904 516 820 593.5 c 128,-1,17
 736 671 736 671 594 703 c 1,9,10
1049 1148 m 0,18,19
 1049 890 1049 890 791 788 c 1,20,21
 926 740 926 740 1003 634 c 128,-1,22
 1080 528 1080 528 1080 385 c 0,23,24
 1080 193 1080 193 941.5 85 c 128,-1,25
 803 -23 803 -23 594 -23 c 0,26,27
 305 -23 305 -23 171 162 c 0,28,29
 103 256 103 256 103 392 c 128,-1,30
 103 528 103 528 185 634 c 128,-1,31
 267 740 267 740 414 788 c 1,32,33
 134 887 134 887 134 1148 c 0,34,35
 134 1325 134 1325 262 1425 c 128,-1,36
 390 1525 390 1525 593.5 1525 c 128,-1,37
 797 1525 797 1525 923 1425 c 128,-1,38
 1049 1325 1049 1325 1049 1148 c 0,18,19
EndSplineSet
EndChar

StartChar: nine
Encoding: 57 57 28
Width: 1165
GlyphClass: 2
Flags: HW
LayerCount: 2
Fore
SplineSet
825.5 835 m 128,-1,1
 901 922 901 922 901 1060 c 128,-1,2
 901 1198 901 1198 823.5 1285.5 c 128,-1,3
 746 1373 746 1373 597.5 1373 c 128,-1,4
 449 1373 449 1373 362 1281.5 c 128,-1,5
 275 1190 275 1190 275 1053 c 128,-1,6
 275 916 275 916 359 832 c 128,-1,7
 443 748 443 748 596.5 748 c 128,-1,0
 750 748 750 748 825.5 835 c 128,-1,1
781 658 m 1,8,9
 668 598 668 598 548.5 598 c 128,-1,10
 429 598 429 598 322.5 653.5 c 128,-1,11
 216 709 216 709 151 814 c 128,-1,12
 86 919 86 919 86 1053 c 0,13,14
 86 1257 86 1257 226 1391 c 128,-1,15
 366 1525 366 1525 592 1525 c 0,16,17
 830 1524 830 1524 962 1384 c 0,18,19
 1090 1247 1090 1247 1090 1042 c 0,20,21
 1090 899 1090 899 1041 783 c 128,-1,22
 992 667 992 667 910 557 c 0,23,24
 786 389 786 389 549 98 c 1,25,-1
 470 0 l 1,26,-1
 250 0 l 1,27,-1
 781 658 l 1,8,9
EndSplineSet
EndChar

StartChar: colon
Encoding: 58 58 29
Width: 494
GlyphClass: 2
Flags: HW
LayerCount: 2
Fore
SplineSet
146 -25 m 1,0,-1
 146 208 l 1,1,-1
 352 208 l 1,2,-1
 352 -25 l 1,3,-1
 146 -25 l 1,0,-1
146 893 m 1,4,-1
 146 1124 l 1,5,-1
 352 1124 l 1,6,-1
 352 893 l 1,7,-1
 146 893 l 1,4,-1
EndSplineSet
EndChar

StartChar: semicolon
Encoding: 59 59 30
Width: 518
GlyphClass: 2
Flags: HW
LayerCount: 2
Fore
SplineSet
376 197 m 1,0,-1
 251 -310 l 1,1,-1
 138 -310 l 1,2,-1
 194 197 l 1,3,-1
 376 197 l 1,0,-1
174 893 m 1,4,-1
 174 1124 l 1,5,-1
 380 1124 l 1,6,-1
 380 893 l 1,7,-1
 174 893 l 1,4,-1
EndSplineSet
EndChar

StartChar: less
Encoding: 60 60 31
Width: 1179
GlyphClass: 2
Flags: HW
LayerCount: 2
Fore
SplineSet
1061 982 m 1,0,-1
 294 596 l 1,1,-1
 1057 216 l 1,2,-1
 1057 50 l 1,3,-1
 103 547 l 1,4,-1
 103 642 l 1,5,-1
 1061 1149 l 1,6,-1
 1061 982 l 1,0,-1
EndSplineSet
EndChar

StartChar: equal
Encoding: 61 61 32
Width: 1286
GlyphClass: 2
Flags: HW
LayerCount: 2
Fore
SplineSet
145 452 m 1,0,-1
 1146 452 l 1,1,-1
 1146 305 l 1,2,-1
 145 305 l 1,3,-1
 145 452 l 1,0,-1
143 891 m 1,4,-1
 1146 891 l 1,5,-1
 1146 741 l 1,6,-1
 143 741 l 1,7,-1
 143 891 l 1,4,-1
EndSplineSet
EndChar

StartChar: greater
Encoding: 62 62 33
Width: 1182
GlyphClass: 2
Flags: HW
LayerCount: 2
Fore
SplineSet
126 230 m 1,0,-1
 891 598 l 1,1,-1
 130 997 l 1,2,-1
 130 1160 l 1,3,-1
 1086 640 l 1,4,-1
 1086 544 l 1,5,-1
 126 62 l 1,6,-1
 126 230 l 1,0,-1
EndSplineSet
EndChar

StartChar: question
Encoding: 63 63 34
Width: 865
GlyphClass: 2
Flags: HW
LayerCount: 2
Fore
SplineSet
242 120 m 128,-1,1
 242 173 242 173 277.5 212.5 c 128,-1,2
 313 252 313 252 375.5 252 c 128,-1,3
 438 252 438 252 473 213 c 128,-1,4
 508 174 508 174 508 120 c 128,-1,5
 508 66 508 66 473 27 c 128,-1,6
 438 -12 438 -12 375.5 -12 c 128,-1,7
 313 -12 313 -12 277.5 27.5 c 128,-1,0
 242 67 242 67 242 120 c 128,-1,1
404 435 m 1,8,-1
 317 435 l 1,9,10
 317 552 317 552 418 744 c 0,11,12
 460 824 460 824 502 902 c 0,13,14
 602 1091 602 1091 601.5 1186 c 128,-1,15
 601 1281 601 1281 541 1327 c 128,-1,16
 481 1373 481 1373 364.5 1373 c 128,-1,17
 248 1373 248 1373 118 1292 c 1,18,-1
 73 1427 l 1,19,20
 196 1524 196 1524 381 1524 c 128,-1,21
 566 1524 566 1524 665.5 1438.5 c 128,-1,22
 765 1353 765 1353 765 1200 c 0,23,24
 765 1056 765 1056 680 908 c 0,25,26
 640 838 640 838 596 772 c 0,27,28
 472 586 472 586 404 435 c 1,8,-1
EndSplineSet
EndChar

StartChar: at
Encoding: 64 64 35
Width: 1788
GlyphClass: 2
Flags: HW
LayerCount: 2
Fore
SplineSet
814 442 m 0,0,1
 933 442 933 442 1001 629 c 0,2,3
 1039 732 1039 732 1087 998 c 1,4,5
 1046 1019 1046 1019 961.5 1019 c 128,-1,6
 877 1019 877 1019 821.5 984 c 128,-1,7
 766 949 766 949 735 890 c 0,8,9
 675 776 675 776 675 621 c 0,10,11
 675 539 675 539 711.5 490.5 c 128,-1,12
 748 442 748 442 814 442 c 0,0,1
1414 97 m 1,13,14
 1228 -75 1228 -75 886 -75 c 0,15,16
 665 -75 665 -75 487 21.5 c 128,-1,17
 309 118 309 118 205 300.5 c 128,-1,18
 101 483 101 483 101 720 c 0,19,20
 101 885 101 885 165 1034 c 128,-1,21
 229 1183 229 1183 337.5 1291 c 128,-1,22
 446 1399 446 1399 597 1462 c 128,-1,23
 748 1525 748 1525 939.5 1525 c 128,-1,24
 1131 1525 1131 1525 1305.5 1442 c 128,-1,25
 1480 1359 1480 1359 1583.5 1201 c 128,-1,26
 1687 1043 1687 1043 1687 839 c 0,27,28
 1687 715 1687 715 1642 609 c 0,29,30
 1596 503 1596 503 1526 437 c 0,31,32
 1376 297 1376 297 1213.5 297 c 128,-1,33
 1051 297 1051 297 1028 455 c 1,34,35
 933 316 933 316 790 316 c 0,36,37
 680 316 680 316 611 401 c 128,-1,38
 542 486 542 486 542 609 c 128,-1,39
 542 732 542 732 566 820.5 c 128,-1,40
 590 909 590 909 638 981 c 128,-1,41
 686 1053 686 1053 766 1095 c 128,-1,42
 846 1137 846 1137 960 1137 c 128,-1,43
 1074 1137 1074 1137 1249 1075 c 1,44,45
 1238 1021 1238 1021 1220 938 c 128,-1,46
 1202 855 1202 855 1190.5 801 c 0,47,48
 1180 748 1180 748 1168 688 c 0,49,50
 1144 566 1144 566 1144 524 c 0,51,52
 1144 418 1144 418 1233 418 c 0,53,54
 1282 418 1282 418 1339 451.5 c 128,-1,55
 1396 485 1396 485 1445 540.5 c 128,-1,56
 1494 596 1494 596 1527 676.5 c 128,-1,57
 1560 757 1560 757 1560 864 c 128,-1,58
 1560 971 1560 971 1511 1077.5 c 128,-1,59
 1462 1184 1462 1184 1376 1256 c 0,60,61
 1195 1405 1195 1405 911 1405 c 0,62,63
 773 1405 773 1405 647 1351.5 c 128,-1,64
 521 1298 521 1298 429.5 1207 c 128,-1,65
 338 1116 338 1116 284 989 c 128,-1,66
 230 862 230 862 230 714 c 128,-1,67
 230 566 230 566 282 438 c 128,-1,68
 334 310 334 310 423 224 c 0,69,70
 609 46 609 46 893 46 c 128,-1,71
 1177 46 1177 46 1344 185 c 1,72,-1
 1414 97 l 1,13,14
EndSplineSet
EndChar

StartChar: A
Encoding: 65 65 36
Width: 1309
GlyphClass: 2
Flags: HW
LayerCount: 2
Fore
SplineSet
420 611 m 1,0,-1
 899 611 l 1,1,-1
 671 1324 l 1,2,-1
 420 611 l 1,0,-1
1123 0 m 1,3,-1
 958 473 l 1,4,-1
 365 473 l 1,5,-1
 187 0 l 1,6,-1
 6 0 l 1,7,-1
 564 1496 l 1,8,-1
 776 1496 l 1,9,-1
 1303 0 l 1,10,-1
 1123 0 l 1,3,-1
EndSplineSet
EndChar

StartChar: B
Encoding: 66 66 37
Width: 1286
GlyphClass: 2
Flags: HW
LayerCount: 2
Fore
SplineSet
324 716 m 1,0,-1
 324 139 l 1,1,-1
 637 139 l 2,2,3
 835 139 835 139 934 209 c 128,-1,4
 1033 279 1033 279 1033 424 c 128,-1,5
 1033 569 1033 569 944.5 642.5 c 128,-1,6
 856 716 856 716 688 716 c 2,7,-1
 324 716 l 1,0,-1
324 1352 m 1,8,-1
 324 850 l 1,9,-1
 678 850 l 2,10,11
 886 850 886 850 942 970 c 0,12,13
 966 1022 966 1022 966 1092 c 128,-1,14
 966 1162 966 1162 946 1209 c 128,-1,15
 926 1256 926 1256 893 1283.5 c 0,16,17
 860 1310 860 1310 805 1326 c 0,18,19
 715 1352 715 1352 557 1352 c 2,20,-1
 324 1352 l 1,8,-1
147 0 m 1,21,-1
 147 1496 l 1,22,-1
 583 1496 l 2,23,24
 864 1496 864 1496 1007.5 1409.5 c 128,-1,25
 1151 1323 1151 1323 1151 1131 c 0,26,27
 1151 1016 1151 1016 1098.5 926.5 c 128,-1,28
 1046 837 1046 837 939 801 c 1,29,30
 1028 782 1028 782 1092 722 c 0,31,32
 1212 607 1212 607 1213 426 c 0,33,34
 1213 0 1213 0 670 0 c 2,35,-1
 147 0 l 1,21,-1
EndSplineSet
EndChar

StartChar: C
Encoding: 67 67 38
Width: 1289
GlyphClass: 2
Flags: HW
LayerCount: 2
Fore
SplineSet
1188 252 m 1,0,-1
 1246 107 l 1,1,2
 1100 -23 1100 -23 815 -23 c 0,3,4
 643 -23 643 -23 505.5 37.5 c 128,-1,5
 368 98 368 98 280 203 c 0,6,7
 99 419 99 419 99 745 c 0,8,9
 99 1082 99 1082 283 1300 c 0,10,11
 372 1406 372 1406 508.5 1465.5 c 128,-1,12
 645 1525 645 1525 814 1525 c 0,13,14
 1084 1525 1084 1525 1251 1389 c 1,15,-1
 1187 1254 l 1,16,17
 1034 1373 1034 1373 819 1373 c 0,18,19
 687 1373 687 1373 583.5 1322 c 0,20,21
 480 1272 480 1272 416 1184 c 0,22,23
 288 1007 288 1007 288 746 c 0,24,25
 288 424 288 424 468 254 c 0,26,27
 601 128 601 128 818 128.5 c 128,-1,28
 1035 129 1035 129 1188 252 c 1,0,-1
EndSplineSet
EndChar

StartChar: D
Encoding: 68 68 39
Width: 1511
GlyphClass: 2
Flags: HW
LayerCount: 2
Fore
SplineSet
324 1341 m 1,0,-1
 324 155 l 1,1,-1
 639 155 l 2,2,3
 918 155 918 155 1070.5 301.5 c 128,-1,4
 1223 448 1223 448 1223 734 c 0,5,6
 1223 1132 1223 1132 957 1263 c 0,7,8
 799 1341 799 1341 540 1341 c 2,9,-1
 324 1341 l 1,0,-1
147 0 m 1,10,-1
 147 1496 l 1,11,-1
 519 1496 l 2,12,13
 1030 1496 1030 1496 1247 1254 c 0,14,15
 1412 1071 1412 1071 1412 738 c 0,16,17
 1412 370 1412 370 1193 182 c 0,18,19
 981 0 981 0 621 0 c 2,20,-1
 147 0 l 1,10,-1
EndSplineSet
EndChar

StartChar: E
Encoding: 69 69 40
Width: 1148
GlyphClass: 2
Flags: HW
LayerCount: 2
Fore
SplineSet
987 845 m 1,0,-1
 987 692 l 1,1,-1
 324 692 l 1,2,-1
 324 155 l 1,3,-1
 1058 155 l 1,4,-1
 1043 0 l 1,5,-1
 147 0 l 1,6,-1
 147 1496 l 1,7,-1
 1029 1496 l 1,8,-1
 1015 1341 l 1,9,-1
 324 1341 l 1,10,-1
 324 845 l 1,11,-1
 987 845 l 1,0,-1
EndSplineSet
EndChar

StartChar: F
Encoding: 70 70 41
Width: 1025
GlyphClass: 2
Flags: HW
LayerCount: 2
Fore
SplineSet
940 838 m 1,0,-1
 940 695 l 1,1,-1
 324 695 l 1,2,-1
 324 0 l 1,3,-1
 147 0 l 1,4,-1
 147 1496 l 1,5,-1
 974 1496 l 1,6,-1
 960 1341 l 1,7,-1
 324 1341 l 1,8,-1
 324 838 l 1,9,-1
 940 838 l 1,0,-1
EndSplineSet
EndChar

StartChar: G
Encoding: 71 71 42
Width: 1432
GlyphClass: 2
Flags: HW
LayerCount: 2
Fore
SplineSet
1072 10 m 128,-1,1
 956 -23 956 -23 797.5 -23 c 128,-1,2
 639 -23 639 -23 501.5 39 c 0,3,4
 364 102 364 102 278 208 c 0,5,6
 101 427 101 427 101 745 c 0,7,8
 101 1070 101 1070 277 1292 c 0,9,10
 363 1400 363 1400 502 1462.5 c 128,-1,11
 641 1525 641 1525 816 1525 c 0,12,13
 1095 1525 1095 1525 1275 1380 c 1,14,-1
 1210 1243 l 1,15,16
 1145 1296 1145 1296 1039.5 1334.5 c 128,-1,17
 934 1373 934 1373 826.5 1373 c 128,-1,18
 719 1373 719 1373 628.5 1339 c 128,-1,19
 538 1305 538 1305 476 1246.5 c 128,-1,20
 414 1188 414 1188 372 1108 c 0,21,22
 290 955 290 955 290 745 c 0,23,24
 290 486 290 486 418 313 c 0,25,26
 482 227 482 227 587 178 c 128,-1,27
 692 129 692 129 804.5 129 c 128,-1,28
 917 129 917 129 1014.5 157.5 c 128,-1,29
 1112 186 1112 186 1167 220 c 1,30,-1
 1167 615 l 1,31,-1
 797 615 l 1,32,-1
 809 764 l 1,33,-1
 1321 764 l 1,34,-1
 1321 123 l 1,35,0
 1188 43 1188 43 1072 10 c 128,-1,1
EndSplineSet
EndChar

StartChar: H
Encoding: 72 72 43
Width: 1465
GlyphClass: 2
Flags: HW
LayerCount: 2
Fore
SplineSet
1141 696 m 1,0,-1
 324 696 l 1,1,-1
 324 0 l 1,2,-1
 147 0 l 1,3,-1
 147 1496 l 1,4,-1
 324 1496 l 1,5,-1
 324 848 l 1,6,-1
 1141 848 l 1,7,-1
 1141 1496 l 1,8,-1
 1318 1496 l 1,9,-1
 1318 0 l 1,10,-1
 1141 0 l 1,11,-1
 1141 696 l 1,0,-1
EndSplineSet
EndChar

StartChar: I
Encoding: 73 73 44
Width: 509
GlyphClass: 2
Flags: HW
LayerCount: 2
Fore
SplineSet
340 1496 m 1,0,-1
 340 0 l 1,1,-1
 163 0 l 1,2,-1
 163 1496 l 1,3,-1
 340 1496 l 1,0,-1
EndSplineSet
EndChar

StartChar: J
Encoding: 74 74 45
Width: 550
GlyphClass: 2
Flags: HW
LayerCount: 2
Fore
SplineSet
226 181 m 2,0,-1
 226 1496 l 1,1,-1
 403 1496 l 1,2,-1
 403 241 l 2,3,4
 404 10 404 10 362 -68 c 0,5,6
 318 -150 318 -150 246 -178 c 0,7,8
 157 -214 157 -214 16 -214 c 2,9,-1
 -19 -214 l 1,10,-1
 -40 -72 l 1,11,-1
 34 -72 l 2,12,13
 180 -72 180 -72 210 29 c 0,14,15
 226 82 226 82 226 181 c 2,0,-1
EndSplineSet
EndChar

StartChar: K
Encoding: 75 75 46
Width: 1228
GlyphClass: 2
Flags: HW
LayerCount: 2
Fore
SplineSet
582 799 m 1,0,-1
 1263 0 l 1,1,-1
 1040 0 l 1,2,-1
 440 703 l 1,3,-1
 323 602 l 1,4,-1
 323 0 l 1,5,-1
 146 0 l 1,6,-1
 146 1496 l 1,7,-1
 323 1496 l 1,8,-1
 323 770 l 1,9,-1
 961 1496 l 1,10,-1
 1194 1496 l 1,11,-1
 582 799 l 1,0,-1
EndSplineSet
EndChar

StartChar: L
Encoding: 76 76 47
Width: 980
GlyphClass: 2
Flags: HW
LayerCount: 2
Fore
SplineSet
148 1496 m 1,0,-1
 325 1496 l 1,1,-1
 325 155 l 1,2,-1
 982 155 l 1,3,-1
 970 0 l 1,4,-1
 148 0 l 1,5,-1
 148 1496 l 1,0,-1
EndSplineSet
EndChar

StartChar: M
Encoding: 77 77 48
Width: 1785
GlyphClass: 2
Flags: HW
LayerCount: 2
Fore
SplineSet
316 1181 m 1,0,-1
 316 0 l 1,1,-1
 149 0 l 1,2,-1
 149 1496 l 1,3,-1
 341 1496 l 1,4,-1
 900 347 l 1,5,-1
 1453 1496 l 1,6,-1
 1636 1496 l 1,7,-1
 1636 0 l 1,8,-1
 1470 0 l 1,9,-1
 1470 1175 l 1,10,-1
 998 183 l 1,11,-1
 797 183 l 1,12,-1
 316 1181 l 1,0,-1
EndSplineSet
EndChar

StartChar: N
Encoding: 78 78 49
Width: 1488
GlyphClass: 2
Flags: HW
LayerCount: 2
Fore
SplineSet
1341 0 m 1,0,-1
 1144 0 l 1,1,-1
 314 1239 l 1,2,-1
 314 0 l 1,3,-1
 147 0 l 1,4,-1
 147 1496 l 1,5,-1
 341 1496 l 1,6,-1
 1178 253 l 1,7,-1
 1178 1496 l 1,8,-1
 1341 1496 l 1,9,-1
 1341 0 l 1,0,-1
EndSplineSet
EndChar

StartChar: O
Encoding: 79 79 50
Width: 1657
GlyphClass: 2
Flags: HW
LayerCount: 2
Fore
SplineSet
829 1373 m 0,0,1
 565 1373 565 1373 426.5 1204.5 c 128,-1,2
 288 1036 288 1036 288 746 c 0,3,4
 288 480 288 480 417 309 c 0,5,6
 481 224 481 224 586.5 176.5 c 128,-1,7
 692 129 692 129 815.5 129 c 128,-1,8
 939 129 939 129 1029 160.5 c 128,-1,9
 1119 192 1119 192 1181.5 247 c 128,-1,10
 1244 302 1244 302 1286 380 c 0,11,12
 1368 531 1368 531 1368.5 733 c 128,-1,13
 1369 935 1369 935 1310 1074.5 c 128,-1,14
 1251 1214 1251 1214 1128.5 1293.5 c 128,-1,15
 1006 1373 1006 1373 829 1373 c 0,0,1
829 -23 m 128,-1,17
 653 -23 653 -23 513 35.5 c 128,-1,18
 373 94 373 94 283 198 c 0,19,20
 99 410 99 410 99 755 c 128,-1,21
 99 1100 99 1100 293 1312.5 c 128,-1,22
 487 1525 487 1525 829 1525 c 128,-1,23
 1171 1525 1171 1525 1364.5 1312.5 c 128,-1,24
 1558 1100 1558 1100 1558 746 c 0,25,26
 1558 410 1558 410 1374 198 c 0,27,28
 1284 94 1284 94 1144.5 35.5 c 128,-1,16
 1005 -23 1005 -23 829 -23 c 128,-1,17
EndSplineSet
EndChar

StartChar: P
Encoding: 80 80 51
Width: 1159
GlyphClass: 2
Flags: HW
LayerCount: 2
Fore
SplineSet
323 780 m 1,0,1
 516 778 516 778 599 778 c 128,-1,2
 682 778 682 778 752 797 c 128,-1,3
 822 816 822 816 859.5 844 c 0,4,5
 896 872 896 872 918 917 c 0,6,7
 950 983 950 983 950 1100 c 128,-1,8
 950 1217 950 1217 864.5 1277 c 128,-1,9
 779 1337 779 1337 632 1337 c 2,10,-1
 323 1337 l 1,11,-1
 323 780 l 1,0,1
323 0 m 1,12,-1
 146 0 l 1,13,-1
 146 1496 l 1,14,-1
 628 1496 l 2,15,16
 848 1496 848 1496 985 1403 c 0,17,18
 1130 1304 1130 1304 1130 1093 c 0,19,20
 1130 818 1130 818 957 710 c 0,21,22
 822 626 822 626 567 625 c 0,23,24
 464 625 464 625 323 638 c 1,25,-1
 323 0 l 1,12,-1
EndSplineSet
EndChar

StartChar: Q
Encoding: 81 81 52
Width: 1657
GlyphClass: 2
Flags: HW
LayerCount: 2
Fore
SplineSet
829 1373 m 0,0,1
 565 1373 565 1373 426.5 1204.5 c 128,-1,2
 288 1036 288 1036 288 746 c 0,3,4
 288 480 288 480 417 309 c 0,5,6
 481 224 481 224 586.5 176.5 c 128,-1,7
 692 129 692 129 815.5 129 c 128,-1,8
 939 129 939 129 1029 160.5 c 128,-1,9
 1119 192 1119 192 1181.5 247 c 128,-1,10
 1244 302 1244 302 1286 380 c 0,11,12
 1368 531 1368 531 1368.5 733 c 128,-1,13
 1369 935 1369 935 1310 1074.5 c 128,-1,14
 1251 1214 1251 1214 1128.5 1293.5 c 128,-1,15
 1006 1373 1006 1373 829 1373 c 0,0,1
829 -23 m 0,16,17
 653 -23 653 -23 513 35.5 c 128,-1,18
 373 94 373 94 283 198 c 0,19,20
 99 410 99 410 99 755 c 128,-1,21
 99 1100 99 1100 293 1312.5 c 128,-1,22
 487 1525 487 1525 829 1525 c 128,-1,23
 1171 1525 1171 1525 1364.5 1312.5 c 128,-1,24
 1558 1100 1558 1100 1558 746 c 0,25,26
 1558 410 1558 410 1374 198 c 0,27,28
 1284 94 1284 94 1144 36 c 0,29,30
 1128 29 1128 29 1112 23 c 1,31,32
 1156 -72 1156 -72 1250 -192 c 0,33,34
 1346 -314 1346 -314 1385 -350 c 1,35,-1
 1267 -470 l 1,36,37
 1218 -421 1218 -421 1107.5 -276 c 128,-1,38
 997 -131 997 -131 942 -17 c 0,39,40
 943 -17 943 -17 943 -16 c 1,41,42
 888 -23 888 -23 829 -23 c 0,16,17
EndSplineSet
EndChar

StartChar: R
Encoding: 82 82 53
Width: 1339
GlyphClass: 2
Flags: HW
LayerCount: 2
Fore
SplineSet
324 1341 m 1,0,-1
 324 841 l 1,1,-1
 679 837 l 2,2,3
 880 836 880 836 956 902 c 0,4,5
 1028 965 1028 965 1028 1094 c 128,-1,6
 1028 1223 1028 1223 957.5 1282 c 128,-1,7
 887 1341 887 1341 720 1341 c 2,8,-1
 324 1341 l 1,0,-1
1272 0 m 1,9,-1
 1072 0 l 1,10,-1
 868 464 l 2,11,12
 785 651 785 651 762 689 c 1,13,14
 690 684 690 684 639.5 684 c 128,-1,15
 589 684 589 684 324 692 c 1,16,-1
 324 0 l 1,17,-1
 147 0 l 1,18,-1
 147 1496 l 1,19,-1
 620 1496 l 2,20,21
 881 1496 881 1496 999 1448 c 0,22,23
 1104 1406 1104 1406 1150 1330 c 0,24,25
 1202 1242 1202 1242 1202 1102 c 128,-1,26
 1202 962 1202 962 1131.5 862 c 128,-1,27
 1061 762 1061 762 920 724 c 0,28,29
 918 724 918 724 938 690 c 0,30,31
 1006 573 1006 573 1030 522 c 2,32,-1
 1272 0 l 1,9,-1
EndSplineSet
EndChar

StartChar: S
Encoding: 83 83 54
Width: 1227
GlyphClass: 2
Flags: HW
LayerCount: 2
Fore
SplineSet
146 244 m 1,0,1
 377 130 377 130 641 130 c 0,2,3
 966 130 966 130 966 426 c 0,4,5
 966 522 966 522 914.5 581.5 c 128,-1,6
 863 641 863 641 727 675 c 2,7,-1
 433 749 l 2,8,9
 96 834 96 834 96 1109 c 0,10,11
 96 1320 96 1320 241 1422.5 c 128,-1,12
 386 1525 386 1525 642 1525 c 0,13,14
 916 1525 916 1525 1089 1418 c 1,15,-1
 1039 1277 l 1,16,17
 972 1314 972 1314 861.5 1343 c 128,-1,18
 751 1372 751 1372 638 1372 c 0,19,20
 276 1372 276 1372 276 1121 c 0,21,22
 276 1036 276 1036 331.5 984.5 c 128,-1,23
 387 933 387 933 498 906 c 2,24,-1
 779 838 l 2,25,26
 959 795 959 795 1052 700.5 c 128,-1,27
 1145 606 1145 606 1145 432 c 0,28,29
 1145 206 1145 206 1006.5 91.5 c 128,-1,30
 868 -23 868 -23 630 -23 c 0,31,32
 452 -23 452 -23 313.5 13.5 c 128,-1,33
 175 50 175 50 94 100 c 1,34,-1
 146 244 l 1,0,1
EndSplineSet
EndChar

StartChar: T
Encoding: 84 84 55
Width: 1066
GlyphClass: 2
Flags: HW
LayerCount: 2
Fore
SplineSet
-3 1341 m 1,0,-1
 -3 1496 l 1,1,-1
 1069 1496 l 1,2,-1
 1069 1341 l 1,3,-1
 621 1341 l 1,4,-1
 621 0 l 1,5,-1
 444 0 l 1,6,-1
 444 1341 l 1,7,-1
 -3 1341 l 1,0,-1
EndSplineSet
EndChar

StartChar: U
Encoding: 85 85 56
Width: 1386
GlyphClass: 2
Flags: HW
LayerCount: 2
Fore
SplineSet
688 -23 m 0,0,1
 560 -23 560 -23 463 3.5 c 128,-1,2
 366 30 366 30 302.5 76.5 c 0,3,4
 240 122 240 122 200 192 c 0,5,6
 128 320 128 320 127 523 c 2,7,-1
 127 1496 l 1,8,-1
 304 1496 l 1,9,-1
 304 529 l 2,10,11
 304 312 304 312 394 218.5 c 128,-1,12
 484 125 484 125 688 125 c 128,-1,13
 892 125 892 125 982.5 218.5 c 128,-1,14
 1073 312 1073 312 1073 529 c 2,15,-1
 1073 1496 l 1,16,-1
 1250 1496 l 1,17,-1
 1250 523 l 2,18,19
 1250 204 1250 204 1074 76 c 0,20,21
 938 -24 938 -24 688 -23 c 0,0,1
EndSplineSet
EndChar

StartChar: V
Encoding: 86 86 57
Width: 1265
GlyphClass: 2
Flags: HW
LayerCount: 2
Fore
SplineSet
632 194 m 1,0,1
 930 1053 930 1053 1089 1496 c 1,2,-1
 1275 1496 l 1,3,-1
 728 0 l 1,4,-1
 536 0 l 1,5,-1
 -10 1496 l 1,6,-1
 181 1496 l 1,7,-1
 632 194 l 1,0,1
EndSplineSet
EndChar

StartChar: W
Encoding: 87 87 58
Width: 2131
GlyphClass: 2
Flags: HW
LayerCount: 2
Fore
SplineSet
1541 195 m 1,0,-1
 1976 1496 l 1,1,-1
 2158 1496 l 1,2,-1
 1645 0 l 1,3,-1
 1435 0 l 1,4,-1
 1084 1225 l 1,5,-1
 684 0 l 1,6,-1
 476 0 l 1,7,-1
 -27 1496 l 1,8,-1
 156 1496 l 1,9,-1
 586 197 l 1,10,-1
 976 1442 l 1,11,-1
 1186 1442 l 1,12,-1
 1541 195 l 1,0,-1
EndSplineSet
EndChar

StartChar: X
Encoding: 88 88 59
Width: 1299
GlyphClass: 2
Flags: HW
LayerCount: 2
Fore
SplineSet
11 0 m 1,0,-1
 536 781 l 1,1,-1
 43 1496 l 1,2,-1
 257 1496 l 1,3,-1
 660 892 l 1,4,-1
 1090 1496 l 1,5,-1
 1280 1496 l 1,6,-1
 781 781 l 1,7,-1
 1288 0 l 1,8,-1
 1083 0 l 1,9,-1
 653 680 l 1,10,-1
 206 0 l 1,11,-1
 11 0 l 1,0,-1
EndSplineSet
EndChar

StartChar: Y
Encoding: 89 89 60
Width: 1242
GlyphClass: 2
Flags: HW
LayerCount: 2
Fore
SplineSet
1243 1496 m 1,0,-1
 687 614 l 1,1,-1
 687 0 l 1,2,-1
 510 0 l 1,3,-1
 510 614 l 1,4,-1
 -1 1496 l 1,5,-1
 187 1496 l 1,6,-1
 610 778 l 1,7,-1
 1051 1496 l 1,8,-1
 1243 1496 l 1,0,-1
EndSplineSet
EndChar

StartChar: Z
Encoding: 90 90 61
Width: 1200
GlyphClass: 2
Flags: HW
LayerCount: 2
Fore
SplineSet
1157 1496 m 1,0,-1
 1157 1372 l 1,1,-1
 315 155 l 1,2,-1
 1149 155 l 1,3,-1
 1137 0 l 1,4,-1
 91 0 l 1,5,-1
 91 139 l 1,6,-1
 922 1341 l 1,7,-1
 125 1341 l 1,8,-1
 125 1496 l 1,9,-1
 1157 1496 l 1,0,-1
EndSplineSet
EndChar

StartChar: bracketleft
Encoding: 91 91 62
Width: 678
GlyphClass: 2
Flags: HW
LayerCount: 2
Fore
SplineSet
570 -139 m 1,0,-1
 570 -261 l 1,1,-1
 121 -261 l 1,2,-1
 121 1505 l 1,3,-1
 570 1505 l 1,4,-1
 570 1381 l 1,5,-1
 299 1381 l 1,6,-1
 299 -139 l 1,7,-1
 570 -139 l 1,0,-1
EndSplineSet
EndChar

StartChar: backslash
Encoding: 92 92 63
Width: 935
GlyphClass: 2
Flags: HW
LayerCount: 2
Fore
SplineSet
881 -120 m 1,0,-1
 735 -120 l 1,1,-1
 82 1466 l 1,2,-1
 230 1466 l 1,3,-1
 881 -120 l 1,0,-1
EndSplineSet
EndChar

StartChar: bracketright
Encoding: 93 93 64
Width: 678
GlyphClass: 2
Flags: HW
LayerCount: 2
Fore
SplineSet
109 -139 m 1,0,-1
 380 -139 l 1,1,-1
 380 1381 l 1,2,-1
 109 1381 l 1,3,-1
 109 1505 l 1,4,-1
 558 1505 l 1,5,-1
 558 -261 l 1,6,-1
 109 -261 l 1,7,-1
 109 -139 l 1,0,-1
EndSplineSet
EndChar

StartChar: asciicircum
Encoding: 94 94 65
Width: 1204
GlyphClass: 2
Flags: HW
LayerCount: 2
Fore
SplineSet
227 627 m 1,0,-1
 90 627 l 1,1,-1
 546 1559 l 1,2,-1
 651 1559 l 1,3,-1
 1113 627 l 1,4,-1
 979 627 l 1,5,-1
 595 1375 l 1,6,-1
 227 627 l 1,0,-1
EndSplineSet
EndChar

StartChar: underscore
Encoding: 95 95 66
Width: 1252
GlyphClass: 2
Flags: HW
LayerCount: 2
Fore
SplineSet
1102 -156 m 1,0,-1
 1102 -292 l 1,1,-1
 150 -292 l 1,2,-1
 150 -156 l 1,3,-1
 1102 -156 l 1,0,-1
EndSplineSet
EndChar

StartChar: grave
Encoding: 96 96 67
Width: 643
GlyphClass: 2
Flags: HW
LayerCount: 2
Fore
SplineSet
408 1251 m 1,0,-1
 85 1638 l 1,1,-1
 335 1638 l 1,2,-1
 520 1251 l 1,3,-1
 408 1251 l 1,0,-1
EndSplineSet
EndChar

StartChar: a
Encoding: 97 97 68
Width: 1057
GlyphClass: 2
Flags: HW
LayerCount: 2
Fore
SplineSet
312.5 149.5 m 128,-1,1
 362 107 362 107 445 107 c 128,-1,2
 528 107 528 107 621.5 152 c 128,-1,3
 715 197 715 197 766 269 c 1,4,-1
 766 539 l 2,5,6
 766 538 766 538 717.5 531.5 c 128,-1,7
 669 525 669 525 619 518.5 c 128,-1,8
 569 512 569 512 504 498 c 128,-1,9
 439 484 439 484 390 465.5 c 0,10,11
 340 447 340 447 314 421 c 0,12,13
 262 370 262 370 262.5 281 c 128,-1,0
 263 192 263 192 312.5 149.5 c 128,-1,1
550 983 m 0,14,15
 362 983 362 983 207 909 c 1,16,-1
 161 1041 l 1,17,18
 226 1077 226 1077 330 1100.5 c 128,-1,19
 434 1124 434 1124 546 1124 c 0,20,21
 933 1124 933 1124 933 806 c 2,22,-1
 933 0 l 1,23,-1
 796 0 l 1,24,-1
 771 120 l 1,25,26
 642 -25 642 -25 428 -25 c 0,27,28
 287 -25 287 -25 194 48 c 0,29,30
 95 125 95 125 95 275 c 0,31,32
 95 466 95 466 267 550 c 1,33,34
 379 606 379 606 656 643 c 1,35,-1
 766 656 l 1,36,-1
 766 781 l 2,37,38
 766 983 766 983 550 983 c 0,14,15
EndSplineSet
EndChar

StartChar: b
Encoding: 98 98 69
Width: 1176
GlyphClass: 2
Flags: HW
LayerCount: 2
Fore
SplineSet
837 21.5 m 128,-1,1
 745 -25 745 -25 631.5 -25 c 128,-1,2
 518 -25 518 -25 428 24.5 c 128,-1,3
 338 74 338 74 287 163 c 1,4,-1
 287 0 l 1,5,-1
 121 0 l 1,6,-1
 121 1490 l 1,7,-1
 289 1510 l 1,8,-1
 289 930 l 1,9,10
 350 1029 350 1029 442 1076.5 c 128,-1,11
 534 1124 534 1124 640 1124 c 128,-1,12
 746 1124 746 1124 837.5 1077 c 0,13,14
 928 1030 928 1030 986 950 c 0,15,16
 1106 785 1106 785 1106 559 c 0,17,18
 1106 314 1106 314 987 148 c 0,19,0
 929 68 929 68 837 21.5 c 128,-1,1
626 113 m 0,20,21
 704 113 704 113 768 152 c 0,22,23
 832 190 832 190 866 256 c 0,24,25
 932 382 932 382 933 548 c 0,26,27
 934 767 934 767 836 889 c 0,28,29
 758 986 758 986 616.5 985 c 128,-1,30
 475 984 475 984 381 863.5 c 128,-1,31
 287 743 287 743 287 551 c 0,32,33
 288 319 288 319 400 199 c 0,34,35
 480 113 480 113 626 113 c 0,20,21
EndSplineSet
EndChar

StartChar: c
Encoding: 99 99 70
Width: 962
GlyphClass: 2
Flags: HW
LayerCount: 2
Fore
SplineSet
897 75 m 1,0,1
 791 -25 791 -25 600 -25 c 0,2,3
 476 -25 476 -25 374 21.5 c 128,-1,4
 272 68 272 68 206 148 c 0,5,6
 70 314 70 314 70 549 c 1,7,8
 72 782 72 782 211 950 c 0,9,10
 277 1030 277 1030 377.5 1077 c 128,-1,11
 478 1124 478 1124 585 1124 c 0,12,13
 797 1124 797 1124 896 1029 c 1,14,-1
 854 910 l 1,15,16
 740 986 740 986 592 986 c 128,-1,17
 444 986 444 986 342.5 860.5 c 128,-1,18
 241 735 241 735 241 545 c 128,-1,19
 241 355 241 355 342.5 234 c 128,-1,20
 444 113 444 113 608 113 c 0,21,22
 739 113 739 113 855 195 c 1,23,-1
 897 75 l 1,0,1
EndSplineSet
EndChar

StartChar: d
Encoding: 100 100 71
Width: 1168
GlyphClass: 2
Flags: HW
LayerCount: 2
Fore
SplineSet
797.5 244 m 128,-1,1
 882 364 882 364 882 551 c 0,2,3
 882 734 882 734 804 852 c 0,4,5
 721 977 721 977 550 977 c 0,6,7
 470 977 470 977 408.5 940 c 0,8,9
 347 902 347 902 312 840 c 0,10,11
 243 717 243 717 243 556 c 0,12,13
 243 382 243 382 312 258 c 0,14,15
 387 123 387 123 550 123.5 c 128,-1,0
 713 124 713 124 797.5 244 c 128,-1,1
541 -24 m 0,16,17
 323 -24 323 -24 196.5 137.5 c 128,-1,18
 70 299 70 299 70 561 c 0,19,20
 70 716 70 716 127.5 844.5 c 128,-1,21
 185 973 185 973 292 1049 c 128,-1,22
 399 1125 399 1125 522.5 1125 c 128,-1,23
 646 1125 646 1125 742.5 1074 c 128,-1,24
 839 1023 839 1023 881 937 c 1,25,-1
 881 1490 l 1,26,-1
 1049 1510 l 1,27,-1
 1049 0 l 1,28,-1
 900 0 l 1,29,-1
 879 172 l 1,30,31
 830 84 830 84 740.5 30 c 128,-1,32
 651 -24 651 -24 541 -24 c 0,16,17
EndSplineSet
EndChar

StartChar: e
Encoding: 101 101 72
Width: 1068
GlyphClass: 2
Flags: HW
LayerCount: 2
Fore
SplineSet
997 594 m 1,0,-1
 995 519 l 1,1,-1
 244 519 l 1,2,3
 244 337 244 337 339 228 c 128,-1,4
 434 119 434 119 581 119 c 0,5,6
 767 119 767 119 929 229 c 1,7,-1
 981 107 l 1,8,9
 827 -25 827 -25 584.5 -25 c 128,-1,10
 342 -25 342 -25 207 130 c 128,-1,11
 72 285 72 285 72 541 c 128,-1,12
 72 797 72 797 207 957.5 c 128,-1,13
 342 1118 342 1118 556 1124 c 1,14,15
 760 1124 760 1124 878.5 981 c 128,-1,16
 997 838 997 838 997 594 c 1,0,-1
250 635 m 1,17,-1
 835 635 l 1,18,19
 835 805 835 805 758 896.5 c 128,-1,20
 681 988 681 988 555.5 988 c 128,-1,21
 430 988 430 988 347 892.5 c 128,-1,22
 264 797 264 797 250 635 c 1,17,-1
EndSplineSet
EndChar

StartChar: f
Encoding: 102 102 73
Width: 644
GlyphClass: 2
Flags: HW
LayerCount: 2
Fore
SplineSet
39 980 m 1,0,-1
 39 1098 l 1,1,-1
 200 1098 l 1,2,-1
 200 1130 l 1,3,4
 202 1254 202 1254 220 1331 c 128,-1,5
 238 1408 238 1408 282 1454.5 c 128,-1,6
 326 1501 326 1501 390.5 1518.5 c 128,-1,7
 455 1536 455 1536 558 1536 c 2,8,-1
 631 1536 l 1,9,-1
 651 1408 l 1,10,-1
 557 1408 l 2,11,12
 462 1408 462 1408 416 1371 c 0,13,14
 368 1332 368 1332 368 1130 c 2,15,-1
 368 1098 l 1,16,-1
 617 1098 l 1,17,-1
 617 980 l 1,18,-1
 368 980 l 1,19,-1
 368 0 l 1,20,-1
 200 0 l 1,21,-1
 200 980 l 1,22,-1
 39 980 l 1,0,-1
EndSplineSet
EndChar

StartChar: g
Encoding: 103 103 74
Width: 1158
GlyphClass: 2
Flags: HW
LayerCount: 2
Fore
SplineSet
556 1124 m 0,0,1
 760 1124 760 1124 889 951 c 1,2,-1
 889 1098 l 1,3,-1
 1052 1098 l 1,4,-1
 1052 79 l 2,5,6
 1052 -156 1052 -156 995 -270 c 0,7,8
 938 -386 938 -386 832 -438 c 0,9,10
 702 -502 702 -502 497 -502 c 2,11,-1
 319 -502 l 1,12,-1
 297 -351 l 1,13,-1
 501 -351 l 2,14,15
 675 -352 675 -352 754 -300 c 0,16,17
 838 -246 838 -246 862 -152 c 0,18,19
 884 -63 884 -63 884 83 c 2,20,-1
 884 180 l 1,21,22
 824 94 824 94 745 47.5 c 128,-1,23
 666 1 666 1 558 1 c 128,-1,24
 450 1 450 1 370.5 33.5 c 128,-1,25
 291 66 291 66 236.5 120 c 128,-1,26
 182 174 182 174 144 245 c 0,27,28
 70 381 70 381 70 523 c 128,-1,29
 70 665 70 665 99.5 767.5 c 128,-1,30
 129 870 129 870 187 951 c 128,-1,31
 245 1032 245 1032 339.5 1078 c 128,-1,32
 434 1124 434 1124 556 1124 c 0,0,1
578 143 m 0,33,34
 654 143 654 143 718 173 c 128,-1,35
 782 203 782 203 818 256 c 0,36,37
 889 361 889 361 889 516 c 2,38,-1
 889 597 l 2,39,40
 890 761 890 761 816 867 c 0,41,42
 736 982 736 982 570 982 c 0,43,44
 378 982 378 982 290 786 c 0,45,46
 242 681 242 681 242 554 c 0,47,48
 242 358 242 358 355 234 c 0,49,50
 437 144 437 144 578 143 c 0,33,34
EndSplineSet
EndChar

StartChar: h
Encoding: 104 104 75
Width: 1112
GlyphClass: 2
Flags: HW
LayerCount: 2
Fore
SplineSet
282 0 m 1,0,-1
 114 0 l 1,1,-1
 114 1490 l 1,2,-1
 282 1510 l 1,3,-1
 282 949 l 1,4,5
 427 1124 427 1124 674 1124 c 0,6,7
 842 1124 842 1124 924.5 1004.5 c 128,-1,8
 1007 885 1007 885 1007 664 c 2,9,-1
 1007 0 l 1,10,-1
 839 0 l 1,11,-1
 839 617 l 2,12,13
 840 858 840 858 778 924 c 0,14,15
 727 979 727 979 612.5 979.5 c 128,-1,16
 498 980 498 980 401 906.5 c 128,-1,17
 304 833 304 833 282 748 c 1,18,-1
 282 0 l 1,0,-1
EndSplineSet
EndChar

StartChar: i
Encoding: 105 105 76
Width: 466
GlyphClass: 2
Flags: HW
LayerCount: 2
Fore
SplineSet
327 1496 m 1,0,-1
 327 1298 l 1,1,-1
 159 1298 l 1,2,-1
 159 1496 l 1,3,-1
 327 1496 l 1,0,-1
327 1098 m 1,4,-1
 327 0 l 1,5,-1
 159 0 l 1,6,-1
 159 1098 l 1,7,-1
 327 1098 l 1,4,-1
EndSplineSet
EndChar

StartChar: j
Encoding: 106 106 77
Width: 445
GlyphClass: 2
Flags: HW
LayerCount: 2
Fore
SplineSet
330 1496 m 1,0,-1
 330 1298 l 1,1,-1
 162 1298 l 1,2,-1
 162 1496 l 1,3,-1
 330 1496 l 1,0,-1
330 1098 m 1,4,-1
 330 -139 l 2,5,6
 330 -245 330 -245 316.5 -310 c 128,-1,7
 303 -375 303 -375 265.5 -420.5 c 128,-1,8
 228 -466 228 -466 164 -484 c 128,-1,9
 100 -502 100 -502 -3 -502 c 2,10,-1
 -55 -502 l 1,11,-1
 -77 -351 l 1,12,-1
 -25 -351 l 2,13,14
 93 -351 93 -351 125 -312 c 0,15,16
 152 -279 152 -279 156 -244 c 0,17,18
 162 -192 162 -192 162 -121 c 2,19,-1
 162 1098 l 1,20,-1
 330 1098 l 1,4,-1
EndSplineSet
EndChar

StartChar: k
Encoding: 107 107 78
Width: 1007
GlyphClass: 2
Flags: HW
LayerCount: 2
Fore
SplineSet
115 1490 m 1,0,-1
 283 1510 l 1,1,-1
 283 632 l 1,2,-1
 772 1098 l 1,3,-1
 999 1098 l 1,4,-1
 530 642 l 1,5,-1
 1032 0 l 1,6,-1
 817 0 l 1,7,-1
 402 563 l 1,8,-1
 283 461 l 1,9,-1
 283 0 l 1,10,-1
 115 0 l 1,11,-1
 115 1490 l 1,0,-1
EndSplineSet
EndChar

StartChar: l
Encoding: 108 108 79
Width: 569
GlyphClass: 2
Flags: HW
LayerCount: 2
Fore
SplineSet
611 -8 m 1,0,1
 481 -21 481 -21 431.5 -21 c 128,-1,2
 382 -21 382 -21 343.5 -15.5 c 128,-1,3
 305 -10 305 -10 275 5 c 128,-1,4
 245 20 245 20 224 38 c 128,-1,5
 203 56 203 56 188 88.5 c 128,-1,6
 173 121 173 121 164.5 154 c 0,7,8
 156 188 156 188 151 240 c 0,9,10
 143 324 143 324 143 468 c 2,11,-1
 143 1490 l 1,12,-1
 311 1510 l 1,13,-1
 311 431 l 2,14,15
 311 268 311 268 317.5 238 c 128,-1,16
 324 208 324 208 331 185.5 c 128,-1,17
 338 163 338 163 348.5 153.5 c 0,18,19
 358 144 358 144 374 134 c 0,20,21
 399 118 399 118 436 118 c 128,-1,22
 473 118 473 118 596 128 c 1,23,-1
 611 -8 l 1,0,1
EndSplineSet
EndChar

StartChar: m
Encoding: 109 109 80
Width: 1773
GlyphClass: 2
Flags: HW
LayerCount: 2
Fore
SplineSet
271 934 m 1,0,1
 415 1124 415 1124 641 1124 c 0,2,3
 760 1124 760 1124 836.5 1076 c 128,-1,4
 913 1028 913 1028 950 921 c 1,5,6
 1083 1124 1083 1124 1330 1124 c 0,7,8
 1668 1124 1668 1124 1668 697 c 2,9,-1
 1668 0 l 1,10,-1
 1500 0 l 1,11,-1
 1500 573 l 2,12,13
 1500 805 1500 805 1472 870 c 0,14,15
 1438 947 1438 947 1382 967 c 0,16,17
 1348 979 1348 979 1303 979 c 0,18,19
 1200 979 1200 979 1116 911 c 128,-1,20
 1032 843 1032 843 993 731 c 1,21,-1
 993 0 l 1,22,-1
 825 0 l 1,23,-1
 825 608 l 2,24,25
 824 832 824 832 764 914 c 0,26,27
 716 980 716 980 608 979.5 c 128,-1,28
 500 979 500 979 405.5 909.5 c 128,-1,29
 311 840 311 840 282 749 c 1,30,-1
 282 0 l 1,31,-1
 114 0 l 1,32,-1
 114 820 l 1,33,-1
 111 1098 l 1,34,-1
 255 1098 l 1,35,-1
 271 934 l 1,0,1
EndSplineSet
EndChar

StartChar: n
Encoding: 110 110 81
Width: 1112
GlyphClass: 2
Flags: HW
LayerCount: 2
Fore
SplineSet
661 1124 m 0,0,1
 839 1124 839 1124 923 1007.5 c 128,-1,2
 1007 891 1007 891 1007 657 c 2,3,-1
 1007 0 l 1,4,-1
 839 0 l 1,5,-1
 839 551 l 2,6,7
 839 775 839 775 824.5 822.5 c 128,-1,8
 810 870 810 870 794.5 900 c 128,-1,9
 779 930 779 930 756 946 c 0,10,11
 705 980 705 980 625 980 c 0,12,13
 497 980 497 980 401 907 c 128,-1,14
 305 834 305 834 282 750 c 1,15,-1
 282 0 l 1,16,-1
 114 0 l 1,17,-1
 114 831 l 1,18,-1
 111 1098 l 1,19,-1
 255 1098 l 1,20,-1
 271 935 l 1,21,22
 334 1022 334 1022 440 1073 c 128,-1,23
 546 1124 546 1124 661 1124 c 0,0,1
EndSplineSet
EndChar

StartChar: o
Encoding: 111 111 82
Width: 1165
GlyphClass: 2
Flags: HW
LayerCount: 2
Fore
SplineSet
902 384 m 0,0,1
 921 460 921 460 921 549 c 128,-1,2
 921 638 921 638 903 714.5 c 0,3,4
 885 792 885 792 847 854 c 0,5,6
 766 986 766 986 587 986 c 0,7,8
 502 986 502 986 434.5 949 c 128,-1,9
 367 912 367 912 326 849 c 0,10,11
 243 721 243 721 243 544 c 0,12,13
 243 369 243 369 326 246 c 0,14,15
 415 113 415 113 590 113 c 0,16,17
 834 113 834 113 902 384 c 0,0,1
1095 540 m 0,18,19
 1095 434 1095 434 1061.5 331 c 128,-1,20
 1028 228 1028 228 965 148 c 128,-1,21
 902 68 902 68 804.5 21.5 c 128,-1,22
 707 -25 707 -25 566.5 -25 c 128,-1,23
 426 -25 426 -25 307 53 c 128,-1,24
 188 131 188 131 129 259 c 128,-1,25
 70 387 70 387 70 546.5 c 128,-1,26
 70 706 70 706 129.5 835.5 c 128,-1,27
 189 965 189 965 309 1044.5 c 128,-1,28
 429 1124 429 1124 590 1124 c 0,29,30
 878 1124 878 1124 1014 888 c 0,31,32
 1096 747 1096 747 1095 540 c 0,18,19
EndSplineSet
EndChar

StartChar: p
Encoding: 112 112 83
Width: 1148
GlyphClass: 2
Flags: HW
LayerCount: 2
Fore
SplineSet
294 716 m 0,0,1
 276 640 276 640 276 548.5 c 128,-1,2
 276 457 276 457 294 381 c 128,-1,3
 312 305 312 305 348 245 c 0,4,5
 425 118 425 118 593 118 c 0,6,7
 675 118 675 118 738 156.5 c 128,-1,8
 801 195 801 195 836 259 c 0,9,10
 905 385 905 385 905 548 c 0,11,12
 905 760 905 760 802 887 c 0,13,14
 725 982 725 982 593 982 c 0,15,16
 356 982 356 982 294 716 c 0,0,1
111 -459 m 1,17,-1
 111 1098 l 1,18,-1
 269 1098 l 1,19,-1
 279 951 l 1,20,21
 408 1124 408 1124 618 1124 c 0,22,23
 736 1124 736 1124 826 1077.5 c 128,-1,24
 916 1031 916 1031 970 949 c 0,25,26
 1078 785 1078 785 1078 537 c 0,27,28
 1078 308 1078 308 956 144 c 0,29,30
 898 66 898 66 810 20.5 c 128,-1,31
 722 -25 722 -25 618 -25 c 0,32,33
 390 -25 390 -25 279 160 c 1,34,-1
 279 -437 l 1,35,-1
 111 -459 l 1,17,-1
EndSplineSet
EndChar

StartChar: q
Encoding: 113 113 84
Width: 1168
GlyphClass: 2
Flags: HW
LayerCount: 2
Fore
SplineSet
874.5 416.5 m 128,-1,1
 886 479 886 479 886 575.5 c 128,-1,2
 886 672 886 672 853.5 765 c 128,-1,3
 821 858 821 858 745.5 917 c 128,-1,4
 670 976 670 976 558 976 c 0,5,6
 366 976 366 976 290 786 c 0,7,8
 250 684 250 684 250 585 c 128,-1,9
 250 486 250 486 259 427.5 c 128,-1,10
 268 369 268 369 291 312 c 128,-1,11
 314 255 314 255 348 214 c 128,-1,12
 382 173 382 173 436.5 148 c 128,-1,13
 491 123 491 123 559 123 c 128,-1,14
 627 123 627 123 682.5 145 c 128,-1,15
 738 167 738 167 775.5 206 c 128,-1,16
 813 245 813 245 838 299.5 c 128,-1,0
 863 354 863 354 874.5 416.5 c 128,-1,1
741 27 m 128,-1,18
 652 -25 652 -25 540 -25 c 128,-1,19
 428 -25 428 -25 338.5 21.5 c 128,-1,20
 249 68 249 68 193 146 c 0,21,22
 77 309 77 309 77 538 c 0,23,24
 77 784 77 784 193 950 c 0,25,26
 250 1032 250 1032 342 1078 c 128,-1,27
 434 1124 434 1124 551 1124 c 0,28,29
 767 1124 767 1124 886 938 c 1,30,-1
 886 1098 l 1,31,-1
 1051 1098 l 1,32,-1
 1051 -439 l 1,33,-1
 883 -459 l 1,34,-1
 883 171 l 1,35,17
 830 79 830 79 741 27 c 128,-1,18
EndSplineSet
EndChar

StartChar: r
Encoding: 114 114 85
Width: 656
GlyphClass: 2
Flags: HW
LayerCount: 2
Fore
SplineSet
123 845 m 1,0,-1
 120 1098 l 1,1,-1
 262 1098 l 1,2,-1
 275 908 l 1,3,4
 379 1098 379 1098 595 1098 c 2,5,-1
 627 1098 l 1,6,-1
 639 945 l 1,7,-1
 599 945 l 2,8,9
 452 945 452 945 371.5 859.5 c 128,-1,10
 291 774 291 774 291 644 c 2,11,-1
 291 0 l 1,12,-1
 123 0 l 1,13,-1
 123 845 l 1,0,-1
EndSplineSet
EndChar

StartChar: s
Encoding: 115 115 86
Width: 929
GlyphClass: 2
Flags: HW
LayerCount: 2
Fore
SplineSet
854 294 m 1,0,1
 849 143 849 143 750 59 c 128,-1,2
 651 -25 651 -25 512.5 -25 c 128,-1,3
 374 -25 374 -25 270 6 c 128,-1,4
 166 37 166 37 111 78 c 1,5,-1
 154 206 l 1,6,7
 222 162 222 162 309.5 138 c 128,-1,8
 397 114 397 114 465 114 c 2,9,-1
 482 114 l 2,10,11
 577 114 577 114 633.5 159.5 c 128,-1,12
 690 205 690 205 697 290 c 1,13,-1
 697 302 l 2,14,15
 697 425 697 425 531 471 c 2,16,-1
 384 512 l 2,17,18
 229 555 229 555 165.5 631 c 128,-1,19
 102 707 102 707 100 816 c 1,20,21
 100 936 100 936 191 1026 c 0,22,23
 288 1121 288 1121 474 1122.5 c 128,-1,24
 660 1124 660 1124 799 1053 c 1,25,-1
 759 932 l 1,26,27
 611 991 611 991 498 990.5 c 128,-1,28
 385 990 385 990 327 944 c 128,-1,29
 269 898 269 898 269.5 829.5 c 128,-1,30
 270 761 270 761 306 723 c 128,-1,31
 342 685 342 685 426 663 c 2,32,-1
 577 622 l 2,33,34
 715 585 715 585 784.5 508 c 128,-1,35
 854 431 854 431 854 299 c 2,36,-1
 854 294 l 1,0,1
EndSplineSet
EndChar

StartChar: t
Encoding: 116 116 87
Width: 697
GlyphClass: 2
Flags: HW
LayerCount: 2
Fore
SplineSet
520 118 m 1,0,-1
 656 129 l 1,1,-1
 671 -7 l 1,2,3
 523 -20 523 -20 479.5 -20 c 128,-1,4
 436 -20 436 -20 400.5 -14.5 c 128,-1,5
 365 -9 365 -9 337 0 c 128,-1,6
 309 9 309 9 288 26.5 c 128,-1,7
 267 44 267 44 251.5 63.5 c 128,-1,8
 236 83 236 83 225.5 114 c 128,-1,9
 215 145 215 145 208.5 175.5 c 128,-1,10
 202 206 202 206 198 252 c 0,11,12
 192 324 192 324 193 445 c 2,13,-1
 193 980 l 1,14,-1
 26 980 l 1,15,-1
 39 1098 l 1,16,-1
 193 1098 l 1,17,-1
 237 1346 l 1,18,-1
 361 1355 l 1,19,-1
 361 1098 l 1,20,-1
 652 1098 l 1,21,-1
 652 980 l 1,22,-1
 361 980 l 1,23,-1
 361 367 l 2,24,25
 361 212 361 212 390.5 165 c 128,-1,26
 420 118 420 118 520 118 c 1,0,-1
EndSplineSet
EndChar

StartChar: u
Encoding: 117 117 88
Width: 1100
GlyphClass: 2
Flags: HW
LayerCount: 2
Fore
SplineSet
105 366 m 2,0,-1
 105 1098 l 1,1,-1
 273 1098 l 1,2,-1
 273 364 l 2,3,4
 272 220 272 220 352 164 c 0,5,6
 424 113 424 113 552.5 113 c 128,-1,7
 681 113 681 113 753.5 170 c 128,-1,8
 826 227 826 227 826 364 c 2,9,-1
 826 1098 l 1,10,-1
 994 1098 l 1,11,-1
 994 366 l 2,12,13
 994 125 994 125 808 30 c 0,14,15
 700 -25 700 -25 551 -25 c 0,16,17
 314 -26 314 -26 194 104 c 0,18,19
 104 200 104 200 105 366 c 2,0,-1
EndSplineSet
EndChar

StartChar: v
Encoding: 118 118 89
Width: 1036
GlyphClass: 2
Flags: HW
LayerCount: 2
Fore
SplineSet
433 0 m 1,0,-1
 -1 1098 l 1,1,-1
 179 1098 l 1,2,-1
 525 184 l 1,3,-1
 852 1098 l 1,4,-1
 1031 1098 l 1,5,-1
 602 0 l 1,6,-1
 433 0 l 1,0,-1
EndSplineSet
EndChar

StartChar: w
Encoding: 119 119 90
Width: 1619
GlyphClass: 2
Flags: HW
LayerCount: 2
Fore
SplineSet
15 1098 m 1,0,-1
 188 1098 l 1,1,-1
 433 223 l 1,2,-1
 722 1098 l 1,3,-1
 919 1098 l 1,4,-1
 1199 227 l 1,5,-1
 1434 1098 l 1,6,-1
 1604 1098 l 1,7,-1
 1275 0 l 1,8,-1
 1109 0 l 1,9,-1
 818 928 l 1,10,-1
 511 0 l 1,11,-1
 342 0 l 1,12,-1
 15 1098 l 1,0,-1
EndSplineSet
EndChar

StartChar: x
Encoding: 120 120 91
Width: 1042
GlyphClass: 2
Flags: HW
LayerCount: 2
Fore
SplineSet
823 1098 m 1,0,-1
 1018 1098 l 1,1,-1
 624 552 l 1,2,-1
 1018 0 l 1,3,-1
 836 0 l 1,4,-1
 526 439 l 1,5,-1
 217 0 l 1,6,-1
 24 0 l 1,7,-1
 426 556 l 1,8,-1
 34 1098 l 1,9,-1
 227 1098 l 1,10,-1
 524 682 l 1,11,-1
 823 1098 l 1,0,-1
EndSplineSet
EndChar

StartChar: y
Encoding: 121 121 92
Width: 1012
GlyphClass: 2
Flags: HW
LayerCount: 2
Fore
SplineSet
180 1098 m 1,0,-1
 526 207 l 1,1,2
 563 318 563 318 636.5 545.5 c 128,-1,3
 710 773 710 773 763 936 c 2,4,-1
 816 1098 l 1,5,-1
 993 1098 l 1,6,-1
 593 -48 l 2,7,8
 507 -294 507 -294 423 -376 c 0,9,10
 336 -464 336 -464 228 -488 c 0,11,12
 166 -502 166 -502 89 -502 c 2,13,-1
 36 -502 l 1,14,-1
 17 -351 l 1,15,-1
 46 -351 l 2,16,17
 172 -351 172 -351 217 -331.5 c 128,-1,18
 262 -312 262 -312 284 -291 c 128,-1,19
 306 -270 306 -270 332 -223 c 0,20,21
 366 -163 366 -163 431 23 c 1,22,-1
 4 1098 l 1,23,-1
 180 1098 l 1,0,-1
EndSplineSet
EndChar

StartChar: z
Encoding: 122 122 93
Width: 866
GlyphClass: 2
Flags: HW
LayerCount: 2
Fore
SplineSet
84 139 m 1,0,-1
 609 964 l 1,1,-1
 78 964 l 1,2,-1
 78 1098 l 1,3,-1
 801 1098 l 1,4,-1
 801 964 l 1,5,-1
 271 136 l 1,6,-1
 821 136 l 1,7,-1
 821 0 l 1,8,-1
 84 0 l 1,9,-1
 84 139 l 1,0,-1
EndSplineSet
EndChar

StartChar: braceleft
Encoding: 123 123 94
Width: 690
GlyphClass: 2
Flags: HW
LayerCount: 2
Fore
SplineSet
286 689 m 1,0,1
 342 662 342 662 377 606 c 0,2,3
 433 516 433 516 433 390 c 2,4,-1
 433 156 l 2,5,6
 433 20 433 20 439 -4 c 128,-1,7
 445 -28 445 -28 452 -47 c 128,-1,8
 459 -66 459 -66 469 -73 c 128,-1,9
 479 -80 479 -80 495 -88 c 0,10,11
 519 -100 519 -100 578 -101 c 1,12,-1
 578 -238 l 1,13,14
 415 -238 415 -238 343.5 -170 c 128,-1,15
 272 -102 272 -102 272 53 c 2,16,-1
 272 335 l 2,17,18
 272 452 272 452 264 486.5 c 128,-1,19
 256 521 256 521 247 544.5 c 128,-1,20
 238 568 238 568 225 582 c 0,21,22
 195 614 195 614 149 614 c 2,23,-1
 89 614 l 1,24,-1
 89 764 l 1,25,-1
 149 764 l 2,26,27
 220 764 220 764 247 834 c 0,28,29
 269 893 269 893 270.5 951 c 128,-1,30
 272 1009 272 1009 272 1043 c 2,31,-1
 272 1326 l 2,32,33
 272 1481 272 1481 343.5 1548.5 c 128,-1,34
 415 1616 415 1616 578 1616 c 1,35,-1
 578 1479 l 1,36,37
 500 1479 500 1479 483 1463 c 128,-1,38
 466 1447 466 1447 458.5 1439 c 128,-1,39
 451 1431 451 1431 446.5 1412 c 128,-1,40
 442 1393 442 1393 439 1379 c 0,41,42
 436 1366 436 1366 435 1336 c 0,43,44
 433 1277 433 1277 433 1223 c 2,45,-1
 433 988 l 2,46,47
 433 862 433 862 377 772 c 0,48,49
 342 716 342 716 286 689 c 1,0,1
EndSplineSet
EndChar

StartChar: bar
Encoding: 124 124 95
Width: 470
GlyphClass: 2
Flags: HW
LayerCount: 2
Fore
SplineSet
310 1603 m 1,0,-1
 310 -303 l 1,1,-1
 160 -303 l 1,2,-1
 160 1603 l 1,3,-1
 310 1603 l 1,0,-1
EndSplineSet
EndChar

StartChar: braceright
Encoding: 125 125 96
Width: 700
GlyphClass: 2
Flags: HW
LayerCount: 2
Fore
SplineSet
411 689 m 1,0,1
 354 716 354 716 320 772 c 0,2,3
 266 860 266 860 266 988 c 2,4,-1
 266 1223 l 2,5,6
 266 1358 266 1358 259.5 1383 c 128,-1,7
 253 1408 253 1408 245.5 1426 c 128,-1,8
 238 1444 238 1444 227.5 1451.5 c 0,9,10
 218 1458 218 1458 202 1466 c 0,11,12
 176 1478 176 1478 118 1479 c 1,13,-1
 118 1616 l 1,14,15
 281 1616 281 1616 354 1548.5 c 128,-1,16
 427 1481 427 1481 427 1326 c 2,17,-1
 427 1043 l 2,18,19
 426 883 426 883 456 824 c 0,20,21
 486 764 486 764 551 764 c 2,22,-1
 610 764 l 1,23,-1
 610 614 l 1,24,-1
 551 614 l 2,25,26
 438 614 438 614 428 414 c 0,27,28
 426 382 426 382 427 335 c 2,29,-1
 427 53 l 2,30,31
 427 -102 427 -102 354 -170 c 128,-1,32
 281 -238 281 -238 118 -238 c 1,33,-1
 118 -101 l 1,34,35
 194 -101 194 -101 215.5 -82.5 c 128,-1,36
 237 -64 237 -64 246 -49 c 0,37,38
 256 -34 256 -34 260 1 c 0,39,40
 266 52 266 52 266 156 c 2,41,-1
 266 390 l 2,42,43
 266 518 266 518 320 606 c 0,44,45
 354 662 354 662 411 689 c 1,0,1
EndSplineSet
EndChar

StartChar: asciitilde
Encoding: 126 126 97
Width: 1340
GlyphClass: 2
Flags: HW
LayerCount: 2
Fore
SplineSet
430 760 m 0,0,1
 488 760 488 760 562.5 733 c 128,-1,2
 637 706 637 706 698 674 c 0,3,4
 860 588 860 588 921.5 587.5 c 128,-1,5
 983 587 983 587 1031 643 c 128,-1,6
 1079 699 1079 699 1097 778 c 1,7,-1
 1209 737 l 1,8,9
 1184 602 1184 602 1109 522 c 128,-1,10
 1034 442 1034 442 915 442 c 0,11,12
 863 442 863 442 770.5 485 c 128,-1,13
 678 528 678 528 584.5 571 c 128,-1,14
 491 614 491 614 425.5 614 c 128,-1,15
 360 614 360 614 308.5 556 c 128,-1,16
 257 498 257 498 240 415 c 1,17,-1
 137 474 l 1,18,19
 158 590 158 590 230 672 c 0,20,21
 308 760 308 760 430 760 c 0,0,1
EndSplineSet
EndChar

StartChar: exclamdown
Encoding: 161 161 99
Width: 497
GlyphClass: 2
Flags: HW
LayerCount: 2
Fore
SplineSet
332 747 m 1,0,-1
 332 -415 l 1,1,-1
 196 -415 l 1,2,-1
 196 747 l 1,3,-1
 332 747 l 1,0,-1
152 953 m 1,4,-1
 152 1174 l 1,5,-1
 341 1174 l 1,6,-1
 341 953 l 1,7,-1
 152 953 l 1,4,-1
EndSplineSet
EndChar

StartChar: cent
Encoding: 162 162 100
Width: 1033
GlyphClass: 2
Flags: HW
LayerCount: 2
Fore
SplineSet
547 1496 m 1,0,-1
 642 1496 l 1,1,-1
 642 1314 l 1,2,3
 811 1303 811 1303 896 1221 c 1,4,-1
 854 1102 l 1,5,6
 760 1165 760 1165 642 1176 c 1,7,-1
 642 306 l 1,8,9
 754 315 754 315 855 387 c 1,10,-1
 897 267 l 1,11,12
 803 178 803 178 642 168 c 1,13,-1
 642 0 l 1,14,-1
 547 0 l 1,15,-1
 547 169 l 1,16,17
 454 178 454 178 374 214 c 0,18,19
 272 260 272 260 206 340 c 0,20,21
 70 506 70 506 70 741 c 1,22,23
 72 974 72 974 211 1142 c 0,24,25
 278 1222 278 1222 378 1269 c 0,26,27
 461 1308 461 1308 547 1315 c 1,28,-1
 547 1496 l 1,0,-1
547 1175 m 1,29,30
 428 1158 428 1158 342 1052 c 0,31,32
 240 926 240 926 240.5 736.5 c 0,33,34
 240 547 240 547 342 426 c 0,35,36
 424 328 424 328 547 310 c 1,37,-1
 547 1175 l 1,29,30
EndSplineSet
EndChar

StartChar: sterling
Encoding: 163 163 101
Width: 1093
GlyphClass: 2
Flags: HW
LayerCount: 2
Fore
SplineSet
969 1242 m 1,0,1
 856 1373 856 1373 710 1373 c 0,2,3
 447 1373 447 1373 447 1008 c 2,4,-1
 447 849 l 1,5,-1
 845 849 l 1,6,-1
 845 707 l 1,7,-1
 447 707 l 1,8,-1
 447 530 l 2,9,10
 447 259 447 259 342 152 c 1,11,12
 422 162 422 162 431 162 c 2,13,-1
 1045 162 l 1,14,-1
 1045 0 l 1,15,-1
 129 0 l 1,16,-1
 107 137 l 1,17,18
 203 188 203 188 237 264 c 128,-1,19
 271 340 271 340 271 467 c 2,20,-1
 271 707 l 1,21,-1
 97 707 l 1,22,-1
 97 849 l 1,23,-1
 271 849 l 1,24,-1
 271 935 l 2,25,26
 270 1178 270 1178 320 1298 c 0,27,28
 364 1408 364 1408 452 1462 c 0,29,30
 552 1524 552 1524 710 1525 c 0,31,32
 942 1525 942 1525 1064 1349 c 1,33,-1
 969 1242 l 1,0,1
EndSplineSet
EndChar

StartChar: currency
Encoding: 164 164 102
Width: 1023
GlyphClass: 2
Flags: HW
LayerCount: 2
Fore
SplineSet
222 741 m 128,-1,1
 222 598 222 598 323 497 c 128,-1,2
 424 396 424 396 567 396 c 128,-1,3
 710 396 710 396 811 497 c 128,-1,4
 912 598 912 598 912 741 c 128,-1,5
 912 884 912 884 811 985 c 128,-1,6
 710 1086 710 1086 567 1086 c 128,-1,7
 424 1086 424 1086 323 985 c 128,-1,0
 222 884 222 884 222 741 c 128,-1,1
275 1064 m 1,8,9
 398 1176 398 1176 567.5 1176 c 128,-1,10
 737 1176 737 1176 862 1061 c 1,11,-1
 1099 1280 l 1,12,-1
 1144 1224 l 1,13,-1
 910 1008 l 1,14,15
 1002 889 1002 889 1002 741 c 128,-1,16
 1002 593 1002 593 911 475 c 1,17,-1
 1144 259 l 1,18,-1
 1099 203 l 1,19,-1
 862 422 l 1,20,21
 736 306 736 306 567 306 c 128,-1,22
 398 306 398 306 274 419 c 1,23,-1
 41 203 l 1,24,-1
 -12 254 l 1,25,-1
 225 472 l 1,26,27
 132 591 132 591 132 741 c 128,-1,28
 132 891 132 891 225 1010 c 1,29,-1
 -12 1229 l 1,30,-1
 41 1280 l 1,31,-1
 275 1064 l 1,8,9
EndSplineSet
EndChar

StartChar: yen
Encoding: 165 165 103
Width: 1099
GlyphClass: 2
Flags: HW
LayerCount: 2
Fore
SplineSet
625 330 m 1,0,-1
 625 0 l 1,1,-1
 473 0 l 1,2,-1
 473 330 l 1,3,-1
 82 330 l 1,4,-1
 82 452 l 1,5,-1
 472 452 l 1,6,-1
 472 646 l 1,7,-1
 85 646 l 1,8,-1
 85 767 l 1,9,-1
 436 767 l 1,10,-1
 19 1496 l 1,11,-1
 198 1496 l 1,12,-1
 550 875 l 1,13,-1
 910 1496 l 1,14,-1
 1080 1496 l 1,15,-1
 650 767 l 1,16,-1
 999 767 l 1,17,-1
 999 646 l 1,18,-1
 624 646 l 1,19,-1
 624 452 l 1,20,-1
 1002 452 l 1,21,-1
 1002 330 l 1,22,-1
 625 330 l 1,0,-1
EndSplineSet
EndChar

StartChar: brokenbar
Encoding: 166 166 104
Width: 449
GlyphClass: 2
Flags: HW
LayerCount: 2
Fore
SplineSet
301 -301 m 1,0,-1
 151 -301 l 1,1,-1
 151 339 l 1,2,-1
 301 339 l 1,3,-1
 301 -301 l 1,0,-1
301 964 m 1,4,-1
 151 964 l 1,5,-1
 151 1603 l 1,6,-1
 301 1603 l 1,7,-1
 301 964 l 1,4,-1
EndSplineSet
EndChar

StartChar: section
Encoding: 167 167 105
Width: 978
GlyphClass: 2
Flags: HW
LayerCount: 2
Fore
SplineSet
536 589 m 1,0,1
 602 631 602 631 643.5 676 c 128,-1,2
 685 721 685 721 685 767.5 c 128,-1,3
 685 814 685 814 668.5 842 c 128,-1,4
 652 870 652 870 621.5 890.5 c 128,-1,5
 591 911 591 911 563 924.5 c 128,-1,6
 535 938 535 938 495 954.5 c 128,-1,7
 455 971 455 971 436 980 c 1,8,9
 374 941 374 941 337 898.5 c 128,-1,10
 300 856 300 856 300 811.5 c 128,-1,11
 300 767 300 767 312 741 c 128,-1,12
 324 715 324 715 341.5 696 c 128,-1,13
 359 677 359 677 393 657 c 0,14,15
 445 627 445 627 536 589 c 1,0,1
841 794 m 0,16,17
 841 637 841 637 676 517 c 1,18,19
 747 472 747 472 784.5 416 c 128,-1,20
 822 360 822 360 822 272 c 0,21,22
 822 121 822 121 709 35.5 c 128,-1,23
 596 -50 596 -50 434 -50 c 128,-1,24
 272 -50 272 -50 167 4 c 1,25,-1
 167 166 l 1,26,27
 295 95 295 95 414 95 c 128,-1,28
 533 95 533 95 600 142.5 c 128,-1,29
 667 190 667 190 667 262 c 0,30,31
 667 308 667 308 648 330.5 c 128,-1,32
 629 353 629 353 615 365 c 128,-1,33
 601 377 601 377 574 391 c 0,34,35
 482 439 482 439 448 450 c 1,36,-1
 360 490 l 1,37,38
 144 595 144 595 144 785 c 0,39,40
 144 872 144 872 190 939.5 c 128,-1,41
 236 1007 236 1007 311 1050 c 1,42,43
 242 1102 242 1102 209 1161 c 128,-1,44
 176 1220 176 1220 176 1310 c 0,45,46
 176 1455 176 1455 277.5 1531.5 c 128,-1,47
 379 1608 379 1608 550 1608 c 0,48,49
 659 1608 659 1608 773 1563 c 1,50,-1
 774 1405 l 1,51,52
 733 1429 733 1429 669.5 1444.5 c 128,-1,53
 606 1460 606 1460 530 1460 c 128,-1,54
 454 1460 454 1460 392.5 1424 c 128,-1,55
 331 1388 331 1388 331 1318.5 c 128,-1,56
 331 1249 331 1249 379.5 1203 c 128,-1,57
 428 1157 428 1157 526.5 1112.5 c 128,-1,58
 625 1068 625 1068 671 1041 c 0,59,60
 716 1014 716 1014 758 977 c 0,61,62
 840 903 840 903 841 794 c 0,16,17
EndSplineSet
EndChar

StartChar: dieresis
Encoding: 168 168 106
Width: 770
GlyphClass: 2
Flags: HW
LayerCount: 2
Fore
SplineSet
272 1254 m 1,0,-1
 118 1254 l 1,1,-1
 118 1466 l 1,2,-1
 272 1466 l 1,3,-1
 272 1254 l 1,0,-1
663 1254 m 1,4,-1
 508 1254 l 1,5,-1
 508 1466 l 1,6,-1
 663 1466 l 1,7,-1
 663 1254 l 1,4,-1
EndSplineSet
EndChar

StartChar: copyright
Encoding: 169 169 107
Width: 1841
GlyphClass: 2
Flags: HW
LayerCount: 2
Fore
SplineSet
1167 1114 m 1,0,1
 1071 1182 1071 1182 910 1182 c 0,2,3
 740 1182 740 1182 652 1063 c 0,4,5
 570 952 570 952 570 781 c 128,-1,6
 570 610 570 610 661 498.5 c 128,-1,7
 752 387 752 387 929 387 c 0,8,9
 997 387 997 387 1072.5 408 c 128,-1,10
 1148 429 1148 429 1191 459 c 1,11,-1
 1230 352 l 1,12,13
 1175 317 1175 317 1087 293.5 c 128,-1,14
 999 270 999 270 909 270 c 0,15,16
 703 270 703 270 568.5 416 c 128,-1,17
 434 562 434 562 434 786 c 128,-1,18
 434 1010 434 1010 568 1155.5 c 128,-1,19
 702 1301 702 1301 919 1301 c 0,20,21
 1098 1301 1098 1301 1227 1211 c 1,22,-1
 1167 1114 l 1,0,1
615 123.5 m 128,-1,24
 744 67 744 67 905.5 67 c 128,-1,25
 1067 67 1067 67 1199 123 c 128,-1,26
 1331 179 1331 179 1415 276.5 c 128,-1,27
 1499 374 1499 374 1543.5 502 c 128,-1,28
 1588 630 1588 630 1588 778 c 128,-1,29
 1588 926 1588 926 1543 1054.5 c 128,-1,30
 1498 1183 1498 1183 1413 1281.5 c 128,-1,31
 1328 1380 1328 1380 1195 1436.5 c 128,-1,32
 1062 1493 1062 1493 901 1493 c 128,-1,33
 740 1493 740 1493 612.5 1436.5 c 128,-1,34
 485 1380 485 1380 402 1282 c 0,35,36
 230 1080 230 1080 230 783 c 0,37,38
 230 482 230 482 403 278 c 0,39,23
 486 180 486 180 615 123.5 c 128,-1,24
1657 1070 m 0,40,41
 1701 938 1701 938 1701 781 c 128,-1,42
 1701 624 1701 624 1657.5 491 c 128,-1,43
 1614 358 1614 358 1539 263.5 c 128,-1,44
 1464 169 1464 169 1362 103 c 0,45,46
 1164 -26 1164 -26 902 -26 c 0,47,48
 652 -26 652 -26 456 104 c 0,49,50
 241 246 241 246 161 490 c 0,51,52
 117 624 117 624 117 780.5 c 128,-1,53
 117 937 117 937 160.5 1070 c 128,-1,54
 204 1203 204 1203 278.5 1297 c 128,-1,55
 353 1391 353 1391 453 1457 c 0,56,57
 648 1586 648 1586 897 1586 c 0,58,59
 1158 1586 1158 1586 1360 1456 c 0,60,61
 1576 1318 1576 1318 1657 1070 c 0,40,41
EndSplineSet
EndChar

StartChar: ordfeminine
Encoding: 170 170 108
Width: 807
GlyphClass: 2
Flags: HW
LayerCount: 2
Fore
SplineSet
369 937 m 0,0,1
 453 937 453 937 496 1002.5 c 128,-1,2
 539 1068 539 1068 543 1168 c 1,3,-1
 543 1195 l 1,4,5
 514 1188 514 1188 466 1182.5 c 128,-1,6
 418 1177 418 1177 384.5 1172 c 128,-1,7
 351 1167 351 1167 317 1155 c 0,8,9
 247 1130 247 1130 247 1063 c 0,10,11
 247 937 247 937 369 937 c 0,0,1
350 826 m 0,12,13
 253 826 253 826 190.5 887.5 c 128,-1,14
 128 949 128 949 128 1044.5 c 128,-1,15
 128 1140 128 1140 188 1201.5 c 128,-1,16
 248 1263 248 1263 343 1282 c 0,17,18
 382 1289 382 1289 452 1294.5 c 128,-1,19
 522 1300 522 1300 543 1303 c 1,20,21
 543 1401 543 1401 516.5 1437 c 128,-1,22
 490 1473 490 1473 420 1473 c 128,-1,23
 350 1473 350 1473 303.5 1452.5 c 128,-1,24
 257 1432 257 1432 228 1375 c 1,25,-1
 167 1453 l 1,26,27
 231 1590 231 1590 419 1590 c 0,28,29
 525 1590 525 1590 592.5 1526 c 128,-1,30
 660 1462 660 1462 660 1330 c 2,31,-1
 658 982 l 2,32,33
 658 956 658 956 664 847 c 1,34,-1
 546 847 l 1,35,-1
 543 926 l 1,36,37
 476 826 476 826 350 826 c 0,12,13
EndSplineSet
EndChar

StartChar: guillemotleft
Encoding: 171 171 109
Width: 983
GlyphClass: 2
Flags: HW
LayerCount: 2
Fore
SplineSet
462 583 m 1,0,-1
 726 982 l 1,1,-1
 864 982 l 1,2,-1
 633 583 l 1,3,-1
 858 182 l 1,4,-1
 722 182 l 1,5,-1
 462 583 l 1,0,-1
119 583 m 1,6,-1
 363 982 l 1,7,-1
 529 982 l 1,8,-1
 270 583 l 1,9,-1
 520 182 l 1,10,-1
 357 182 l 1,11,-1
 119 583 l 1,6,-1
EndSplineSet
EndChar

StartChar: logicalnot
Encoding: 172 172 110
Width: 1280
GlyphClass: 2
Flags: HW
LayerCount: 2
Fore
SplineSet
1136 256 m 1,0,-1
 1003 256 l 1,1,-1
 1003 709 l 1,2,-1
 115 709 l 1,3,-1
 115 860 l 1,4,-1
 1136 860 l 1,5,-1
 1136 256 l 1,0,-1
EndSplineSet
EndChar

StartChar: uni00AD
Encoding: 173 173 111
Width: 1234
GlyphClass: 2
Flags: HW
LayerCount: 2
Fore
SplineSet
1111 0 m 1,0,-1
 133 0 l 1,1,-1
 133 148 l 1,2,-1
 1111 148 l 1,3,-1
 1111 0 l 1,0,-1
EndSplineSet
EndChar

StartChar: registered
Encoding: 174 174 112
Width: 1824
GlyphClass: 2
Flags: HW
LayerCount: 2
Fore
SplineSet
914 716 m 1,0,-1
 731 716 l 1,1,-1
 731 301 l 1,2,-1
 599 301 l 1,3,-1
 599 1277 l 1,4,-1
 857 1277 l 2,5,6
 1300 1277 1300 1277 1300 1007 c 0,7,8
 1300 899 1300 899 1239 825.5 c 128,-1,9
 1178 752 1178 752 1040 735 c 1,10,11
 1100 688 1100 688 1161 580 c 0,12,13
 1185 538 1185 538 1232 453 c 128,-1,14
 1279 368 1279 368 1320 301 c 1,15,-1
 1171 301 l 1,16,-1
 1046 525 l 1,17,18
 963 678 963 678 914 716 c 1,0,-1
857 843 m 2,19,20
 1005 843 1005 843 1073 875.5 c 128,-1,21
 1141 908 1141 908 1141 1000.5 c 128,-1,22
 1141 1093 1141 1093 1077.5 1121 c 128,-1,23
 1014 1149 1014 1149 847 1149 c 2,24,-1
 731 1149 l 1,25,-1
 731 843 l 1,26,-1
 857 843 l 2,19,20
615 123.5 m 128,-1,28
 744 67 744 67 905.5 67 c 128,-1,29
 1067 67 1067 67 1199 123 c 128,-1,30
 1331 179 1331 179 1415 276.5 c 128,-1,31
 1499 374 1499 374 1543.5 502 c 128,-1,32
 1588 630 1588 630 1588 778 c 128,-1,33
 1588 926 1588 926 1543 1054.5 c 128,-1,34
 1498 1183 1498 1183 1413 1281.5 c 128,-1,35
 1328 1380 1328 1380 1195 1436.5 c 128,-1,36
 1062 1493 1062 1493 901 1493 c 128,-1,37
 740 1493 740 1493 612.5 1436.5 c 128,-1,38
 485 1380 485 1380 402 1282 c 0,39,40
 230 1080 230 1080 230 783 c 0,41,42
 230 482 230 482 403 278 c 0,43,27
 486 180 486 180 615 123.5 c 128,-1,28
1657 1070 m 0,44,45
 1701 938 1701 938 1701 781 c 128,-1,46
 1701 624 1701 624 1657.5 491 c 128,-1,47
 1614 358 1614 358 1539 263.5 c 128,-1,48
 1464 169 1464 169 1362 103 c 0,49,50
 1164 -26 1164 -26 902 -26 c 0,51,52
 652 -26 652 -26 456 104 c 0,53,54
 241 246 241 246 161 490 c 0,55,56
 117 624 117 624 117 780.5 c 128,-1,57
 117 937 117 937 160.5 1070 c 128,-1,58
 204 1203 204 1203 278.5 1297 c 128,-1,59
 353 1391 353 1391 453 1457 c 0,60,61
 648 1586 648 1586 897 1586 c 0,62,63
 1158 1586 1158 1586 1360 1456 c 0,64,65
 1576 1318 1576 1318 1657 1070 c 0,44,45
EndSplineSet
EndChar

StartChar: uni00AF
Encoding: 175 175 113
Width: 1062
GlyphClass: 2
Flags: HW
LayerCount: 2
Fore
SplineSet
933 1625 m 1,0,-1
 933 1486 l 1,1,-1
 133 1486 l 1,2,-1
 133 1625 l 1,3,-1
 933 1625 l 1,0,-1
EndSplineSet
EndChar

StartChar: degree
Encoding: 176 176 114
Width: 816
GlyphClass: 2
Flags: HW
LayerCount: 2
Fore
SplineSet
409 919 m 128,-1,1
 295 919 295 919 211.5 1014 c 128,-1,2
 128 1109 128 1109 128 1238.5 c 128,-1,3
 128 1368 128 1368 211.5 1461.5 c 128,-1,4
 295 1555 295 1555 409.5 1555 c 128,-1,5
 524 1555 524 1555 607 1462 c 128,-1,6
 690 1369 690 1369 690 1239 c 128,-1,7
 690 1109 690 1109 606.5 1014 c 128,-1,0
 523 919 523 919 409 919 c 128,-1,1
530 1374.5 m 128,-1,9
 479 1430 479 1430 409.5 1430 c 128,-1,10
 340 1430 340 1430 289 1374.5 c 128,-1,11
 238 1319 238 1319 238 1238.5 c 128,-1,12
 238 1158 238 1158 288 1102 c 128,-1,13
 338 1046 338 1046 409 1046 c 128,-1,14
 480 1046 480 1046 530.5 1102 c 128,-1,15
 581 1158 581 1158 581 1238.5 c 128,-1,8
 581 1319 581 1319 530 1374.5 c 128,-1,9
EndSplineSet
EndChar

StartChar: plusminus
Encoding: 177 177 115
Width: 1234
GlyphClass: 2
Flags: HW
LayerCount: 2
Fore
SplineSet
133 789 m 1,0,-1
 550 789 l 1,1,-1
 550 1193 l 1,2,-1
 683 1193 l 1,3,-1
 683 789 l 1,4,-1
 1108 789 l 1,5,-1
 1108 642 l 1,6,-1
 687 642 l 1,7,-1
 687 240 l 1,8,-1
 553 240 l 1,9,-1
 553 642 l 1,10,-1
 133 642 l 1,11,-1
 133 789 l 1,0,-1
1111 0 m 1,12,-1
 133 0 l 1,13,-1
 133 148 l 1,14,-1
 1111 148 l 1,15,-1
 1111 0 l 1,12,-1
EndSplineSet
EndChar

StartChar: twosuperior
Encoding: 178 178 116
Width: 763
GlyphClass: 2
Flags: HW
LayerCount: 2
Fore
SplineSet
615 650 m 1,0,-1
 134 650 l 1,1,-1
 134 769 l 1,2,3
 209 854 209 854 238 886.5 c 128,-1,4
 267 919 267 919 323 985.5 c 128,-1,5
 379 1052 379 1052 401.5 1084 c 128,-1,6
 424 1116 424 1116 454 1162 c 0,7,8
 504 1241 504 1241 504 1299.5 c 128,-1,9
 504 1358 504 1358 471 1391 c 128,-1,10
 438 1424 438 1424 380 1424 c 0,11,12
 273 1424 273 1424 217 1282 c 1,13,-1
 143 1367 l 1,14,15
 173 1454 173 1454 237.5 1502.5 c 128,-1,16
 302 1551 302 1551 394.5 1551 c 128,-1,17
 487 1551 487 1551 552 1483 c 128,-1,18
 617 1415 617 1415 617 1305 c 0,19,20
 618 1157 618 1157 486 990 c 0,21,22
 420 906 420 906 297 778 c 1,23,-1
 615 778 l 1,24,-1
 615 650 l 1,0,-1
EndSplineSet
EndChar

StartChar: threesuperior
Encoding: 179 179 117
Width: 756
GlyphClass: 2
Flags: HW
LayerCount: 2
Fore
SplineSet
478 1303 m 0,0,1
 478 1424 478 1424 340 1424 c 0,2,3
 270 1424 270 1424 185 1339 c 1,4,-1
 132 1442 l 1,5,6
 174 1492 174 1492 233 1522.5 c 128,-1,7
 292 1553 292 1553 354 1553 c 0,8,9
 451 1553 451 1553 522 1485 c 128,-1,10
 593 1417 593 1417 593 1295.5 c 128,-1,11
 593 1174 593 1174 498 1112 c 1,12,13
 613 1048 613 1048 613 899 c 0,14,15
 613 778 613 778 537 704.5 c 128,-1,16
 461 631 461 631 340 631 c 128,-1,17
 219 631 219 631 132 735 c 1,18,-1
 187 838 l 1,19,20
 264 753 264 753 337.5 753 c 128,-1,21
 411 753 411 753 454.5 794.5 c 128,-1,22
 498 836 498 836 498 908 c 0,23,24
 498 1046 498 1046 308 1046 c 2,25,-1
 260 1046 l 1,26,-1
 260 1174 l 1,27,-1
 304 1174 l 2,28,29
 478 1174 478 1174 478 1303 c 0,0,1
EndSplineSet
EndChar

StartChar: acute
Encoding: 180 180 118
Width: 639
GlyphClass: 2
Flags: HW
LayerCount: 2
Fore
SplineSet
567 1638 m 1,0,-1
 242 1250 l 1,1,-1
 128 1250 l 1,2,-1
 314 1638 l 1,3,-1
 567 1638 l 1,0,-1
EndSplineSet
EndChar

StartChar: paragraph
Encoding: 182 182 119
Width: 1068
GlyphClass: 2
Flags: HW
LayerCount: 2
Fore
SplineSet
518 -158 m 1,0,-1
 393 -158 l 1,1,-1
 393 847 l 1,2,3
 271 849 271 849 184 953 c 128,-1,4
 97 1057 97 1057 97 1218 c 0,5,6
 97 1561 97 1561 561 1561 c 2,7,-1
 927 1561 l 1,8,-1
 927 1430 l 1,9,-1
 852 1430 l 1,10,-1
 852 -158 l 1,11,-1
 737 -158 l 1,12,-1
 737 1430 l 1,13,-1
 518 1430 l 1,14,-1
 518 -158 l 1,0,-1
EndSplineSet
EndChar

StartChar: periodcentered
Encoding: 183 183 120
Width: 468
GlyphClass: 2
Flags: HW
LayerCount: 2
Fore
SplineSet
139.5 756.5 m 128,-1,1
 175 796 175 796 237.5 796 c 128,-1,2
 300 796 300 796 335 757 c 128,-1,3
 370 718 370 718 370 664 c 128,-1,4
 370 610 370 610 335 571 c 128,-1,5
 300 532 300 532 237.5 532 c 128,-1,6
 175 532 175 532 139.5 571.5 c 128,-1,7
 104 611 104 611 104 664 c 128,-1,0
 104 717 104 717 139.5 756.5 c 128,-1,1
EndSplineSet
EndChar

StartChar: cedilla
Encoding: 184 184 121
Width: 596
GlyphClass: 2
Flags: HW
LayerCount: 2
Fore
SplineSet
114 -403 m 1,0,-1
 122 -312 l 1,1,2
 207 -337 207 -337 256 -337 c 0,3,4
 356 -337 356 -337 356 -258.5 c 128,-1,5
 356 -180 356 -180 259 -180 c 0,6,7
 257 -180 257 -180 227 -182 c 2,8,-1
 198 -184 l 1,9,-1
 226 16 l 1,10,-1
 312 16 l 1,11,-1
 298 -97 l 1,12,-1
 305 -97 l 2,13,14
 380 -97 380 -97 431 -138 c 128,-1,15
 482 -179 482 -179 482 -259.5 c 128,-1,16
 482 -340 482 -340 422.5 -382.5 c 128,-1,17
 363 -425 363 -425 287 -425 c 128,-1,18
 211 -425 211 -425 114 -403 c 1,0,-1
EndSplineSet
EndChar

StartChar: onesuperior
Encoding: 185 185 122
Width: 613
GlyphClass: 2
Flags: HW
LayerCount: 2
Fore
SplineSet
377 1538 m 1,0,-1
 377 775 l 1,1,-1
 483 775 l 1,2,-1
 483 650 l 1,3,-1
 163 650 l 1,4,-1
 163 778 l 1,5,-1
 271 778 l 1,6,7
 271 1015 271 1015 270 1184 c 128,-1,8
 269 1353 269 1353 269 1369 c 1,9,10
 215 1334 215 1334 136 1294 c 1,11,-1
 136 1436 l 1,12,13
 229 1474 229 1474 285 1519 c 1,14,-1
 377 1538 l 1,0,-1
EndSplineSet
EndChar

StartChar: ordmasculine
Encoding: 186 186 123
Width: 899
GlyphClass: 2
Flags: HW
LayerCount: 2
Fore
SplineSet
308 1396.5 m 128,-1,1
 256 1320 256 1320 256 1205 c 128,-1,2
 256 1090 256 1090 307 1015.5 c 128,-1,3
 358 941 358 941 450.5 941 c 128,-1,4
 543 941 543 941 594 1016.5 c 128,-1,5
 645 1092 645 1092 645 1205.5 c 128,-1,6
 645 1319 645 1319 593 1396 c 128,-1,7
 541 1473 541 1473 450.5 1473 c 128,-1,0
 360 1473 360 1473 308 1396.5 c 128,-1,1
451 1590 m 128,-1,9
 599 1590 599 1590 684 1481 c 128,-1,10
 769 1372 769 1372 769 1206.5 c 128,-1,11
 769 1041 769 1041 684.5 933.5 c 128,-1,12
 600 826 600 826 449.5 826 c 128,-1,13
 299 826 299 826 215 933.5 c 128,-1,14
 131 1041 131 1041 131 1207.5 c 128,-1,15
 131 1374 131 1374 217 1482 c 128,-1,8
 303 1590 303 1590 451 1590 c 128,-1,9
EndSplineSet
EndChar

StartChar: guillemotright
Encoding: 187 187 124
Width: 1007
GlyphClass: 2
Flags: HW
LayerCount: 2
Fore
SplineSet
528 585 m 1,0,-1
 263 182 l 1,1,-1
 124 182 l 1,2,-1
 356 585 l 1,3,-1
 129 982 l 1,4,-1
 266 982 l 1,5,-1
 528 585 l 1,0,-1
895 585 m 1,6,-1
 653 182 l 1,7,-1
 491 182 l 1,8,-1
 744 585 l 1,9,-1
 501 982 l 1,10,-1
 659 982 l 1,11,-1
 895 585 l 1,6,-1
EndSplineSet
EndChar

StartChar: onequarter
Encoding: 188 188 125
Width: 1609
GlyphClass: 2
Flags: HW
LayerCount: 2
Fore
SplineSet
1066 358 m 1,0,-1
 1312 358 l 1,1,-1
 1312 608 l 2,2,3
 1312 688 1312 688 1313 716 c 1,4,-1
 1066 358 l 1,0,-1
1420 40 m 1,5,-1
 1313 40 l 1,6,-1
 1313 240 l 1,7,-1
 923 240 l 1,8,-1
 923 339 l 1,9,-1
 1302 899 l 1,10,-1
 1422 899 l 1,11,-1
 1422 358 l 1,12,-1
 1516 358 l 1,13,-1
 1526 240 l 1,14,-1
 1420 240 l 1,15,-1
 1420 40 l 1,5,-1
1212 1547 m 1,16,-1
 1355 1547 l 1,17,-1
 425 0 l 1,18,-1
 293 0 l 1,19,-1
 1212 1547 l 1,16,-1
120 1294 m 1,20,-1
 120 1436 l 1,21,22
 211 1473 211 1473 268 1519 c 1,23,-1
 361 1538 l 1,24,-1
 361 775 l 1,25,-1
 473 775 l 1,26,-1
 473 650 l 1,27,-1
 147 650 l 1,28,-1
 147 778 l 1,29,-1
 255 778 l 1,30,31
 255 1015 255 1015 254 1184 c 128,-1,32
 253 1353 253 1353 253 1369 c 1,33,34
 199 1334 199 1334 120 1294 c 1,20,-1
EndSplineSet
EndChar

StartChar: onehalf
Encoding: 189 189 126
Width: 1591
GlyphClass: 2
Flags: HW
LayerCount: 2
Fore
SplineSet
1457 -30 m 1,0,-1
 934 -30 l 1,1,-1
 934 93 l 1,2,3
 1227 370 1227 370 1292 459 c 0,4,5
 1370 565 1370 565 1370 623.5 c 128,-1,6
 1370 682 1370 682 1332 713.5 c 128,-1,7
 1294 745 1294 745 1225 745 c 0,8,9
 1094 745 1094 745 1031 604 c 1,10,-1
 943 689 l 1,11,12
 979 776 979 776 1054.5 824 c 128,-1,13
 1130 872 1130 872 1237 872 c 128,-1,14
 1344 872 1344 872 1413.5 806 c 128,-1,15
 1483 740 1483 740 1483 629 c 0,16,17
 1484 532 1484 532 1432 450 c 0,18,19
 1410 416 1410 416 1397.5 395.5 c 128,-1,20
 1385 375 1385 375 1351 336 c 128,-1,21
 1317 297 1317 297 1303 280.5 c 128,-1,22
 1289 264 1289 264 1245 220 c 0,23,24
 1180 154 1180 154 1123 99 c 1,25,-1
 1457 99 l 1,26,-1
 1457 -30 l 1,0,-1
1165 1547 m 1,27,-1
 1319 1547 l 1,28,-1
 379 0 l 1,29,-1
 245 0 l 1,30,-1
 1165 1547 l 1,27,-1
122 1294 m 1,31,-1
 122 1436 l 1,32,33
 215 1474 215 1474 271 1519 c 1,34,-1
 363 1538 l 1,35,-1
 363 775 l 1,36,-1
 487 775 l 1,37,-1
 487 650 l 1,38,-1
 149 650 l 1,39,-1
 149 778 l 1,40,-1
 257 778 l 1,41,42
 257 1015 257 1015 256 1184 c 128,-1,43
 255 1353 255 1353 255 1369 c 1,44,45
 201 1334 201 1334 122 1294 c 1,31,-1
EndSplineSet
EndChar

StartChar: threequarters
Encoding: 190 190 127
Width: 1630
GlyphClass: 2
Flags: HW
LayerCount: 2
Fore
SplineSet
1085 361 m 1,0,-1
 1331 361 l 1,1,2
 1331 664 1331 664 1334 721 c 1,3,-1
 1085 361 l 1,0,-1
1441 44 m 1,4,-1
 1334 44 l 1,5,-1
 1334 245 l 1,6,-1
 942 245 l 1,7,-1
 942 343 l 1,8,-1
 1321 903 l 1,9,-1
 1442 903 l 1,10,-1
 1442 361 l 1,11,-1
 1538 361 l 1,12,-1
 1546 245 l 1,13,-1
 1441 245 l 1,14,-1
 1441 44 l 1,4,-1
1249 1547 m 1,15,-1
 1393 1547 l 1,16,-1
 465 0 l 1,17,-1
 331 0 l 1,18,-1
 1249 1547 l 1,15,-1
166 1339 m 1,19,-1
 116 1442 l 1,20,21
 158 1492 158 1492 217 1522.5 c 128,-1,22
 276 1553 276 1553 338 1553 c 0,23,24
 438 1553 438 1553 519 1484.5 c 128,-1,25
 600 1416 600 1416 600 1295.5 c 128,-1,26
 600 1175 600 1175 487 1112 c 1,27,28
 620 1049 620 1049 620 899 c 0,29,30
 620 780 620 780 534 705.5 c 128,-1,31
 448 631 448 631 325.5 631 c 128,-1,32
 203 631 203 631 116 735 c 1,33,-1
 168 838 l 1,34,35
 245 753 245 753 319 753 c 128,-1,36
 393 753 393 753 438.5 794.5 c 128,-1,37
 484 836 484 836 484 903 c 0,38,39
 484 1046 484 1046 293 1046 c 2,40,-1
 244 1046 l 1,41,-1
 244 1174 l 1,42,-1
 288 1174 l 2,43,44
 462 1174 462 1174 462 1303 c 0,45,46
 462 1364 462 1364 428 1394 c 128,-1,47
 394 1424 394 1424 337 1424 c 0,48,49
 251 1424 251 1424 166 1339 c 1,19,-1
EndSplineSet
EndChar

StartChar: questiondown
Encoding: 191 191 128
Width: 867
GlyphClass: 2
Flags: HW
LayerCount: 2
Fore
SplineSet
600 1464 m 1,0,-1
 600 1234 l 1,1,-1
 380 1234 l 1,2,-1
 380 1464 l 1,3,-1
 600 1464 l 1,0,-1
725 207 m 2,4,-1
 767 81 l 1,5,6
 631 -25 631 -25 463.5 -25 c 128,-1,7
 296 -25 296 -25 191 62.5 c 128,-1,8
 86 150 86 150 86 310 c 0,9,10
 86 435 86 435 154 525 c 0,11,12
 195 579 195 579 263 642 c 0,13,14
 332 706 332 706 362 740 c 0,15,16
 430 817 430 817 430 917 c 2,17,-1
 430 1028 l 1,18,-1
 564 1028 l 1,19,-1
 568 963 l 1,20,21
 573 903 573 903 573 853.5 c 128,-1,22
 573 804 573 804 548.5 757.5 c 128,-1,23
 524 711 524 711 487 675.5 c 128,-1,24
 450 640 450 640 407 599 c 128,-1,25
 364 558 364 558 327 520 c 0,26,27
 241 432 241 432 241 327 c 128,-1,28
 241 222 241 222 310.5 171.5 c 128,-1,29
 380 121 380 121 486 121 c 0,30,31
 567 121 567 121 613 143.5 c 128,-1,32
 659 166 659 166 667.5 170.5 c 128,-1,33
 676 175 676 175 700 191 c 128,-1,34
 724 207 724 207 725 207 c 2,4,-1
EndSplineSet
EndChar

StartChar: AE
Encoding: 198 198 135
Width: 2092
GlyphClass: 2
Flags: HW
LayerCount: 2
Fore
SplineSet
85 0 m 1,0,-1
 905 1568 l 1,1,-1
 1946 1568 l 1,2,-1
 1946 1409 l 1,3,-1
 1241 1409 l 1,4,-1
 1280 882 l 1,5,-1
 1911 882 l 1,6,-1
 1911 724 l 1,7,-1
 1300 724 l 1,8,-1
 1342 158 l 1,9,-1
 1966 158 l 1,10,-1
 1966 0 l 1,11,-1
 1183 0 l 1,12,-1
 1152 427 l 1,13,-1
 480 427 l 1,14,-1
 258 0 l 1,15,-1
 85 0 l 1,0,-1
1069 1409 m 1,16,-1
 1017 1409 l 1,17,-1
 564 589 l 1,18,-1
 1130 589 l 1,19,-1
 1069 1409 l 1,16,-1
EndSplineSet
EndChar

StartChar: Eth
Encoding: 208 208 145
Width: 1522
GlyphClass: 2
Flags: HW
LayerCount: 2
Fore
SplineSet
29 697 m 1,0,-1
 29 832 l 1,1,-1
 147 832 l 1,2,-1
 147 1496 l 1,3,-1
 519 1496 l 2,4,5
 1030 1496 1030 1496 1247 1254 c 0,6,7
 1412 1071 1412 1071 1412 738 c 0,8,9
 1412 370 1412 370 1193 182 c 0,10,11
 981 0 981 0 621 0 c 2,12,-1
 147 0 l 1,13,-1
 147 697 l 1,14,-1
 29 697 l 1,0,-1
324 697 m 1,15,-1
 324 155 l 1,16,-1
 639 155 l 2,17,18
 918 155 918 155 1070.5 301.5 c 128,-1,19
 1223 448 1223 448 1223 734 c 0,20,21
 1223 1132 1223 1132 957 1263 c 0,22,23
 799 1341 799 1341 540 1341 c 2,24,-1
 324 1341 l 1,25,-1
 324 832 l 1,26,-1
 566 832 l 1,27,-1
 566 697 l 1,28,-1
 324 697 l 1,15,-1
EndSplineSet
EndChar

StartChar: multiply
Encoding: 215 215 152
Width: 993
GlyphClass: 2
Flags: HW
LayerCount: 2
Fore
SplineSet
860 915 m 1,0,-1
 595 598 l 1,1,-1
 860 278 l 1,2,-1
 767 166 l 1,3,-1
 488 486 l 1,4,-1
 206 166 l 1,5,-1
 115 276 l 1,6,-1
 381 598 l 1,7,-1
 115 917 l 1,8,-1
 206 1027 l 1,9,-1
 488 707 l 1,10,-1
 767 1027 l 1,11,-1
 860 915 l 1,0,-1
EndSplineSet
EndChar

StartChar: Oslash
Encoding: 216 216 153
Width: 1717
GlyphClass: 2
Flags: HW
LayerCount: 2
Fore
SplineSet
688 173 m 1,0,1
 762 152 762 152 873 152 c 128,-1,2
 984 152 984 152 1088 200.5 c 0,3,4
 1192 250 1192 250 1258 336 c 0,5,6
 1390 511 1390 511 1390 785 c 0,7,8
 1390 961 1390 961 1330.5 1101.5 c 128,-1,9
 1271 1242 1271 1242 1155 1322 c 1,10,-1
 688 173 l 1,0,1
1178 1745 m 1,11,-1
 1309 1699 l 1,12,-1
 1227 1497 l 1,13,14
 1399 1401 1399 1401 1490 1216.5 c 128,-1,15
 1581 1032 1581 1032 1581 778 c 0,16,17
 1582 341 1582 341 1316 123 c 0,18,19
 1136 -25 1136 -25 851 -25 c 0,20,21
 724 -25 724 -25 619 5 c 1,22,-1
 544 -180 l 1,23,-1
 419 -137 l 1,24,-1
 496 53 l 1,25,26
 313 145 313 145 217 335 c 128,-1,27
 121 525 121 525 121 778 c 0,28,29
 121 1151 121 1151 314 1368.5 c 128,-1,30
 507 1586 507 1586 851 1586 c 0,31,32
 984 1586 984 1586 1100 1551 c 1,33,-1
 1178 1745 l 1,11,-1
1032 1382 m 1,34,35
 951 1409 951 1409 835 1409 c 128,-1,36
 719 1409 719 1409 615 1360.5 c 128,-1,37
 511 1312 511 1312 445 1227 c 0,38,39
 311 1054 311 1054 311 785 c 0,40,41
 311 597 311 597 376 450 c 128,-1,42
 441 303 441 303 566 227 c 1,43,-1
 1032 1382 l 1,34,35
EndSplineSet
EndChar

StartChar: Thorn
Encoding: 222 222 159
Width: 1291
GlyphClass: 2
Flags: HW
LayerCount: 2
Fore
SplineSet
324 1068 m 1,0,-1
 324 493 l 1,1,-1
 708 493 l 2,2,3
 1040 493 1040 493 1040 782 c 0,4,5
 1040 932 1040 932 954.5 1000 c 128,-1,6
 869 1068 869 1068 666 1068 c 2,7,-1
 324 1068 l 1,0,-1
147 0 m 1,8,-1
 147 1496 l 1,9,-1
 324 1496 l 1,10,-1
 324 1217 l 1,11,-1
 648 1217 l 2,12,13
 929 1217 929 1217 1069 1118.5 c 128,-1,14
 1209 1020 1209 1020 1209 800.5 c 128,-1,15
 1209 581 1209 581 1089 461.5 c 128,-1,16
 969 342 969 342 719 342 c 1,17,-1
 324 349 l 1,18,-1
 324 0 l 1,19,-1
 147 0 l 1,8,-1
EndSplineSet
EndChar

StartChar: germandbls
Encoding: 223 223 160
Width: 1222
GlyphClass: 2
Flags: HW
LayerCount: 2
Fore
SplineSet
771 148 m 2,0,1
 868 148 868 148 922.5 200.5 c 128,-1,2
 977 253 977 253 977 343 c 0,3,4
 977 443 977 443 877 522 c 0,5,6
 797 585 797 585 708 635.5 c 128,-1,7
 619 686 619 686 591 705 c 0,8,9
 509 761 509 761 509 820.5 c 128,-1,10
 509 880 509 880 574 934 c 0,11,12
 600 955 600 955 649 986.5 c 128,-1,13
 698 1018 698 1018 725.5 1038 c 128,-1,14
 753 1058 753 1058 776 1096 c 128,-1,15
 799 1134 799 1134 799 1182 c 0,16,17
 799 1269 799 1269 732 1321 c 128,-1,18
 665 1373 665 1373 568 1373 c 0,19,20
 286 1373 286 1373 286 1056 c 2,21,-1
 286 0 l 1,22,-1
 118 0 l 1,23,-1
 118 1046 l 2,24,25
 118 1275 118 1275 230 1400 c 128,-1,26
 342 1525 342 1525 550 1525 c 128,-1,27
 758 1525 758 1525 873 1433.5 c 128,-1,28
 988 1342 988 1342 988 1182 c 0,29,30
 988 1099 988 1099 961 1058.5 c 128,-1,31
 934 1018 934 1018 916.5 997.5 c 128,-1,32
 899 977 899 977 866 953 c 128,-1,33
 833 929 833 929 811 915 c 0,34,35
 781 896 781 896 683 838 c 1,36,37
 737 800 737 800 838.5 740 c 128,-1,38
 940 680 940 680 994 639.5 c 0,39,40
 1048 600 1048 600 1084 560 c 0,41,42
 1166 468 1166 468 1166 361.5 c 128,-1,43
 1166 255 1166 255 1137.5 186.5 c 0,44,45
 1108 118 1108 118 1056 78 c 0,46,47
 954 0 954 0 786 0 c 2,48,-1
 443 0 l 1,49,-1
 459 148 l 1,50,-1
 771 148 l 2,0,1
EndSplineSet
EndChar

StartChar: ae
Encoding: 230 230 167
Width: 1674
GlyphClass: 2
Flags: HW
LayerCount: 2
Fore
SplineSet
210 528 m 0,0,1
 293 572 293 572 382 586 c 0,2,3
 504 605 504 605 651 613 c 2,4,-1
 714 616 l 1,5,-1
 714 781 l 2,6,7
 714 883 714 883 671 929.5 c 128,-1,8
 628 976 628 976 527 976 c 0,9,10
 323 976 323 976 168 894 c 1,11,-1
 132 1032 l 1,12,13
 197 1069 197 1069 305.5 1096.5 c 128,-1,14
 414 1124 414 1124 529 1124 c 128,-1,15
 644 1124 644 1124 729.5 1075 c 128,-1,16
 815 1026 815 1026 837 932 c 1,17,18
 890 1027 890 1027 984.5 1075.5 c 128,-1,19
 1079 1124 1079 1124 1185 1124 c 128,-1,20
 1291 1124 1291 1124 1365 1087.5 c 128,-1,21
 1439 1051 1439 1051 1482 988 c 0,22,23
 1566 865 1566 865 1566 684 c 0,24,25
 1566 606 1566 606 1529.5 573 c 128,-1,26
 1493 540 1493 540 1379 534 c 2,27,-1
 882 509 l 1,28,29
 895 322 895 322 968.5 220.5 c 128,-1,30
 1042 119 1042 119 1194 119 c 0,31,32
 1282 119 1282 119 1368 152 c 128,-1,33
 1454 185 1454 185 1517 229 c 1,34,-1
 1569 108 l 1,35,36
 1415 -25 1415 -25 1198 -25 c 128,-1,37
 981 -25 981 -25 856 112 c 1,38,39
 761 53 761 53 638 13.5 c 128,-1,40
 515 -26 515 -26 388 -26 c 128,-1,41
 261 -26 261 -26 170.5 52.5 c 128,-1,42
 80 131 80 131 80 295 c 128,-1,43
 80 459 80 459 210 528 c 0,0,1
416 113 m 0,44,45
 510 112 510 112 718 184 c 0,46,47
 774 204 774 204 787 208 c 1,48,49
 720 330 720 330 711 499 c 1,50,51
 356 482 356 482 280 392 c 0,52,53
 248 354 248 354 248 291 c 0,54,55
 248 113 248 113 416 113 c 0,44,45
1189 984 m 0,56,57
 1046 984 1046 984 971.5 882.5 c 128,-1,58
 897 781 897 781 888 615 c 1,59,-1
 1404 644 l 1,60,-1
 1404 654 l 1,61,62
 1402 825 1402 825 1350.5 904.5 c 128,-1,63
 1299 984 1299 984 1189 984 c 0,56,57
EndSplineSet
EndChar

StartChar: eth
Encoding: 240 240 177
Width: 1204
GlyphClass: 2
Flags: HW
LayerCount: 2
Fore
SplineSet
569 972 m 0,0,1
 715 972 715 972 844 877 c 1,2,3
 761 1035 761 1035 541 1257 c 1,4,-1
 269 1145 l 1,5,-1
 226 1277 l 1,6,-1
 446 1364 l 1,7,-1
 210 1588 l 1,8,-1
 433 1588 l 1,9,-1
 601 1431 l 1,10,-1
 868 1542 l 1,11,-1
 914 1413 l 1,12,-1
 694 1322 l 1,13,14
 928 1048 928 1048 1022.5 870 c 128,-1,15
 1117 692 1117 692 1117 492 c 0,16,17
 1117 267 1117 267 988 124 c 0,18,19
 854 -25 854 -25 603 -25 c 0,20,21
 482 -25 482 -25 383 16 c 0,22,23
 284 58 284 58 220 128 c 0,24,25
 87 275 87 275 87 490 c 128,-1,26
 87 705 87 705 219.5 838.5 c 128,-1,27
 352 972 352 972 569 972 c 0,0,1
603 833 m 0,28,29
 449 833 449 833 359 733 c 128,-1,30
 269 633 269 633 269 485 c 0,31,32
 269 272 269 272 421 168 c 0,33,34
 500 114 500 114 609 114 c 0,35,36
 766 114 766 114 855.5 215 c 128,-1,37
 945 316 945 316 945 472 c 0,38,39
 945 614 945 614 858 720 c 0,40,41
 816 771 816 771 749.5 802 c 128,-1,42
 683 833 683 833 603 833 c 0,28,29
EndSplineSet
EndChar

StartChar: divide
Encoding: 247 247 184
Width: 1211
GlyphClass: 2
Flags: HW
LayerCount: 2
Fore
SplineSet
682 249 m 1,0,-1
 682 22 l 1,1,-1
 491 22 l 1,2,-1
 491 249 l 1,3,-1
 682 249 l 1,0,-1
716 1166 m 1,4,-1
 716 939 l 1,5,-1
 491 939 l 1,6,-1
 491 1166 l 1,7,-1
 716 1166 l 1,4,-1
1098 523 m 1,8,-1
 97 523 l 1,9,-1
 97 672 l 1,10,-1
 1098 672 l 1,11,-1
 1098 523 l 1,8,-1
EndSplineSet
EndChar

StartChar: oslash
Encoding: 248 248 185
Width: 1179
GlyphClass: 2
Flags: HW
LayerCount: 2
Fore
SplineSet
392 182 m 1,0,-1
 723 963 l 1,1,2
 666 986 666 986 587.5 986 c 128,-1,3
 509 986 509 986 441.5 949 c 128,-1,4
 374 912 374 912 333 849 c 0,5,6
 250 721 250 721 250 544 c 0,7,8
 250 432 250 432 286 336 c 128,-1,9
 322 240 322 240 392 182 c 1,0,-1
462 139 m 1,10,11
 522 113 522 113 602.5 113 c 128,-1,12
 683 113 683 113 748.5 149 c 0,13,14
 814 184 814 184 852 246 c 0,15,16
 928 369 928 369 928 547 c 0,17,18
 928 811 928 811 794 921 c 1,19,-1
 462 139 l 1,10,11
894 1367 m 1,20,-1
 971 1336 l 1,21,-1
 854 1060 l 1,22,23
 975 990 975 990 1038.5 854.5 c 128,-1,24
 1102 719 1102 719 1102 576.5 c 128,-1,25
 1102 434 1102 434 1068.5 331 c 128,-1,26
 1035 228 1035 228 972 148 c 128,-1,27
 909 68 909 68 811.5 21.5 c 128,-1,28
 714 -25 714 -25 602.5 -25 c 128,-1,29
 491 -25 491 -25 406 7 c 1,30,-1
 286 -275 l 1,31,-1
 215 -237 l 1,32,-1
 333 41 l 1,33,34
 210 112 210 112 143.5 246 c 128,-1,35
 77 380 77 380 77 543 c 128,-1,36
 77 706 77 706 136.5 835.5 c 128,-1,37
 196 965 196 965 316 1044.5 c 128,-1,38
 436 1124 436 1124 597 1124 c 0,39,40
 694 1124 694 1124 779 1094 c 1,41,-1
 894 1367 l 1,20,-1
EndSplineSet
EndChar

StartChar: thorn
Encoding: 254 254 191
Width: 1205
GlyphClass: 2
Flags: HW
LayerCount: 2
Fore
SplineSet
471.5 148.5 m 128,-1,1
 537 113 537 113 614 113 c 128,-1,2
 691 113 691 113 745 140.5 c 128,-1,3
 799 168 799 168 832 212 c 128,-1,4
 865 256 865 256 887 315 c 0,5,6
 926 420 926 420 926 524.5 c 128,-1,7
 926 629 926 629 911.5 701 c 128,-1,8
 897 773 897 773 865 839.5 c 128,-1,9
 833 906 833 906 773 946 c 128,-1,10
 713 986 713 986 617.5 986 c 128,-1,11
 522 986 522 986 443 924 c 0,12,13
 290 805 290 805 290 551 c 0,14,15
 290 368 290 368 367 246 c 0,16,0
 406 184 406 184 471.5 148.5 c 128,-1,1
292 162 m 1,17,-1
 292 -459 l 1,18,-1
 124 -459 l 1,19,-1
 124 1510 l 1,20,-1
 292 1510 l 1,21,-1
 292 933 l 1,22,23
 421 1124 421 1124 643 1124 c 1,24,25
 778 1123 778 1123 882.5 1048.5 c 128,-1,26
 987 974 987 974 1043 846.5 c 128,-1,27
 1099 719 1099 719 1099 560 c 0,28,29
 1099 268 1099 268 937 97 c 0,30,31
 822 -25 822 -25 643 -25 c 0,32,33
 402 -25 402 -25 292 162 c 1,17,-1
EndSplineSet
EndChar

StartChar: gcedilla
Encoding: 291 291 226
Width: 1268
GlyphClass: 2
Flags: HW
LayerCount: 2
Fore
SplineSet
556 1124 m 0,0,1
 760 1124 760 1124 889 951 c 1,2,-1
 889 1098 l 1,3,-1
 1052 1098 l 1,4,-1
 1052 79 l 2,5,6
 1052 -156 1052 -156 995 -270 c 0,7,8
 938 -386 938 -386 832 -438 c 0,9,10
 702 -502 702 -502 497 -502 c 2,11,-1
 319 -502 l 1,12,-1
 297 -351 l 1,13,-1
 501 -351 l 2,14,15
 675 -352 675 -352 754 -300 c 0,16,17
 838 -246 838 -246 862 -152 c 0,18,19
 884 -63 884 -63 884 83 c 2,20,-1
 884 180 l 1,21,22
 824 94 824 94 745 47.5 c 128,-1,23
 666 1 666 1 558 1 c 128,-1,24
 450 1 450 1 370.5 33.5 c 128,-1,25
 291 66 291 66 236.5 120 c 128,-1,26
 182 174 182 174 144 245 c 0,27,28
 70 381 70 381 70 523 c 128,-1,29
 70 665 70 665 99.5 767.5 c 128,-1,30
 129 870 129 870 187 951 c 128,-1,31
 245 1032 245 1032 339.5 1078 c 128,-1,32
 434 1124 434 1124 556 1124 c 0,0,1
578 143 m 0,33,34
 654 143 654 143 718 173 c 128,-1,35
 782 203 782 203 818 256 c 0,36,37
 889 361 889 361 889 516 c 2,38,-1
 889 597 l 2,39,40
 890 761 890 761 816 867 c 0,41,42
 736 982 736 982 570 982 c 0,43,44
 378 982 378 982 290 786 c 0,45,46
 242 681 242 681 242 554 c 0,47,48
 242 358 242 358 355 234 c 0,49,50
 437 144 437 144 578 143 c 0,33,34
793 1749 m 1,51,-1
 683 1250 l 1,52,-1
 488 1250 l 1,53,-1
 653 1749 l 1,54,-1
 793 1749 l 1,51,-1
EndSplineSet
EndChar

StartChar: Hbar
Encoding: 294 294 229
Width: 1463
GlyphClass: 2
Flags: HW
LayerCount: 2
Fore
SplineSet
1141 696 m 1,0,-1
 324 696 l 1,1,-1
 324 0 l 1,2,-1
 147 0 l 1,3,-1
 147 1146 l 1,4,-1
 57 1146 l 1,5,-1
 57 1251 l 1,6,-1
 147 1251 l 1,7,-1
 147 1496 l 1,8,-1
 324 1496 l 1,9,-1
 324 1251 l 1,10,-1
 1141 1251 l 1,11,-1
 1141 1496 l 1,12,-1
 1318 1496 l 1,13,-1
 1318 1251 l 1,14,-1
 1408 1251 l 1,15,-1
 1408 1146 l 1,16,-1
 1318 1146 l 1,17,-1
 1318 0 l 1,18,-1
 1141 0 l 1,19,-1
 1141 696 l 1,0,-1
324 1146 m 1,20,-1
 324 848 l 1,21,-1
 1141 848 l 1,22,-1
 1141 1146 l 1,23,-1
 324 1146 l 1,20,-1
EndSplineSet
EndChar

StartChar: hbar
Encoding: 295 295 230
Width: 1115
GlyphClass: 2
Flags: HW
LayerCount: 2
Fore
SplineSet
282 0 m 1,0,-1
 114 0 l 1,1,-1
 114 1270 l 1,2,-1
 21 1270 l 1,3,-1
 21 1386 l 1,4,-1
 114 1386 l 1,5,-1
 114 1490 l 1,6,-1
 282 1510 l 1,7,-1
 282 1386 l 1,8,-1
 558 1386 l 1,9,-1
 558 1270 l 1,10,-1
 282 1270 l 1,11,-1
 282 949 l 1,12,13
 427 1124 427 1124 674 1124 c 0,14,15
 842 1124 842 1124 924.5 1004.5 c 128,-1,16
 1007 885 1007 885 1007 664 c 2,17,-1
 1007 0 l 1,18,-1
 839 0 l 1,19,-1
 839 617 l 2,20,21
 840 858 840 858 778 924 c 0,22,23
 727 979 727 979 612.5 979.5 c 128,-1,24
 498 980 498 980 401 906.5 c 128,-1,25
 304 833 304 833 282 748 c 1,26,-1
 282 0 l 1,0,-1
EndSplineSet
EndChar

StartChar: dotlessi
Encoding: 305 305 240
Width: 430
GlyphClass: 2
Flags: HW
LayerCount: 2
Fore
SplineSet
304 1098 m 1,0,-1
 304 0 l 1,1,-1
 135 0 l 1,2,-1
 135 1098 l 1,3,-1
 304 1098 l 1,0,-1
EndSplineSet
EndChar

StartChar: IJ
Encoding: 306 306 241
Width: 1464
GlyphClass: 2
Flags: HW
LayerCount: 2
Fore
SplineSet
1133 409 m 2,0,-1
 1133 1557 l 1,1,-1
 1309 1557 l 1,2,-1
 1309 461 l 2,3,4
 1309 264 1309 264 1293 210 c 128,-1,5
 1277 156 1277 156 1261.5 122.5 c 128,-1,6
 1246 89 1246 89 1223.5 67.5 c 128,-1,7
 1201 46 1201 46 1170 26 c 128,-1,8
 1139 6 1139 6 1098 -4 c 0,9,10
 1006 -28 1006 -28 887 -28 c 2,11,-1
 854 -28 l 1,12,-1
 854 139 l 1,13,-1
 907 139 l 1,14,15
 1040 142 1040 142 1086 198 c 0,16,17
 1119 238 1119 238 1124 278 c 0,18,19
 1133 340 1133 340 1133 409 c 2,0,-1
334 1557 m 1,20,-1
 334 0 l 1,21,-1
 155 0 l 1,22,-1
 155 1557 l 1,23,-1
 334 1557 l 1,20,-1
EndSplineSet
EndChar

StartChar: ij
Encoding: 307 307 242
Width: 976
GlyphClass: 2
Flags: HW
LayerCount: 2
Fore
SplineSet
817 1098 m 1,0,-1
 817 180 l 2,1,2
 817 -34 817 -34 791 -106 c 0,3,4
 762 -187 762 -187 725.5 -213.5 c 128,-1,5
 689 -240 689 -240 650 -258 c 0,6,7
 580 -291 580 -291 445 -308 c 1,8,-1
 437 -310 l 1,9,-1
 437 -141 l 1,10,-1
 445 -141 l 1,11,12
 524 -132 524 -132 552.5 -115.5 c 128,-1,13
 581 -99 581 -99 596 -88 c 128,-1,14
 611 -77 611 -77 620.5 -56.5 c 128,-1,15
 630 -36 630 -36 635.5 -21 c 0,16,17
 642 -6 642 -6 644 22 c 0,18,19
 648 62 648 62 647 126 c 2,20,-1
 647 1098 l 1,21,-1
 817 1098 l 1,0,-1
325 1098 m 1,22,-1
 325 0 l 1,23,-1
 155 0 l 1,24,-1
 155 1098 l 1,25,-1
 325 1098 l 1,22,-1
325 1557 m 1,26,-1
 325 1359 l 1,27,-1
 155 1359 l 1,28,-1
 155 1557 l 1,29,-1
 325 1557 l 1,26,-1
817 1557 m 1,30,-1
 817 1359 l 1,31,-1
 647 1359 l 1,32,-1
 647 1557 l 1,33,-1
 817 1557 l 1,30,-1
EndSplineSet
EndChar

StartChar: kgreenlandic
Encoding: 312 312 247
Width: 1104
GlyphClass: 2
Flags: HW
LayerCount: 2
Fore
SplineSet
823 0 m 1,0,-1
 293 506 l 1,1,-1
 293 0 l 1,2,-1
 147 0 l 1,3,-1
 147 1105 l 1,4,-1
 293 1105 l 1,5,-1
 293 600 l 1,6,-1
 776 1105 l 1,7,-1
 981 1105 l 1,8,-1
 458 551 l 1,9,10
 807 227 807 227 1014 0 c 1,11,-1
 823 0 l 1,0,-1
EndSplineSet
EndChar

StartChar: Lslash
Encoding: 321 321 256
Width: 960
GlyphClass: 2
Flags: HW
LayerCount: 2
Fore
SplineSet
148 1496 m 1,0,-1
 325 1496 l 1,1,-1
 325 853 l 1,2,-1
 675 1045 l 1,3,-1
 675 889 l 1,4,-1
 325 701 l 1,5,-1
 325 155 l 1,6,-1
 982 155 l 1,7,-1
 970 0 l 1,8,-1
 148 0 l 1,9,-1
 148 606 l 1,10,-1
 0 527 l 1,11,-1
 0 675 l 1,12,-1
 148 756 l 1,13,-1
 148 1496 l 1,0,-1
EndSplineSet
EndChar

StartChar: lslash
Encoding: 322 322 257
Width: 589
GlyphClass: 2
Flags: HW
LayerCount: 2
Fore
SplineSet
611 -8 m 1,0,1
 481 -21 481 -21 431.5 -21 c 128,-1,2
 382 -21 382 -21 343.5 -15.5 c 128,-1,3
 305 -10 305 -10 275 5 c 128,-1,4
 245 20 245 20 224 38 c 128,-1,5
 203 56 203 56 188 88.5 c 128,-1,6
 173 121 173 121 164.5 154 c 0,7,8
 156 188 156 188 151 240 c 0,9,10
 143 324 143 324 143 468 c 2,11,-1
 143 573 l 1,12,-1
 31 486 l 1,13,-1
 31 631 l 1,14,-1
 143 718 l 1,15,-1
 143 1490 l 1,16,-1
 311 1510 l 1,17,-1
 311 848 l 1,18,-1
 487 985 l 1,19,-1
 487 839 l 1,20,-1
 311 703 l 1,21,-1
 311 431 l 2,22,23
 311 268 311 268 317.5 238 c 128,-1,24
 324 208 324 208 331 185.5 c 128,-1,25
 338 163 338 163 348.5 153.5 c 0,26,27
 358 144 358 144 374 134 c 0,28,29
 399 118 399 118 436 118 c 128,-1,30
 473 118 473 118 596 128 c 1,31,-1
 611 -8 l 1,0,1
EndSplineSet
EndChar

StartChar: Eng
Encoding: 330 330 264
Width: 1420
GlyphClass: 2
Flags: HW
LayerCount: 2
Fore
SplineSet
1022.5 -305.5 m 0,0,1
 946 -328 946 -328 863.5 -328 c 128,-1,2
 781 -328 781 -328 639 -314 c 1,3,-1
 616 -166 l 1,4,5
 769 -175 769 -175 817 -175 c 128,-1,6
 865 -175 865 -175 912.5 -169 c 128,-1,7
 960 -163 960 -163 994.5 -145 c 128,-1,8
 1029 -127 1029 -127 1048 -105 c 0,9,10
 1068 -83 1068 -83 1078 -39 c 0,11,12
 1094 30 1094 30 1094 171 c 2,13,-1
 1094 1003 l 2,14,15
 1094 1202 1094 1202 1030 1280 c 128,-1,16
 966 1358 966 1358 808 1358 c 128,-1,17
 650 1358 650 1358 525 1282 c 128,-1,18
 400 1206 400 1206 322 1089 c 1,19,-1
 322 0 l 1,20,-1
 146 0 l 1,21,-1
 144 1496 l 1,22,-1
 304 1496 l 1,23,-1
 322 1284 l 1,24,25
 408 1377 408 1377 503.5 1431.5 c 128,-1,26
 599 1486 599 1486 679.5 1503 c 128,-1,27
 760 1520 760 1520 857 1520 c 0,28,29
 1060 1520 1060 1520 1164.5 1389.5 c 128,-1,30
 1269 1259 1269 1259 1269 1009 c 2,31,-1
 1269 165 l 2,32,33
 1268 -143 1268 -143 1146 -244 c 0,34,35
 1098 -283 1098 -283 1022.5 -305.5 c 0,0,1
EndSplineSet
EndChar

StartChar: eng
Encoding: 331 331 265
Width: 1118
GlyphClass: 2
Flags: HW
LayerCount: 2
Fore
SplineSet
620 -283 m 1,0,-1
 608 -141 l 1,1,-1
 651 -141 l 2,2,3
 741 -141 741 -141 770.5 -127.5 c 128,-1,4
 800 -114 800 -114 811.5 -99 c 128,-1,5
 823 -84 823 -84 831 -54 c 0,6,7
 843 -9 843 -9 843 104 c 2,8,-1
 843 551 l 2,9,10
 843 775 843 775 828.5 822.5 c 128,-1,11
 814 870 814 870 798.5 900 c 128,-1,12
 783 930 783 930 760 946 c 0,13,14
 709 980 709 980 629 980 c 0,15,16
 501 980 501 980 405 907 c 128,-1,17
 309 834 309 834 286 750 c 1,18,-1
 286 0 l 1,19,-1
 118 0 l 1,20,-1
 118 831 l 1,21,-1
 115 1098 l 1,22,-1
 259 1098 l 1,23,-1
 275 935 l 1,24,25
 338 1022 338 1022 444 1073 c 128,-1,26
 550 1124 550 1124 665 1124 c 0,27,28
 843 1124 843 1124 927 1007.5 c 128,-1,29
 1011 891 1011 891 1011 657 c 2,30,-1
 1011 158 l 2,31,32
 1011 -49 1011 -49 994.5 -97.5 c 128,-1,33
 978 -146 978 -146 962 -176.5 c 128,-1,34
 946 -207 946 -207 922.5 -224.5 c 128,-1,35
 899 -242 899 -242 866 -256 c 0,36,37
 806 -283 806 -283 691 -283 c 2,38,-1
 620 -283 l 1,0,-1
EndSplineSet
EndChar

StartChar: OE
Encoding: 338 338 272
Width: 1980
GlyphClass: 2
Flags: HW
LayerCount: 2
Fore
SplineSet
1148 1259 m 1,0,1
 1009 1373 1009 1373 815 1373 c 0,2,3
 577 1373 577 1373 437 1206.5 c 128,-1,4
 297 1040 297 1040 291 773 c 1,5,6
 291 284 291 284 619 164 c 0,7,8
 806 94 806 94 1004 160 c 0,9,10
 1098 192 1098 192 1148 222 c 1,11,-1
 1148 1259 l 1,0,1
444 1427 m 128,-1,13
 602 1524 602 1524 812 1524 c 128,-1,14
 1022 1524 1022 1524 1148 1413 c 1,15,-1
 1148 1495 l 1,16,-1
 1874 1495 l 1,17,-1
 1857 1341 l 1,18,-1
 1325 1341 l 1,19,-1
 1325 845 l 1,20,-1
 1821 845 l 1,21,-1
 1821 692 l 1,22,-1
 1325 692 l 1,23,-1
 1325 156 l 1,24,-1
 1898 156 l 1,25,-1
 1883 0 l 1,26,-1
 1148 0 l 1,27,-1
 1148 82 l 1,28,29
 1114 46 1114 46 1011 11.5 c 128,-1,30
 908 -23 908 -23 823 -23 c 0,31,32
 590 -23 590 -23 426 78 c 0,33,34
 101 278 101 278 101 771 c 1,35,36
 106 987 106 987 196 1158.5 c 128,-1,12
 286 1330 286 1330 444 1427 c 128,-1,13
EndSplineSet
EndChar

StartChar: oe
Encoding: 339 339 273
Width: 1916
GlyphClass: 2
Flags: HW
LayerCount: 2
Fore
SplineSet
1834 594 m 1,0,-1
 1832 519 l 1,1,-1
 1093 519 l 1,2,3
 1093 337 1093 337 1188 228 c 128,-1,4
 1283 119 1283 119 1430 119 c 0,5,6
 1535 119 1535 119 1613.5 149 c 128,-1,7
 1692 179 1692 179 1766 229 c 1,8,-1
 1818 107 l 1,9,10
 1664 -25 1664 -25 1425 -25 c 0,11,12
 1281 -25 1281 -25 1172 36 c 128,-1,13
 1063 97 1063 97 1000 211 c 1,14,15
 937 101 937 101 832.5 38 c 128,-1,16
 728 -25 728 -25 577 -25 c 128,-1,17
 426 -25 426 -25 310 53 c 0,18,19
 82 206 82 206 82 547 c 0,20,21
 82 789 82 789 211 953 c 0,22,23
 273 1032 273 1032 371 1078 c 128,-1,24
 469 1124 469 1124 590 1124 c 0,25,26
 878 1124 878 1124 1005 889 c 1,27,28
 1066 995 1066 995 1175 1057.5 c 128,-1,29
 1284 1120 1284 1120 1414 1124 c 1,30,31
 1616 1124 1616 1124 1725 982.5 c 128,-1,32
 1834 841 1834 841 1834 594 c 1,0,-1
1099 634 m 1,33,-1
 1672 634 l 1,34,35
 1672 806 1672 806 1600.5 897 c 128,-1,36
 1529 988 1529 988 1404 988 c 128,-1,37
 1279 988 1279 988 1196 892 c 128,-1,38
 1113 796 1113 796 1099 634 c 1,33,-1
437 148.5 m 128,-1,40
 503 113 503 113 589.5 113 c 128,-1,41
 676 113 676 113 741.5 149 c 0,42,43
 807 184 807 184 845 246 c 0,44,45
 921 369 921 369 921 547 c 0,46,47
 921 732 921 732 847 854 c 0,48,49
 766 986 766 986 587 986 c 0,50,51
 391 986 391 986 304 796 c 0,52,53
 255 689 255 689 255 573.5 c 128,-1,54
 255 458 255 458 274 383 c 128,-1,55
 293 308 293 308 332 246 c 128,-1,39
 371 184 371 184 437 148.5 c 128,-1,40
EndSplineSet
EndChar

StartChar: Tbar
Encoding: 358 358 290
Width: 1050
GlyphClass: 2
Flags: HW
LayerCount: 2
Fore
SplineSet
-3 1341 m 1,0,-1
 -3 1496 l 1,1,-1
 1069 1496 l 1,2,-1
 1069 1341 l 1,3,-1
 621 1341 l 1,4,-1
 621 654 l 1,5,-1
 764 654 l 1,6,-1
 764 531 l 1,7,-1
 621 531 l 1,8,-1
 621 0 l 1,9,-1
 444 0 l 1,10,-1
 444 531 l 1,11,-1
 256 531 l 1,12,-1
 256 654 l 1,13,-1
 444 654 l 1,14,-1
 444 1341 l 1,15,-1
 -3 1341 l 1,0,-1
EndSplineSet
EndChar

StartChar: tbar
Encoding: 359 359 291
Width: 677
GlyphClass: 2
Flags: HW
LayerCount: 2
Fore
SplineSet
520 118 m 1,0,-1
 656 129 l 1,1,-1
 671 -7 l 1,2,3
 523 -20 523 -20 479.5 -20 c 128,-1,4
 436 -20 436 -20 400.5 -14.5 c 128,-1,5
 365 -9 365 -9 337 0 c 128,-1,6
 309 9 309 9 288 26.5 c 128,-1,7
 267 44 267 44 251.5 63.5 c 128,-1,8
 236 83 236 83 225.5 114 c 128,-1,9
 215 145 215 145 208.5 175.5 c 128,-1,10
 202 206 202 206 198 252 c 0,11,12
 192 324 192 324 193 445 c 2,13,-1
 193 638 l 1,14,-1
 38 638 l 1,15,-1
 38 764 l 1,16,-1
 193 764 l 1,17,-1
 193 980 l 1,18,-1
 26 980 l 1,19,-1
 39 1098 l 1,20,-1
 193 1098 l 1,21,-1
 237 1346 l 1,22,-1
 361 1355 l 1,23,-1
 361 1098 l 1,24,-1
 652 1098 l 1,25,-1
 652 980 l 1,26,-1
 361 980 l 1,27,-1
 361 764 l 1,28,-1
 570 764 l 1,29,-1
 570 638 l 1,30,-1
 361 638 l 1,31,-1
 361 367 l 2,32,33
 361 212 361 212 390.5 165 c 128,-1,34
 420 118 420 118 520 118 c 1,0,-1
EndSplineSet
EndChar

StartChar: uni018F
Encoding: 399 399 315
Width: 1432
GlyphClass: 2
Flags: HW
LayerCount: 2
Fore
SplineSet
661 -23 m 0,0,1
 531 -23 531 -23 425 17.5 c 128,-1,2
 319 58 319 58 250.5 123 c 128,-1,3
 182 188 182 188 134 276 c 0,4,5
 45 439 45 439 37 641 c 1,6,-1
 44 777 l 1,7,-1
 1133 777 l 1,8,9
 1130 1022 1130 1022 1006 1190 c 0,10,11
 944 1275 944 1275 837.5 1324 c 128,-1,12
 731 1373 731 1373 592 1373 c 0,13,14
 406 1373 406 1373 218 1250 c 1,15,-1
 151 1384 l 1,16,17
 251 1458 251 1458 354 1491.5 c 128,-1,18
 457 1525 457 1525 617.5 1525 c 128,-1,19
 778 1525 778 1525 915.5 1464.5 c 128,-1,20
 1053 1404 1053 1404 1141 1299 c 0,21,22
 1322 1083 1322 1083 1322 757 c 0,23,24
 1322 535 1322 535 1239.5 357.5 c 128,-1,25
 1157 180 1157 180 1005.5 78.5 c 128,-1,26
 854 -23 854 -23 661 -23 c 0,0,1
1125 631 m 1,27,-1
 217 631 l 1,28,29
 235 370 235 370 357 243 c 0,30,31
 404 194 404 194 483 161.5 c 128,-1,32
 562 129 562 129 665 129 c 0,33,34
 856 129 856 129 977.5 270.5 c 128,-1,35
 1099 412 1099 412 1125 631 c 1,27,-1
EndSplineSet
EndChar

StartChar: florin
Encoding: 402 402 316
Width: 978
GlyphClass: 2
Flags: HW
LayerCount: 2
Fore
SplineSet
412 865 m 1,0,-1
 254 865 l 1,1,-1
 265 1015 l 1,2,-1
 438 1015 l 1,3,-1
 460 1178 l 1,4,5
 512 1547 512 1547 783 1547 c 0,6,7
 832 1547 832 1547 911 1525 c 1,8,-1
 903 1369 l 1,9,10
 849 1393 849 1393 791 1393 c 128,-1,11
 733 1393 733 1393 700 1353 c 128,-1,12
 667 1313 667 1313 654 1227 c 1,13,-1
 615 1015 l 1,14,-1
 801 1015 l 1,15,-1
 790 865 l 1,16,-1
 593 865 l 1,17,-1
 460 130 l 1,18,19
 412 -121 412 -121 357 -211 c 0,20,21
 296 -310 296 -310 220 -340 c 0,22,23
 174 -358 174 -358 132 -358 c 128,-1,24
 90 -358 90 -358 28 -339 c 1,25,-1
 39 -192 l 1,26,27
 83 -210 83 -210 115.5 -210 c 128,-1,28
 148 -210 148 -210 178 -178 c 0,29,30
 228 -126 228 -126 255 6 c 1,31,32
 293 168 293 168 347 487.5 c 128,-1,33
 401 807 401 807 412 865 c 1,0,-1
EndSplineSet
EndChar

StartChar: dotlessj
Encoding: 567 567 359
Width: 444
GlyphClass: 2
Flags: HW
LayerCount: 2
Fore
SplineSet
330 1098 m 1,0,-1
 330 -139 l 2,1,2
 330 -245 330 -245 316.5 -310 c 128,-1,3
 303 -375 303 -375 265.5 -420.5 c 128,-1,4
 228 -466 228 -466 164 -484 c 128,-1,5
 100 -502 100 -502 -3 -502 c 2,6,-1
 -55 -502 l 1,7,-1
 -77 -351 l 1,8,-1
 -25 -351 l 2,9,10
 93 -351 93 -351 125 -312 c 0,11,12
 152 -279 152 -279 156 -244 c 0,13,14
 162 -192 162 -192 162 -121 c 2,15,-1
 162 1098 l 1,16,-1
 330 1098 l 1,0,-1
EndSplineSet
EndChar

StartChar: uni0259
Encoding: 601 601 360
Width: 1091
GlyphClass: 2
Flags: HW
LayerCount: 2
Fore
SplineSet
323 202.5 m 128,-1,1
 400 111 400 111 525.5 111 c 128,-1,2
 651 111 651 111 734 206.5 c 128,-1,3
 817 302 817 302 831 464 c 1,4,-1
 246 464 l 1,5,0
 246 294 246 294 323 202.5 c 128,-1,1
84 505 m 1,6,-1
 86 580 l 1,7,-1
 837 580 l 1,8,9
 837 762 837 762 742 871 c 128,-1,10
 647 980 647 980 500 980 c 0,11,12
 314 980 314 980 152 870 c 1,13,-1
 100 992 l 1,14,15
 254 1124 254 1124 496.5 1124 c 128,-1,16
 739 1124 739 1124 874 969 c 128,-1,17
 1009 814 1009 814 1009 557.5 c 128,-1,18
 1009 301 1009 301 877 141 c 128,-1,19
 745 -19 745 -19 532 -25 c 1,20,-1
 516 -25 l 2,21,22
 313 -25 313 -25 198.5 117.5 c 128,-1,23
 84 260 84 260 84 505 c 1,6,-1
EndSplineSet
EndChar

StartChar: afii57929
Encoding: 700 700 361
Width: 504
GlyphClass: 2
Flags: HW
LayerCount: 2
Fore
SplineSet
133 1102 m 1,0,-1
 226 1574 l 1,1,-1
 383 1574 l 1,2,-1
 249 1102 l 1,3,-1
 133 1102 l 1,0,-1
EndSplineSet
EndChar

StartChar: circumflex
Encoding: 710 710 362
Width: 800
GlyphClass: 2
Flags: HW
LayerCount: 2
Fore
SplineSet
108 1251 m 1,0,-1
 295 1639 l 1,1,-1
 508 1639 l 1,2,-1
 695 1251 l 1,3,-1
 561 1251 l 1,4,-1
 400 1523 l 1,5,-1
 239 1251 l 1,6,-1
 108 1251 l 1,0,-1
EndSplineSet
EndChar

StartChar: caron
Encoding: 711 711 363
Width: 800
GlyphClass: 2
Flags: HW
LayerCount: 2
Fore
SplineSet
108 1639 m 1,0,-1
 239 1639 l 1,1,-1
 400 1327 l 1,2,-1
 561 1639 l 1,3,-1
 695 1639 l 1,4,-1
 508 1251 l 1,5,-1
 295 1251 l 1,6,-1
 108 1639 l 1,0,-1
EndSplineSet
EndChar

StartChar: breve
Encoding: 728 728 364
Width: 754
GlyphClass: 2
Flags: HW
LayerCount: 2
Fore
SplineSet
554 1367.5 m 128,-1,1
 478 1299 478 1299 377.5 1299 c 128,-1,2
 277 1299 277 1299 202.5 1367 c 128,-1,3
 128 1435 128 1435 128 1557 c 1,4,-1
 244 1557 l 1,5,6
 244 1488 244 1488 281.5 1452 c 128,-1,7
 319 1416 319 1416 377 1416 c 128,-1,8
 435 1416 435 1416 474 1452 c 128,-1,9
 513 1488 513 1488 513 1557 c 1,10,-1
 630 1557 l 1,11,0
 630 1436 630 1436 554 1367.5 c 128,-1,1
EndSplineSet
EndChar

StartChar: dotaccent
Encoding: 729 729 365
Width: 411
GlyphClass: 2
Flags: HW
LayerCount: 2
Fore
SplineSet
110.5 1499.5 m 128,-1,1
 146 1539 146 1539 208.5 1539 c 128,-1,2
 271 1539 271 1539 306 1500 c 128,-1,3
 341 1461 341 1461 341 1407 c 128,-1,4
 341 1353 341 1353 306 1314 c 128,-1,5
 271 1275 271 1275 208.5 1275 c 128,-1,6
 146 1275 146 1275 110.5 1314.5 c 128,-1,7
 75 1354 75 1354 75 1407 c 128,-1,0
 75 1460 75 1460 110.5 1499.5 c 128,-1,1
EndSplineSet
EndChar

StartChar: ring
Encoding: 730 730 366
Width: 634
GlyphClass: 2
Flags: HW
LayerCount: 2
Fore
SplineSet
320 1638 m 128,-1,1
 399 1638 399 1638 456.5 1581.5 c 128,-1,2
 514 1525 514 1525 514 1442 c 128,-1,3
 514 1359 514 1359 457 1308 c 128,-1,4
 400 1257 400 1257 320.5 1257 c 128,-1,5
 241 1257 241 1257 183 1308 c 128,-1,6
 125 1359 125 1359 125 1443.5 c 128,-1,7
 125 1528 125 1528 183 1583 c 128,-1,0
 241 1638 241 1638 320 1638 c 128,-1,1
248 1360.5 m 128,-1,9
 275 1330 275 1330 316.5 1330 c 128,-1,10
 358 1330 358 1330 387 1363.5 c 128,-1,11
 416 1397 416 1397 416 1443 c 128,-1,12
 416 1489 416 1489 388.5 1523 c 128,-1,13
 361 1557 361 1557 321 1557 c 128,-1,14
 281 1557 281 1557 251 1522 c 128,-1,15
 221 1487 221 1487 221 1439 c 128,-1,8
 221 1391 221 1391 248 1360.5 c 128,-1,9
EndSplineSet
EndChar

StartChar: ogonek
Encoding: 731 731 367
Width: 590
GlyphClass: 2
Flags: HW
LayerCount: 2
Fore
SplineSet
270.5 -277.5 m 128,-1,1
 298 -303 298 -303 343 -303 c 128,-1,2
 388 -303 388 -303 468 -270 c 1,3,-1
 468 -387 l 1,4,5
 392 -419 392 -419 309.5 -419 c 128,-1,6
 227 -419 227 -419 172.5 -372.5 c 128,-1,7
 118 -326 118 -326 118 -243 c 0,8,9
 118 -106 118 -106 309 5 c 1,10,-1
 423 5 l 1,11,12
 243 -128 243 -128 243 -214 c 0,13,0
 243 -252 243 -252 270.5 -277.5 c 128,-1,1
EndSplineSet
EndChar

StartChar: tilde
Encoding: 732 732 368
Width: 885
GlyphClass: 2
Flags: HW
LayerCount: 2
Fore
SplineSet
277 1388 m 1,0,1
 226 1386 226 1386 222 1291 c 1,2,-1
 115 1291 l 1,3,4
 115 1401 115 1401 160 1455.5 c 128,-1,5
 205 1510 205 1510 273 1510 c 128,-1,6
 341 1510 341 1510 406 1486.5 c 128,-1,7
 471 1463 471 1463 519 1439.5 c 128,-1,8
 567 1416 567 1416 580 1416 c 2,9,-1
 582 1416 l 1,10,11
 616 1418 616 1418 624 1466 c 0,12,13
 626 1482 626 1482 629 1510 c 1,14,-1
 738 1510 l 1,15,16
 738 1291 738 1291 589 1291 c 0,17,18
 542 1291 542 1291 429 1339.5 c 128,-1,19
 316 1388 316 1388 279 1388 c 2,20,-1
 277 1388 l 1,0,1
EndSplineSet
EndChar

StartChar: hungarumlaut
Encoding: 733 733 369
Width: 817
GlyphClass: 2
Flags: HW
LayerCount: 2
Fore
SplineSet
713 1594 m 1,0,-1
 463 1259 l 1,1,-1
 361 1259 l 1,2,-1
 563 1594 l 1,3,-1
 713 1594 l 1,0,-1
479 1594 m 1,4,-1
 227 1259 l 1,5,-1
 128 1259 l 1,6,-1
 326 1594 l 1,7,-1
 479 1594 l 1,4,-1
EndSplineSet
EndChar

StartChar: dotaccentcmb
Encoding: 775 775 370
Width: 411
GlyphClass: 2
Flags: HW
LayerCount: 2
Fore
SplineSet
111.5 1521.5 m 128,-1,1
 147 1561 147 1561 209.5 1561 c 128,-1,2
 272 1561 272 1561 307 1522 c 128,-1,3
 342 1483 342 1483 342 1429 c 128,-1,4
 342 1375 342 1375 307 1336 c 128,-1,5
 272 1297 272 1297 209.5 1297 c 128,-1,6
 147 1297 147 1297 111.5 1336.5 c 128,-1,7
 76 1376 76 1376 76 1429 c 128,-1,0
 76 1482 76 1482 111.5 1521.5 c 128,-1,1
EndSplineSet
EndChar

StartChar: uni030F
Encoding: 783 783 371
Width: 855
GlyphClass: 2
Flags: HW
LayerCount: 2
Fore
SplineSet
627 1259 m 1,0,-1
 380 1594 l 1,1,-1
 531 1594 l 1,2,-1
 729 1259 l 1,3,-1
 627 1259 l 1,0,-1
359 1259 m 1,4,-1
 109 1594 l 1,5,-1
 259 1594 l 1,6,-1
 461 1259 l 1,7,-1
 359 1259 l 1,4,-1
EndSplineSet
EndChar

StartChar: uni0311
Encoding: 785 785 372
Width: 767
GlyphClass: 2
Flags: HW
LayerCount: 2
Fore
SplineSet
208.5 1489 m 128,-1,1
 283 1557 283 1557 383.5 1557 c 128,-1,2
 484 1557 484 1557 560 1488.5 c 128,-1,3
 636 1420 636 1420 636 1299 c 1,4,-1
 519 1299 l 1,5,6
 519 1368 519 1368 480 1404 c 128,-1,7
 441 1440 441 1440 383 1440 c 128,-1,8
 325 1440 325 1440 287.5 1404 c 128,-1,9
 250 1368 250 1368 250 1299 c 1,10,-1
 134 1299 l 1,11,0
 134 1421 134 1421 208.5 1489 c 128,-1,1
EndSplineSet
EndChar

StartChar: uni0326
Encoding: 806 806 373
Width: 555
GlyphClass: 2
Flags: HW
LayerCount: 2
Fore
SplineSet
144 -672 m 1,0,-1
 238 -174 l 1,1,-1
 404 -174 l 1,2,-1
 261 -672 l 1,3,-1
 144 -672 l 1,0,-1
EndSplineSet
EndChar

StartChar: tonos
Encoding: 900 900 374
Width: 468
GlyphClass: 2
Flags: HW
LayerCount: 2
Fore
SplineSet
139.5 756.5 m 128,-1,1
 175 796 175 796 237.5 796 c 128,-1,2
 300 796 300 796 335 757 c 128,-1,3
 370 718 370 718 370 664 c 128,-1,4
 370 610 370 610 335 571 c 128,-1,5
 300 532 300 532 237.5 532 c 128,-1,6
 175 532 175 532 139.5 571.5 c 128,-1,7
 104 611 104 611 104 664 c 128,-1,0
 104 717 104 717 139.5 756.5 c 128,-1,1
EndSplineSet
EndChar

StartChar: dieresistonos
Encoding: 901 901 375
Width: 468
GlyphClass: 2
Flags: HW
LayerCount: 2
Fore
SplineSet
139.5 756.5 m 128,-1,1
 175 796 175 796 237.5 796 c 128,-1,2
 300 796 300 796 335 757 c 128,-1,3
 370 718 370 718 370 664 c 128,-1,4
 370 610 370 610 335 571 c 128,-1,5
 300 532 300 532 237.5 532 c 128,-1,6
 175 532 175 532 139.5 571.5 c 128,-1,7
 104 611 104 611 104 664 c 128,-1,0
 104 717 104 717 139.5 756.5 c 128,-1,1
EndSplineSet
EndChar

StartChar: Alphatonos
Encoding: 902 902 376
Width: 468
GlyphClass: 2
Flags: HW
LayerCount: 2
Fore
SplineSet
139.5 756.5 m 128,-1,1
 175 796 175 796 237.5 796 c 128,-1,2
 300 796 300 796 335 757 c 128,-1,3
 370 718 370 718 370 664 c 128,-1,4
 370 610 370 610 335 571 c 128,-1,5
 300 532 300 532 237.5 532 c 128,-1,6
 175 532 175 532 139.5 571.5 c 128,-1,7
 104 611 104 611 104 664 c 128,-1,0
 104 717 104 717 139.5 756.5 c 128,-1,1
EndSplineSet
EndChar

StartChar: Epsilontonos
Encoding: 904 904 377
Width: 468
GlyphClass: 2
Flags: HW
LayerCount: 2
Fore
SplineSet
139.5 756.5 m 128,-1,1
 175 796 175 796 237.5 796 c 128,-1,2
 300 796 300 796 335 757 c 128,-1,3
 370 718 370 718 370 664 c 128,-1,4
 370 610 370 610 335 571 c 128,-1,5
 300 532 300 532 237.5 532 c 128,-1,6
 175 532 175 532 139.5 571.5 c 128,-1,7
 104 611 104 611 104 664 c 128,-1,0
 104 717 104 717 139.5 756.5 c 128,-1,1
EndSplineSet
EndChar

StartChar: Etatonos
Encoding: 905 905 378
Width: 468
GlyphClass: 2
Flags: HW
LayerCount: 2
Fore
SplineSet
139.5 756.5 m 128,-1,1
 175 796 175 796 237.5 796 c 128,-1,2
 300 796 300 796 335 757 c 128,-1,3
 370 718 370 718 370 664 c 128,-1,4
 370 610 370 610 335 571 c 128,-1,5
 300 532 300 532 237.5 532 c 128,-1,6
 175 532 175 532 139.5 571.5 c 128,-1,7
 104 611 104 611 104 664 c 128,-1,0
 104 717 104 717 139.5 756.5 c 128,-1,1
EndSplineSet
EndChar

StartChar: Iotatonos
Encoding: 906 906 379
Width: 468
GlyphClass: 2
Flags: HW
LayerCount: 2
Fore
SplineSet
139.5 756.5 m 128,-1,1
 175 796 175 796 237.5 796 c 128,-1,2
 300 796 300 796 335 757 c 128,-1,3
 370 718 370 718 370 664 c 128,-1,4
 370 610 370 610 335 571 c 128,-1,5
 300 532 300 532 237.5 532 c 128,-1,6
 175 532 175 532 139.5 571.5 c 128,-1,7
 104 611 104 611 104 664 c 128,-1,0
 104 717 104 717 139.5 756.5 c 128,-1,1
EndSplineSet
EndChar

StartChar: Omicrontonos
Encoding: 908 908 380
Width: 468
GlyphClass: 2
Flags: HW
LayerCount: 2
Fore
SplineSet
139.5 756.5 m 128,-1,1
 175 796 175 796 237.5 796 c 128,-1,2
 300 796 300 796 335 757 c 128,-1,3
 370 718 370 718 370 664 c 128,-1,4
 370 610 370 610 335 571 c 128,-1,5
 300 532 300 532 237.5 532 c 128,-1,6
 175 532 175 532 139.5 571.5 c 128,-1,7
 104 611 104 611 104 664 c 128,-1,0
 104 717 104 717 139.5 756.5 c 128,-1,1
EndSplineSet
EndChar

StartChar: Upsilontonos
Encoding: 910 910 381
Width: 468
GlyphClass: 2
Flags: HW
LayerCount: 2
Fore
SplineSet
139.5 756.5 m 128,-1,1
 175 796 175 796 237.5 796 c 128,-1,2
 300 796 300 796 335 757 c 128,-1,3
 370 718 370 718 370 664 c 128,-1,4
 370 610 370 610 335 571 c 128,-1,5
 300 532 300 532 237.5 532 c 128,-1,6
 175 532 175 532 139.5 571.5 c 128,-1,7
 104 611 104 611 104 664 c 128,-1,0
 104 717 104 717 139.5 756.5 c 128,-1,1
EndSplineSet
EndChar

StartChar: Omegatonos
Encoding: 911 911 382
Width: 468
GlyphClass: 2
Flags: HW
LayerCount: 2
Fore
SplineSet
139.5 756.5 m 128,-1,1
 175 796 175 796 237.5 796 c 128,-1,2
 300 796 300 796 335 757 c 128,-1,3
 370 718 370 718 370 664 c 128,-1,4
 370 610 370 610 335 571 c 128,-1,5
 300 532 300 532 237.5 532 c 128,-1,6
 175 532 175 532 139.5 571.5 c 128,-1,7
 104 611 104 611 104 664 c 128,-1,0
 104 717 104 717 139.5 756.5 c 128,-1,1
EndSplineSet
EndChar

StartChar: iotadieresistonos
Encoding: 912 912 383
Width: 468
GlyphClass: 2
Flags: HW
LayerCount: 2
Fore
SplineSet
139.5 756.5 m 128,-1,1
 175 796 175 796 237.5 796 c 128,-1,2
 300 796 300 796 335 757 c 128,-1,3
 370 718 370 718 370 664 c 128,-1,4
 370 610 370 610 335 571 c 128,-1,5
 300 532 300 532 237.5 532 c 128,-1,6
 175 532 175 532 139.5 571.5 c 128,-1,7
 104 611 104 611 104 664 c 128,-1,0
 104 717 104 717 139.5 756.5 c 128,-1,1
EndSplineSet
EndChar

StartChar: Delta
Encoding: 916 916 387
Width: 1265
GlyphClass: 2
Flags: HW
LayerCount: 2
Fore
SplineSet
1038 155 m 1,0,-1
 632 1306 l 1,1,-1
 231 155 l 1,2,-1
 1038 155 l 1,0,-1
-10 0 m 1,3,-1
 539 1496 l 1,4,-1
 724 1496 l 1,5,-1
 1275 0 l 1,6,-1
 -10 0 l 1,3,-1
EndSplineSet
EndChar

StartChar: Theta
Encoding: 920 920 391
Width: 468
GlyphClass: 2
Flags: HW
LayerCount: 2
Fore
SplineSet
139.5 756.5 m 128,-1,1
 175 796 175 796 237.5 796 c 128,-1,2
 300 796 300 796 335 757 c 128,-1,3
 370 718 370 718 370 664 c 128,-1,4
 370 610 370 610 335 571 c 128,-1,5
 300 532 300 532 237.5 532 c 128,-1,6
 175 532 175 532 139.5 571.5 c 128,-1,7
 104 611 104 611 104 664 c 128,-1,0
 104 717 104 717 139.5 756.5 c 128,-1,1
EndSplineSet
EndChar

StartChar: Lambda
Encoding: 923 923 394
Width: 1265
GlyphClass: 2
Flags: HW
LayerCount: 2
Fore
SplineSet
632 1306 m 1,0,-1
 177 0 l 1,1,-1
 -10 0 l 1,2,-1
 539 1496 l 1,3,-1
 724 1496 l 1,4,-1
 1275 0 l 1,5,-1
 1093 0 l 1,6,-1
 632 1306 l 1,0,-1
EndSplineSet
EndChar

StartChar: Xi
Encoding: 926 926 397
Width: 468
GlyphClass: 2
Flags: HW
LayerCount: 2
Fore
SplineSet
139.5 756.5 m 128,-1,1
 175 796 175 796 237.5 796 c 128,-1,2
 300 796 300 796 335 757 c 128,-1,3
 370 718 370 718 370 664 c 128,-1,4
 370 610 370 610 335 571 c 128,-1,5
 300 532 300 532 237.5 532 c 128,-1,6
 175 532 175 532 139.5 571.5 c 128,-1,7
 104 611 104 611 104 664 c 128,-1,0
 104 717 104 717 139.5 756.5 c 128,-1,1
EndSplineSet
EndChar

StartChar: Pi
Encoding: 928 928 399
Width: 1465
GlyphClass: 2
Flags: HW
LayerCount: 2
Fore
SplineSet
1141 1344 m 1,0,-1
 324 1344 l 1,1,-1
 324 0 l 1,2,-1
 147 0 l 1,3,-1
 147 1496 l 1,4,-1
 1318 1496 l 1,5,-1
 1318 0 l 1,6,-1
 1141 0 l 1,7,-1
 1141 1344 l 1,0,-1
EndSplineSet
EndChar

StartChar: Phi
Encoding: 934 934 404
Width: 1661
GlyphClass: 2
Flags: HW
LayerCount: 2
Fore
SplineSet
917 0 m 1,0,-1
 740 0 l 1,1,-1
 740 170 l 1,2,3
 784 167 784 167 829.5 167 c 128,-1,4
 875 167 875 167 917 170 c 1,5,-1
 917 0 l 1,0,-1
740 1205 m 1,6,7
 520 1185 520 1185 405 1070.5 c 128,-1,8
 290 956 290 956 290 772.5 c 128,-1,9
 290 589 290 589 403 467 c 128,-1,10
 516 345 516 345 740 323 c 1,11,-1
 740 1205 l 1,6,7
740 1205 m 1,12,13
 779 1209 779 1209 821 1209 c 128,-1,14
 863 1209 863 1209 917 1205 c 1,15,-1
 917 1358 l 1,16,17
 1221 1337 1221 1337 1390.5 1179.5 c 128,-1,18
 1560 1022 1560 1022 1560 772 c 128,-1,19
 1560 522 1560 522 1392.5 356.5 c 128,-1,20
 1225 191 1225 191 917 170 c 1,21,-1
 917 323 l 1,22,23
 863 319 863 319 821 319 c 128,-1,24
 779 319 779 319 740 323 c 1,25,-1
 740 170 l 1,26,27
 434 193 434 193 267.5 358 c 128,-1,28
 101 523 101 523 101 772 c 128,-1,29
 101 1021 101 1021 269.5 1178.5 c 128,-1,30
 438 1336 438 1336 740 1358 c 1,31,-1
 740 1205 l 1,12,13
740 1358 m 1,32,-1
 740 1496 l 1,33,-1
 917 1496 l 1,34,-1
 917 1358 l 1,35,36
 875 1361 875 1361 829.5 1361 c 128,-1,37
 784 1361 784 1361 740 1358 c 1,32,-1
917 1205 m 1,38,-1
 917 323 l 1,39,40
 1143 344 1143 344 1257 466 c 128,-1,41
 1371 588 1371 588 1371 771.5 c 128,-1,42
 1371 955 1371 955 1255.5 1070.5 c 128,-1,43
 1140 1186 1140 1186 917 1205 c 1,38,-1
EndSplineSet
EndChar

StartChar: Psi
Encoding: 936 936 406
Width: 468
GlyphClass: 2
Flags: HW
LayerCount: 2
Fore
SplineSet
139.5 756.5 m 128,-1,1
 175 796 175 796 237.5 796 c 128,-1,2
 300 796 300 796 335 757 c 128,-1,3
 370 718 370 718 370 664 c 128,-1,4
 370 610 370 610 335 571 c 128,-1,5
 300 532 300 532 237.5 532 c 128,-1,6
 175 532 175 532 139.5 571.5 c 128,-1,7
 104 611 104 611 104 664 c 128,-1,0
 104 717 104 717 139.5 756.5 c 128,-1,1
EndSplineSet
EndChar

StartChar: alphatonos
Encoding: 940 940 410
Width: 468
GlyphClass: 2
Flags: HW
LayerCount: 2
Fore
SplineSet
139.5 756.5 m 128,-1,1
 175 796 175 796 237.5 796 c 128,-1,2
 300 796 300 796 335 757 c 128,-1,3
 370 718 370 718 370 664 c 128,-1,4
 370 610 370 610 335 571 c 128,-1,5
 300 532 300 532 237.5 532 c 128,-1,6
 175 532 175 532 139.5 571.5 c 128,-1,7
 104 611 104 611 104 664 c 128,-1,0
 104 717 104 717 139.5 756.5 c 128,-1,1
EndSplineSet
EndChar

StartChar: epsilontonos
Encoding: 941 941 411
Width: 468
GlyphClass: 2
Flags: HW
LayerCount: 2
Fore
SplineSet
139.5 756.5 m 128,-1,1
 175 796 175 796 237.5 796 c 128,-1,2
 300 796 300 796 335 757 c 128,-1,3
 370 718 370 718 370 664 c 128,-1,4
 370 610 370 610 335 571 c 128,-1,5
 300 532 300 532 237.5 532 c 128,-1,6
 175 532 175 532 139.5 571.5 c 128,-1,7
 104 611 104 611 104 664 c 128,-1,0
 104 717 104 717 139.5 756.5 c 128,-1,1
EndSplineSet
EndChar

StartChar: etatonos
Encoding: 942 942 412
Width: 468
GlyphClass: 2
Flags: HW
LayerCount: 2
Fore
SplineSet
139.5 756.5 m 128,-1,1
 175 796 175 796 237.5 796 c 128,-1,2
 300 796 300 796 335 757 c 128,-1,3
 370 718 370 718 370 664 c 128,-1,4
 370 610 370 610 335 571 c 128,-1,5
 300 532 300 532 237.5 532 c 128,-1,6
 175 532 175 532 139.5 571.5 c 128,-1,7
 104 611 104 611 104 664 c 128,-1,0
 104 717 104 717 139.5 756.5 c 128,-1,1
EndSplineSet
EndChar

StartChar: iotatonos
Encoding: 943 943 413
Width: 468
GlyphClass: 2
Flags: HW
LayerCount: 2
Fore
SplineSet
139.5 756.5 m 128,-1,1
 175 796 175 796 237.5 796 c 128,-1,2
 300 796 300 796 335 757 c 128,-1,3
 370 718 370 718 370 664 c 128,-1,4
 370 610 370 610 335 571 c 128,-1,5
 300 532 300 532 237.5 532 c 128,-1,6
 175 532 175 532 139.5 571.5 c 128,-1,7
 104 611 104 611 104 664 c 128,-1,0
 104 717 104 717 139.5 756.5 c 128,-1,1
EndSplineSet
EndChar

StartChar: upsilondieresistonos
Encoding: 944 944 414
Width: 468
GlyphClass: 2
Flags: HW
LayerCount: 2
Fore
SplineSet
139.5 756.5 m 128,-1,1
 175 796 175 796 237.5 796 c 128,-1,2
 300 796 300 796 335 757 c 128,-1,3
 370 718 370 718 370 664 c 128,-1,4
 370 610 370 610 335 571 c 128,-1,5
 300 532 300 532 237.5 532 c 128,-1,6
 175 532 175 532 139.5 571.5 c 128,-1,7
 104 611 104 611 104 664 c 128,-1,0
 104 717 104 717 139.5 756.5 c 128,-1,1
EndSplineSet
EndChar

StartChar: alpha
Encoding: 945 945 415
Width: 468
GlyphClass: 2
Flags: HW
LayerCount: 2
Fore
SplineSet
139.5 756.5 m 128,-1,1
 175 796 175 796 237.5 796 c 128,-1,2
 300 796 300 796 335 757 c 128,-1,3
 370 718 370 718 370 664 c 128,-1,4
 370 610 370 610 335 571 c 128,-1,5
 300 532 300 532 237.5 532 c 128,-1,6
 175 532 175 532 139.5 571.5 c 128,-1,7
 104 611 104 611 104 664 c 128,-1,0
 104 717 104 717 139.5 756.5 c 128,-1,1
EndSplineSet
EndChar

StartChar: beta
Encoding: 946 946 416
Width: 468
GlyphClass: 2
Flags: HW
LayerCount: 2
Fore
SplineSet
139.5 756.5 m 128,-1,1
 175 796 175 796 237.5 796 c 128,-1,2
 300 796 300 796 335 757 c 128,-1,3
 370 718 370 718 370 664 c 128,-1,4
 370 610 370 610 335 571 c 128,-1,5
 300 532 300 532 237.5 532 c 128,-1,6
 175 532 175 532 139.5 571.5 c 128,-1,7
 104 611 104 611 104 664 c 128,-1,0
 104 717 104 717 139.5 756.5 c 128,-1,1
EndSplineSet
EndChar

StartChar: gamma
Encoding: 947 947 417
Width: 468
GlyphClass: 2
Flags: HW
LayerCount: 2
Fore
SplineSet
139.5 756.5 m 128,-1,1
 175 796 175 796 237.5 796 c 128,-1,2
 300 796 300 796 335 757 c 128,-1,3
 370 718 370 718 370 664 c 128,-1,4
 370 610 370 610 335 571 c 128,-1,5
 300 532 300 532 237.5 532 c 128,-1,6
 175 532 175 532 139.5 571.5 c 128,-1,7
 104 611 104 611 104 664 c 128,-1,0
 104 717 104 717 139.5 756.5 c 128,-1,1
EndSplineSet
EndChar

StartChar: delta
Encoding: 948 948 418
Width: 468
GlyphClass: 2
Flags: HW
LayerCount: 2
Fore
SplineSet
139.5 756.5 m 128,-1,1
 175 796 175 796 237.5 796 c 128,-1,2
 300 796 300 796 335 757 c 128,-1,3
 370 718 370 718 370 664 c 128,-1,4
 370 610 370 610 335 571 c 128,-1,5
 300 532 300 532 237.5 532 c 128,-1,6
 175 532 175 532 139.5 571.5 c 128,-1,7
 104 611 104 611 104 664 c 128,-1,0
 104 717 104 717 139.5 756.5 c 128,-1,1
EndSplineSet
EndChar

StartChar: epsilon
Encoding: 949 949 419
Width: 468
GlyphClass: 2
Flags: HW
LayerCount: 2
Fore
SplineSet
139.5 756.5 m 128,-1,1
 175 796 175 796 237.5 796 c 128,-1,2
 300 796 300 796 335 757 c 128,-1,3
 370 718 370 718 370 664 c 128,-1,4
 370 610 370 610 335 571 c 128,-1,5
 300 532 300 532 237.5 532 c 128,-1,6
 175 532 175 532 139.5 571.5 c 128,-1,7
 104 611 104 611 104 664 c 128,-1,0
 104 717 104 717 139.5 756.5 c 128,-1,1
EndSplineSet
EndChar

StartChar: zeta
Encoding: 950 950 420
Width: 468
GlyphClass: 2
Flags: HW
LayerCount: 2
Fore
SplineSet
139.5 756.5 m 128,-1,1
 175 796 175 796 237.5 796 c 128,-1,2
 300 796 300 796 335 757 c 128,-1,3
 370 718 370 718 370 664 c 128,-1,4
 370 610 370 610 335 571 c 128,-1,5
 300 532 300 532 237.5 532 c 128,-1,6
 175 532 175 532 139.5 571.5 c 128,-1,7
 104 611 104 611 104 664 c 128,-1,0
 104 717 104 717 139.5 756.5 c 128,-1,1
EndSplineSet
EndChar

StartChar: eta
Encoding: 951 951 421
Width: 468
GlyphClass: 2
Flags: HW
LayerCount: 2
Fore
SplineSet
139.5 756.5 m 128,-1,1
 175 796 175 796 237.5 796 c 128,-1,2
 300 796 300 796 335 757 c 128,-1,3
 370 718 370 718 370 664 c 128,-1,4
 370 610 370 610 335 571 c 128,-1,5
 300 532 300 532 237.5 532 c 128,-1,6
 175 532 175 532 139.5 571.5 c 128,-1,7
 104 611 104 611 104 664 c 128,-1,0
 104 717 104 717 139.5 756.5 c 128,-1,1
EndSplineSet
EndChar

StartChar: theta
Encoding: 952 952 422
Width: 468
GlyphClass: 2
Flags: HW
LayerCount: 2
Fore
SplineSet
139.5 756.5 m 128,-1,1
 175 796 175 796 237.5 796 c 128,-1,2
 300 796 300 796 335 757 c 128,-1,3
 370 718 370 718 370 664 c 128,-1,4
 370 610 370 610 335 571 c 128,-1,5
 300 532 300 532 237.5 532 c 128,-1,6
 175 532 175 532 139.5 571.5 c 128,-1,7
 104 611 104 611 104 664 c 128,-1,0
 104 717 104 717 139.5 756.5 c 128,-1,1
EndSplineSet
EndChar

StartChar: iota
Encoding: 953 953 423
Width: 468
GlyphClass: 2
Flags: HW
LayerCount: 2
Fore
SplineSet
139.5 756.5 m 128,-1,1
 175 796 175 796 237.5 796 c 128,-1,2
 300 796 300 796 335 757 c 128,-1,3
 370 718 370 718 370 664 c 128,-1,4
 370 610 370 610 335 571 c 128,-1,5
 300 532 300 532 237.5 532 c 128,-1,6
 175 532 175 532 139.5 571.5 c 128,-1,7
 104 611 104 611 104 664 c 128,-1,0
 104 717 104 717 139.5 756.5 c 128,-1,1
EndSplineSet
EndChar

StartChar: lambda
Encoding: 955 955 425
Width: 468
GlyphClass: 2
Flags: HW
LayerCount: 2
Fore
SplineSet
139.5 756.5 m 128,-1,1
 175 796 175 796 237.5 796 c 128,-1,2
 300 796 300 796 335 757 c 128,-1,3
 370 718 370 718 370 664 c 128,-1,4
 370 610 370 610 335 571 c 128,-1,5
 300 532 300 532 237.5 532 c 128,-1,6
 175 532 175 532 139.5 571.5 c 128,-1,7
 104 611 104 611 104 664 c 128,-1,0
 104 717 104 717 139.5 756.5 c 128,-1,1
EndSplineSet
EndChar

StartChar: mu
Encoding: 956 956 426
Width: 468
GlyphClass: 2
Flags: HW
LayerCount: 2
Fore
SplineSet
139.5 756.5 m 128,-1,1
 175 796 175 796 237.5 796 c 128,-1,2
 300 796 300 796 335 757 c 128,-1,3
 370 718 370 718 370 664 c 128,-1,4
 370 610 370 610 335 571 c 128,-1,5
 300 532 300 532 237.5 532 c 128,-1,6
 175 532 175 532 139.5 571.5 c 128,-1,7
 104 611 104 611 104 664 c 128,-1,0
 104 717 104 717 139.5 756.5 c 128,-1,1
EndSplineSet
EndChar

StartChar: nu
Encoding: 957 957 427
Width: 468
GlyphClass: 2
Flags: HW
LayerCount: 2
Fore
SplineSet
139.5 756.5 m 128,-1,1
 175 796 175 796 237.5 796 c 128,-1,2
 300 796 300 796 335 757 c 128,-1,3
 370 718 370 718 370 664 c 128,-1,4
 370 610 370 610 335 571 c 128,-1,5
 300 532 300 532 237.5 532 c 128,-1,6
 175 532 175 532 139.5 571.5 c 128,-1,7
 104 611 104 611 104 664 c 128,-1,0
 104 717 104 717 139.5 756.5 c 128,-1,1
EndSplineSet
EndChar

StartChar: xi
Encoding: 958 958 428
Width: 468
GlyphClass: 2
Flags: HW
LayerCount: 2
Fore
SplineSet
139.5 756.5 m 128,-1,1
 175 796 175 796 237.5 796 c 128,-1,2
 300 796 300 796 335 757 c 128,-1,3
 370 718 370 718 370 664 c 128,-1,4
 370 610 370 610 335 571 c 128,-1,5
 300 532 300 532 237.5 532 c 128,-1,6
 175 532 175 532 139.5 571.5 c 128,-1,7
 104 611 104 611 104 664 c 128,-1,0
 104 717 104 717 139.5 756.5 c 128,-1,1
EndSplineSet
EndChar

StartChar: pi
Encoding: 960 960 430
Width: 1456
GlyphClass: 2
Flags: HW
LayerCount: 2
Fore
SplineSet
570 976 m 1,0,1
 536 172 536 172 446 0 c 1,2,-1
 298 0 l 1,3,4
 401 221 401 221 420 976 c 1,5,6
 268 972 268 972 176 911 c 1,7,-1
 160 1053 l 1,8,9
 202 1093 202 1093 272.5 1106.5 c 128,-1,10
 343 1120 343 1120 470 1120 c 2,11,-1
 1296 1120 l 1,12,-1
 1296 976 l 1,13,-1
 1114 976 l 1,14,-1
 1114 312 l 2,15,16
 1114 224 1114 224 1128 202 c 0,17,18
 1156 158 1156 158 1202 158 c 0,19,20
 1223 158 1223 158 1274 172 c 1,21,-1
 1268 108 l 1,22,23
 1268 62 1268 62 1282 6 c 1,24,25
 1203 -8 1203 -8 1160 -8 c 0,26,27
 1057 -8 1057 -8 1016.5 62 c 128,-1,28
 976 132 976 132 976 301 c 2,29,-1
 976 976 l 1,30,-1
 570 976 l 1,0,1
EndSplineSet
EndChar

StartChar: sigma1
Encoding: 962 962 432
Width: 468
GlyphClass: 2
Flags: HW
LayerCount: 2
Fore
SplineSet
139.5 756.5 m 128,-1,1
 175 796 175 796 237.5 796 c 128,-1,2
 300 796 300 796 335 757 c 128,-1,3
 370 718 370 718 370 664 c 128,-1,4
 370 610 370 610 335 571 c 128,-1,5
 300 532 300 532 237.5 532 c 128,-1,6
 175 532 175 532 139.5 571.5 c 128,-1,7
 104 611 104 611 104 664 c 128,-1,0
 104 717 104 717 139.5 756.5 c 128,-1,1
EndSplineSet
EndChar

StartChar: sigma
Encoding: 963 963 433
Width: 468
GlyphClass: 2
Flags: HW
LayerCount: 2
Fore
SplineSet
139.5 756.5 m 128,-1,1
 175 796 175 796 237.5 796 c 128,-1,2
 300 796 300 796 335 757 c 128,-1,3
 370 718 370 718 370 664 c 128,-1,4
 370 610 370 610 335 571 c 128,-1,5
 300 532 300 532 237.5 532 c 128,-1,6
 175 532 175 532 139.5 571.5 c 128,-1,7
 104 611 104 611 104 664 c 128,-1,0
 104 717 104 717 139.5 756.5 c 128,-1,1
EndSplineSet
EndChar

StartChar: tau
Encoding: 964 964 434
Width: 468
GlyphClass: 2
Flags: HW
LayerCount: 2
Fore
SplineSet
139.5 756.5 m 128,-1,1
 175 796 175 796 237.5 796 c 128,-1,2
 300 796 300 796 335 757 c 128,-1,3
 370 718 370 718 370 664 c 128,-1,4
 370 610 370 610 335 571 c 128,-1,5
 300 532 300 532 237.5 532 c 128,-1,6
 175 532 175 532 139.5 571.5 c 128,-1,7
 104 611 104 611 104 664 c 128,-1,0
 104 717 104 717 139.5 756.5 c 128,-1,1
EndSplineSet
EndChar

StartChar: upsilon
Encoding: 965 965 435
Width: 468
GlyphClass: 2
Flags: HW
LayerCount: 2
Fore
SplineSet
139.5 756.5 m 128,-1,1
 175 796 175 796 237.5 796 c 128,-1,2
 300 796 300 796 335 757 c 128,-1,3
 370 718 370 718 370 664 c 128,-1,4
 370 610 370 610 335 571 c 128,-1,5
 300 532 300 532 237.5 532 c 128,-1,6
 175 532 175 532 139.5 571.5 c 128,-1,7
 104 611 104 611 104 664 c 128,-1,0
 104 717 104 717 139.5 756.5 c 128,-1,1
EndSplineSet
EndChar

StartChar: phi
Encoding: 966 966 436
Width: 468
GlyphClass: 2
Flags: HW
LayerCount: 2
Fore
SplineSet
139.5 756.5 m 128,-1,1
 175 796 175 796 237.5 796 c 128,-1,2
 300 796 300 796 335 757 c 128,-1,3
 370 718 370 718 370 664 c 128,-1,4
 370 610 370 610 335 571 c 128,-1,5
 300 532 300 532 237.5 532 c 128,-1,6
 175 532 175 532 139.5 571.5 c 128,-1,7
 104 611 104 611 104 664 c 128,-1,0
 104 717 104 717 139.5 756.5 c 128,-1,1
EndSplineSet
EndChar

StartChar: psi
Encoding: 968 968 438
Width: 468
GlyphClass: 2
Flags: HW
LayerCount: 2
Fore
SplineSet
139.5 756.5 m 128,-1,1
 175 796 175 796 237.5 796 c 128,-1,2
 300 796 300 796 335 757 c 128,-1,3
 370 718 370 718 370 664 c 128,-1,4
 370 610 370 610 335 571 c 128,-1,5
 300 532 300 532 237.5 532 c 128,-1,6
 175 532 175 532 139.5 571.5 c 128,-1,7
 104 611 104 611 104 664 c 128,-1,0
 104 717 104 717 139.5 756.5 c 128,-1,1
EndSplineSet
EndChar

StartChar: omega
Encoding: 969 969 439
Width: 468
GlyphClass: 2
Flags: HW
LayerCount: 2
Fore
SplineSet
139.5 756.5 m 128,-1,1
 175 796 175 796 237.5 796 c 128,-1,2
 300 796 300 796 335 757 c 128,-1,3
 370 718 370 718 370 664 c 128,-1,4
 370 610 370 610 335 571 c 128,-1,5
 300 532 300 532 237.5 532 c 128,-1,6
 175 532 175 532 139.5 571.5 c 128,-1,7
 104 611 104 611 104 664 c 128,-1,0
 104 717 104 717 139.5 756.5 c 128,-1,1
EndSplineSet
EndChar

StartChar: upsilondieresis
Encoding: 971 971 441
Width: 468
GlyphClass: 2
Flags: HW
LayerCount: 2
Fore
SplineSet
139.5 756.5 m 128,-1,1
 175 796 175 796 237.5 796 c 128,-1,2
 300 796 300 796 335 757 c 128,-1,3
 370 718 370 718 370 664 c 128,-1,4
 370 610 370 610 335 571 c 128,-1,5
 300 532 300 532 237.5 532 c 128,-1,6
 175 532 175 532 139.5 571.5 c 128,-1,7
 104 611 104 611 104 664 c 128,-1,0
 104 717 104 717 139.5 756.5 c 128,-1,1
EndSplineSet
EndChar

StartChar: omicrontonos
Encoding: 972 972 442
Width: 468
GlyphClass: 2
Flags: HW
LayerCount: 2
Fore
SplineSet
139.5 756.5 m 128,-1,1
 175 796 175 796 237.5 796 c 128,-1,2
 300 796 300 796 335 757 c 128,-1,3
 370 718 370 718 370 664 c 128,-1,4
 370 610 370 610 335 571 c 128,-1,5
 300 532 300 532 237.5 532 c 128,-1,6
 175 532 175 532 139.5 571.5 c 128,-1,7
 104 611 104 611 104 664 c 128,-1,0
 104 717 104 717 139.5 756.5 c 128,-1,1
EndSplineSet
EndChar

StartChar: upsilontonos
Encoding: 973 973 443
Width: 468
GlyphClass: 2
Flags: HW
LayerCount: 2
Fore
SplineSet
139.5 756.5 m 128,-1,1
 175 796 175 796 237.5 796 c 128,-1,2
 300 796 300 796 335 757 c 128,-1,3
 370 718 370 718 370 664 c 128,-1,4
 370 610 370 610 335 571 c 128,-1,5
 300 532 300 532 237.5 532 c 128,-1,6
 175 532 175 532 139.5 571.5 c 128,-1,7
 104 611 104 611 104 664 c 128,-1,0
 104 717 104 717 139.5 756.5 c 128,-1,1
EndSplineSet
EndChar

StartChar: omegatonos
Encoding: 974 974 444
Width: 468
GlyphClass: 2
Flags: HW
LayerCount: 2
Fore
SplineSet
139.5 756.5 m 128,-1,1
 175 796 175 796 237.5 796 c 128,-1,2
 300 796 300 796 335 757 c 128,-1,3
 370 718 370 718 370 664 c 128,-1,4
 370 610 370 610 335 571 c 128,-1,5
 300 532 300 532 237.5 532 c 128,-1,6
 175 532 175 532 139.5 571.5 c 128,-1,7
 104 611 104 611 104 664 c 128,-1,0
 104 717 104 717 139.5 756.5 c 128,-1,1
EndSplineSet
EndChar

StartChar: afii10051
Encoding: 1026 1026 447
Width: 1026
GlyphClass: 2
Flags: HW
LayerCount: 2
Fore
SplineSet
-23 1341 m 1,0,-1
 -23 1496 l 1,1,-1
 1049 1496 l 1,2,-1
 1049 1341 l 1,3,-1
 601 1341 l 1,4,-1
 601 0 l 1,5,-1
 424 0 l 1,6,-1
 424 1341 l 1,7,-1
 -23 1341 l 1,0,-1
EndSplineSet
EndChar

StartChar: uni0403
Encoding: 1027 1027 448
Width: 1008
GlyphClass: 2
Flags: HW
LayerCount: 2
Fore
SplineSet
1003 1343 m 1,0,-1
 324 1343 l 1,1,-1
 324 0 l 1,2,-1
 147 0 l 1,3,-1
 147 1496 l 1,4,-1
 1003 1496 l 1,5,-1
 1003 1343 l 1,0,-1
EndSplineSet
EndChar

StartChar: afii10053
Encoding: 1028 1028 449
Width: 1325
GlyphClass: 2
Flags: HW
LayerCount: 2
Fore
SplineSet
265 664 m 1,0,1
 287 434 287 434 415 286 c 0,2,3
 550 128 550 128 785 129 c 0,4,5
 894 129 894 129 993.5 162.5 c 128,-1,6
 1093 196 1093 196 1160 248 c 1,7,-1
 1224 113 l 1,8,9
 1057 -23 1057 -23 776 -23 c 0,10,11
 607 -23 607 -23 472 36.5 c 0,12,13
 336 96 336 96 250 202 c 0,14,15
 72 420 72 420 72 757 c 0,16,17
 72 1160 72 1160 328 1376 c 0,18,19
 504 1524 504 1524 788.5 1524.5 c 128,-1,20
 1073 1525 1073 1525 1219 1395 c 1,21,-1
 1161 1250 l 1,22,23
 1094 1304 1094 1304 998 1338.5 c 128,-1,24
 902 1373 902 1373 795.5 1373 c 128,-1,25
 689 1373 689 1373 601.5 1343 c 128,-1,26
 514 1313 514 1313 454.5 1262 c 0,27,28
 395 1212 395 1212 353 1140 c 0,29,30
 275 1008 275 1008 263 818 c 1,31,-1
 954 818 l 1,32,-1
 954 664 l 1,33,-1
 265 664 l 1,0,1
EndSplineSet
EndChar

StartChar: uni0406
Encoding: 1030 1030 451
Width: 490
GlyphClass: 2
Flags: HW
LayerCount: 2
Fore
SplineSet
331 1497 m 1,0,-1
 331 0 l 1,1,-1
 155 0 l 1,2,-1
 155 1497 l 1,3,-1
 331 1497 l 1,0,-1
EndSplineSet
EndChar

StartChar: uni0409
Encoding: 1033 1033 454
Width: 1825
GlyphClass: 2
Flags: HW
LayerCount: 2
Fore
SplineSet
1277 717 m 2,0,-1
 1018 717 l 1,1,-1
 1018 155 l 1,2,-1
 1277 155 l 2,3,4
 1404 155 1404 155 1483.5 228.5 c 128,-1,5
 1563 302 1563 302 1563 432 c 128,-1,6
 1563 562 1563 562 1484 639.5 c 128,-1,7
 1405 717 1405 717 1277 717 c 2,0,-1
1018 1496 m 1,8,-1
 1018 871 l 1,9,-1
 1277 871 l 2,10,11
 1489 871 1489 871 1614 768 c 0,12,13
 1745 660 1745 660 1745 438.5 c 128,-1,14
 1745 217 1745 217 1620.5 108.5 c 128,-1,15
 1496 0 1496 0 1277 0 c 2,16,-1
 841 0 l 1,17,-1
 841 1341 l 1,18,-1
 458 1341 l 1,19,-1
 458 433 l 2,20,21
 458 229 458 229 429 152 c 0,22,23
 398 72 398 72 348 38 c 0,24,25
 282 -7 282 -7 210 -16.5 c 128,-1,26
 138 -26 138 -26 72 -26 c 2,27,-1
 44 -26 l 1,28,-1
 44 131 l 1,29,-1
 90 131 l 2,30,31
 190 131 190 131 235.5 176.5 c 128,-1,32
 281 222 281 222 281 384 c 2,33,-1
 281 1496 l 1,34,-1
 1018 1496 l 1,8,-1
EndSplineSet
EndChar

StartChar: uni040A
Encoding: 1034 1034 455
Width: 1681
GlyphClass: 2
Flags: HW
LayerCount: 2
Fore
SplineSet
1144 716 m 2,0,-1
 926 716 l 1,1,-1
 926 160 l 1,2,-1
 1144 160 l 2,3,4
 1272 160 1272 160 1351 231 c 128,-1,5
 1430 302 1430 302 1430 432 c 128,-1,6
 1430 562 1430 562 1351 639 c 128,-1,7
 1272 716 1272 716 1144 716 c 2,0,-1
926 871 m 1,8,-1
 1144 871 l 2,9,10
 1356 871 1356 871 1481 768 c 0,11,12
 1612 660 1612 660 1612 438.5 c 128,-1,13
 1612 217 1612 217 1487.5 108.5 c 128,-1,14
 1363 0 1363 0 1144 0 c 2,15,-1
 749 0 l 1,16,-1
 749 716 l 1,17,-1
 324 716 l 1,18,-1
 324 0 l 1,19,-1
 147 0 l 1,20,-1
 147 1496 l 1,21,-1
 324 1496 l 1,22,-1
 324 871 l 1,23,-1
 749 871 l 1,24,-1
 749 1496 l 1,25,-1
 926 1496 l 1,26,-1
 926 871 l 1,8,-1
EndSplineSet
EndChar

StartChar: afii10060
Encoding: 1035 1035 456
Width: 1026
GlyphClass: 2
Flags: HW
LayerCount: 2
Fore
SplineSet
-23 1341 m 1,0,-1
 -23 1496 l 1,1,-1
 1049 1496 l 1,2,-1
 1049 1341 l 1,3,-1
 601 1341 l 1,4,-1
 601 0 l 1,5,-1
 424 0 l 1,6,-1
 424 1341 l 1,7,-1
 -23 1341 l 1,0,-1
EndSplineSet
EndChar

StartChar: afii10145
Encoding: 1039 1039 459
Width: 1463
GlyphClass: 2
Flags: HW
LayerCount: 2
Fore
SplineSet
1139 154 m 1,0,-1
 1139 1496 l 1,1,-1
 1316 1496 l 1,2,-1
 1316 0 l 1,3,-1
 147 0 l 1,4,-1
 147 1496 l 1,5,-1
 324 1496 l 1,6,-1
 324 154 l 1,7,-1
 1139 154 l 1,0,-1
EndSplineSet
EndChar

StartChar: uni0411
Encoding: 1041 1041 461
Width: 1190
GlyphClass: 2
Flags: HW
LayerCount: 2
Fore
SplineSet
850.5 226 m 128,-1,1
 924 297 924 297 924 430.5 c 128,-1,2
 924 564 924 564 850.5 640 c 128,-1,3
 777 716 777 716 638 716 c 2,4,-1
 324 716 l 1,5,-1
 324 155 l 1,6,-1
 638 155 l 2,7,0
 777 155 777 155 850.5 226 c 128,-1,1
147 1496 m 1,8,-1
 1032 1496 l 1,9,-1
 1032 1341 l 1,10,-1
 324 1341 l 1,11,-1
 324 871 l 1,12,-1
 638 871 l 2,13,14
 851 872 851 872 975 768 c 0,15,16
 1106 659 1106 659 1106 437.5 c 128,-1,17
 1106 216 1106 216 981.5 108 c 128,-1,18
 857 0 857 0 638 0 c 2,19,-1
 147 0 l 1,20,-1
 147 1496 l 1,8,-1
EndSplineSet
EndChar

StartChar: uni0412
Encoding: 1042 1042 462
Width: 1252
GlyphClass: 2
Flags: HW
LayerCount: 2
Fore
SplineSet
1004 428 m 0,0,1
 1004 708 1004 708 659 708 c 2,2,-1
 324 708 l 1,3,-1
 324 142 l 1,4,-1
 608 142 l 2,5,6
 807 142 807 142 905.5 211 c 128,-1,7
 1004 280 1004 280 1004 428 c 0,0,1
324 1349 m 1,8,-1
 324 846 l 1,9,-1
 639 846 l 2,10,11
 937 846 937 846 937 1096 c 0,12,13
 937 1222 937 1222 864 1282 c 0,14,15
 801 1334 801 1334 665 1344 c 0,16,17
 609 1348 609 1348 528 1349 c 2,18,-1
 324 1349 l 1,8,-1
147 0 m 1,19,-1
 147 1496 l 1,20,-1
 554 1496 l 2,21,22
 835 1496 835 1496 978.5 1409.5 c 128,-1,23
 1122 1323 1122 1323 1122 1131 c 0,24,25
 1122 1016 1122 1016 1069.5 926.5 c 128,-1,26
 1017 837 1017 837 910 801 c 1,27,28
 1000 782 1000 782 1064 722 c 0,29,30
 1184 607 1184 607 1184 426 c 0,31,32
 1184 0 1184 0 641 0 c 2,33,-1
 147 0 l 1,19,-1
EndSplineSet
EndChar

StartChar: uni0413
Encoding: 1043 1043 463
Width: 1008
GlyphClass: 2
Flags: HW
LayerCount: 2
Fore
SplineSet
1003 1341 m 1,0,-1
 323 1341 l 1,1,-1
 323 0 l 1,2,-1
 146 0 l 1,3,-1
 146 1496 l 1,4,-1
 1018 1496 l 1,5,-1
 1003 1341 l 1,0,-1
EndSplineSet
EndChar

StartChar: uni0414
Encoding: 1044 1044 464
Width: 1387
GlyphClass: 2
Flags: HW
LayerCount: 2
Fore
SplineSet
1016 152 m 1,0,-1
 1016 1354 l 1,1,-1
 667 1354 l 1,2,-1
 367 152 l 1,3,-1
 1016 152 l 1,0,-1
523 1496 m 1,4,-1
 1193 1496 l 1,5,-1
 1193 152 l 1,6,-1
 1309 152 l 1,7,-1
 1309 -265 l 1,8,-1
 1132 -265 l 1,9,-1
 1132 0 l 1,10,-1
 191 0 l 1,11,-1
 191 -265 l 1,12,-1
 14 -265 l 1,13,-1
 14 152 l 1,14,-1
 171 152 l 1,15,-1
 523 1496 l 1,4,-1
EndSplineSet
EndChar

StartChar: uni0415
Encoding: 1045 1045 465
Width: 1140
GlyphClass: 2
Flags: HW
LayerCount: 2
Fore
SplineSet
987 845 m 1,0,-1
 987 692 l 1,1,-1
 324 692 l 1,2,-1
 324 155 l 1,3,-1
 1058 155 l 1,4,-1
 1043 0 l 1,5,-1
 147 0 l 1,6,-1
 147 1496 l 1,7,-1
 1029 1496 l 1,8,-1
 1015 1341 l 1,9,-1
 324 1341 l 1,10,-1
 324 845 l 1,11,-1
 987 845 l 1,0,-1
EndSplineSet
EndChar

StartChar: afii10024
Encoding: 1046 1046 466
Width: 1746
GlyphClass: 2
Flags: HW
LayerCount: 2
Fore
SplineSet
962 1497 m 1,0,-1
 962 789 l 1,1,-1
 1499 1497 l 1,2,-1
 1712 1497 l 1,3,-1
 1210 833 l 1,4,-1
 1789 0 l 1,5,-1
 1568 0 l 1,6,-1
 1076 725 l 1,7,-1
 962 578 l 1,8,-1
 962 0 l 1,9,-1
 786 0 l 1,10,-1
 786 578 l 1,11,-1
 681 716 l 1,12,-1
 179 0 l 1,13,-1
 -43 0 l 1,14,-1
 547 824 l 1,15,-1
 35 1497 l 1,16,-1
 246 1497 l 1,17,-1
 786 789 l 1,18,-1
 786 1497 l 1,19,-1
 962 1497 l 1,0,-1
EndSplineSet
EndChar

StartChar: afii10025
Encoding: 1047 1047 467
Width: 1148
GlyphClass: 2
Flags: HW
LayerCount: 2
Fore
SplineSet
539 677 m 2,0,-1
 421 677 l 1,1,-1
 421 837 l 1,2,-1
 548 837 l 2,3,4
 696 837 696 837 772 915 c 128,-1,5
 848 993 848 993 848 1098 c 2,6,-1
 848 1113 l 1,7,8
 841 1234 841 1234 758.5 1303 c 128,-1,9
 676 1372 676 1372 570 1372 c 128,-1,10
 464 1372 464 1372 362.5 1342.5 c 128,-1,11
 261 1313 261 1313 188 1270 c 1,12,-1
 122 1403 l 1,13,14
 281 1524 281 1524 568 1524 c 0,15,16
 679 1524 679 1524 769 1486 c 0,17,18
 858 1448 858 1448 912 1388 c 0,19,20
 1022 1266 1022 1266 1022 1134.5 c 128,-1,21
 1022 1003 1022 1003 953 900.5 c 128,-1,22
 884 798 884 798 785 769 c 1,23,24
 894 744 894 744 976 640 c 128,-1,25
 1058 536 1058 536 1058 402 c 0,26,27
 1058 206 1058 206 924 91.5 c 128,-1,28
 790 -23 790 -23 529 -23 c 128,-1,29
 268 -23 268 -23 85 103 c 1,30,-1
 148 246 l 1,31,32
 217 196 217 196 320 162.5 c 128,-1,33
 423 129 423 129 513.5 129 c 128,-1,34
 604 129 604 129 666 145 c 0,35,36
 728 160 728 160 777 192 c 0,37,38
 882 260 882 260 882 389.5 c 128,-1,39
 882 519 882 519 797 598 c 128,-1,40
 712 677 712 677 539 677 c 2,0,-1
EndSplineSet
EndChar

StartChar: afii10026
Encoding: 1048 1048 468
Width: 1489
GlyphClass: 2
Flags: HW
LayerCount: 2
Fore
SplineSet
147 0 m 1,0,-1
 147 1497 l 1,1,-1
 310 1497 l 1,2,-1
 310 261 l 1,3,4
 470 505 470 505 775.5 950.5 c 128,-1,5
 1081 1396 1081 1396 1149 1497 c 1,6,-1
 1342 1497 l 1,7,-1
 1342 0 l 1,8,-1
 1181 0 l 1,9,-1
 1181 1230 l 1,10,-1
 1089 1087 l 1,11,-1
 346 0 l 1,12,-1
 147 0 l 1,0,-1
EndSplineSet
EndChar

StartChar: uni041B
Encoding: 1051 1051 471
Width: 1223
GlyphClass: 2
Flags: HW
LayerCount: 2
Fore
SplineSet
27 0 m 1,0,-1
 402 1496 l 1,1,-1
 1076 1496 l 1,2,-1
 1076 0 l 1,3,-1
 899 0 l 1,4,-1
 899 1341 l 1,5,-1
 553 1341 l 1,6,-1
 214 0 l 1,7,-1
 27 0 l 1,0,-1
EndSplineSet
EndChar

StartChar: uni041F
Encoding: 1055 1055 475
Width: 1463
GlyphClass: 2
Flags: HW
LayerCount: 2
Fore
SplineSet
1139 1342 m 1,0,-1
 324 1342 l 1,1,-1
 324 0 l 1,2,-1
 147 0 l 1,3,-1
 147 1496 l 1,4,-1
 1316 1496 l 1,5,-1
 1316 0 l 1,6,-1
 1139 0 l 1,7,-1
 1139 1342 l 1,0,-1
EndSplineSet
EndChar

StartChar: uni0420
Encoding: 1056 1056 476
Width: 1140
GlyphClass: 2
Flags: HW
LayerCount: 2
Fore
SplineSet
645 779 m 2,0,1
 785 779 785 779 857 854.5 c 128,-1,2
 929 930 929 930 929 1064.5 c 128,-1,3
 929 1199 929 1199 856 1270 c 128,-1,4
 783 1341 783 1341 645 1341 c 2,5,-1
 324 1341 l 1,6,-1
 324 779 l 1,7,-1
 645 779 l 2,0,1
324 626 m 1,8,-1
 324 0 l 1,9,-1
 147 0 l 1,10,-1
 147 1496 l 1,11,-1
 641 1496 l 2,12,13
 860 1496 860 1496 984.5 1388 c 128,-1,14
 1109 1280 1109 1280 1109 1069 c 0,15,16
 1109 736 1109 736 831 652 c 0,17,18
 747 626 747 626 641 626 c 2,19,-1
 324 626 l 1,8,-1
EndSplineSet
EndChar

StartChar: afii10037
Encoding: 1059 1059 479
Width: 1211
GlyphClass: 2
Flags: HW
LayerCount: 2
Fore
SplineSet
538 0 m 1,0,-1
 342 0 l 1,1,-1
 529 466 l 1,2,-1
 -1 1496 l 1,3,-1
 200 1496 l 1,4,-1
 636 637 l 1,5,-1
 1015 1496 l 1,6,-1
 1212 1496 l 1,7,-1
 538 0 l 1,0,-1
EndSplineSet
EndChar

StartChar: uni0424
Encoding: 1060 1060 480
Width: 1727
GlyphClass: 2
Flags: HW
LayerCount: 2
Fore
SplineSet
774 1205 m 1,0,1
 531 1179 531 1179 410.5 1060 c 128,-1,2
 290 941 290 941 290 745 c 128,-1,3
 290 549 290 549 410.5 430 c 128,-1,4
 531 311 531 311 774 285 c 1,5,-1
 774 1205 l 1,0,1
937 1207 m 1,6,-1
 937 284 l 1,7,8
 1190 307 1190 307 1313.5 427 c 128,-1,9
 1437 547 1437 547 1437 745 c 128,-1,10
 1437 943 1437 943 1313.5 1063.5 c 128,-1,11
 1190 1184 1190 1184 937 1207 c 1,6,-1
937 1496 m 1,12,-1
 937 1364 l 1,13,14
 1261 1342 1261 1342 1443.5 1182 c 128,-1,15
 1626 1022 1626 1022 1626 745 c 128,-1,16
 1626 468 1626 468 1443.5 308 c 128,-1,17
 1261 148 1261 148 937 126 c 1,18,-1
 937 0 l 1,19,-1
 774 0 l 1,20,-1
 774 128 l 1,21,22
 451 156 451 156 276 317.5 c 128,-1,23
 101 479 101 479 101 745 c 128,-1,24
 101 1011 101 1011 276 1172.5 c 128,-1,25
 451 1334 451 1334 774 1362 c 1,26,-1
 774 1496 l 1,27,-1
 937 1496 l 1,12,-1
EndSplineSet
EndChar

StartChar: afii10040
Encoding: 1062 1062 482
Width: 1488
GlyphClass: 2
Flags: HW
LayerCount: 2
Fore
SplineSet
1139 155 m 1,0,-1
 1139 1496 l 1,1,-1
 1316 1496 l 1,2,-1
 1316 155 l 1,3,-1
 1432 155 l 1,4,-1
 1432 -265 l 1,5,-1
 1257 -265 l 1,6,-1
 1257 0 l 1,7,-1
 147 0 l 1,8,-1
 147 1496 l 1,9,-1
 324 1496 l 1,10,-1
 324 155 l 1,11,-1
 1139 155 l 1,0,-1
EndSplineSet
EndChar

StartChar: afii10041
Encoding: 1063 1063 483
Width: 1238
GlyphClass: 2
Flags: HW
LayerCount: 2
Fore
SplineSet
915 873 m 2,0,-1
 915 1496 l 1,1,-1
 1092 1496 l 1,2,-1
 1092 0 l 1,3,-1
 915 0 l 1,4,-1
 915 682 l 1,5,6
 858 598 858 598 753.5 552.5 c 128,-1,7
 649 507 649 507 538 507 c 0,8,9
 346 507 346 507 234.5 614 c 128,-1,10
 123 721 123 721 123 916 c 2,11,-1
 123 1496 l 1,12,-1
 300 1496 l 1,13,-1
 300 1014 l 2,14,15
 300 836 300 836 367.5 754 c 128,-1,16
 435 672 435 672 575 672 c 0,17,18
 643 672 643 672 725 708 c 128,-1,19
 807 744 807 744 861 792 c 128,-1,20
 915 840 915 840 915 873 c 2,0,-1
EndSplineSet
EndChar

StartChar: uni0428
Encoding: 1064 1064 484
Width: 1671
GlyphClass: 2
Flags: HW
LayerCount: 2
Fore
SplineSet
324 155 m 1,0,-1
 746 155 l 1,1,-1
 746 1496 l 1,2,-1
 923 1496 l 1,3,-1
 923 155 l 1,4,-1
 1347 155 l 1,5,-1
 1347 1496 l 1,6,-1
 1524 1496 l 1,7,-1
 1524 0 l 1,8,-1
 147 0 l 1,9,-1
 147 1496 l 1,10,-1
 324 1496 l 1,11,-1
 324 155 l 1,0,-1
EndSplineSet
EndChar

StartChar: afii10043
Encoding: 1065 1065 485
Width: 1735
GlyphClass: 2
Flags: HW
LayerCount: 2
Fore
SplineSet
1462 -265 m 1,0,-1
 1462 0 l 1,1,-1
 147 0 l 1,2,-1
 147 1496 l 1,3,-1
 324 1496 l 1,4,-1
 324 155 l 1,5,-1
 747 155 l 1,6,-1
 747 1496 l 1,7,-1
 924 1496 l 1,8,-1
 924 155 l 1,9,-1
 1348 155 l 1,10,-1
 1348 1496 l 1,11,-1
 1525 1496 l 1,12,-1
 1525 155 l 1,13,-1
 1639 155 l 1,14,-1
 1639 -265 l 1,15,-1
 1462 -265 l 1,0,-1
EndSplineSet
EndChar

StartChar: uni042A
Encoding: 1066 1066 486
Width: 1424
GlyphClass: 2
Flags: HW
LayerCount: 2
Fore
SplineSet
1181 431 m 0,0,1
 1181 696 1181 696 828 696 c 2,2,-1
 597 696 l 1,3,-1
 597 156 l 1,4,-1
 828 156 l 2,5,6
 1181 156 1181 156 1181 431 c 0,0,1
420 0 m 1,7,-1
 420 1341 l 1,8,-1
 35 1341 l 1,9,-1
 35 1496 l 1,10,-1
 597 1496 l 1,11,-1
 597 849 l 1,12,-1
 807 849 l 2,13,14
 1347 849 1347 849 1347 428 c 0,15,16
 1347 214 1347 214 1208 107 c 128,-1,17
 1069 0 1069 0 807 0 c 2,18,-1
 420 0 l 1,7,-1
EndSplineSet
EndChar

StartChar: uni042B
Encoding: 1067 1067 487
Width: 1583
GlyphClass: 2
Flags: HW
LayerCount: 2
Fore
SplineSet
324 696 m 1,0,-1
 324 155 l 1,1,-1
 487 155 l 2,2,3
 674 155 674 155 766 226 c 128,-1,4
 858 297 858 297 858 431 c 0,5,6
 858 696 858 696 480 696 c 2,7,-1
 324 696 l 1,0,-1
324 1496 m 1,8,-1
 324 849 l 1,9,-1
 460 849 l 2,10,11
 721 849 721 849 873 741.5 c 128,-1,12
 1025 634 1025 634 1025 433.5 c 128,-1,13
 1025 233 1025 233 883 116.5 c 128,-1,14
 741 0 741 0 467 0 c 2,15,-1
 147 0 l 1,16,-1
 147 1496 l 1,17,-1
 324 1496 l 1,8,-1
1436 1496 m 1,18,-1
 1436 0 l 1,19,-1
 1259 0 l 1,20,-1
 1259 1496 l 1,21,-1
 1436 1496 l 1,18,-1
EndSplineSet
EndChar

StartChar: uni042C
Encoding: 1068 1068 488
Width: 1144
GlyphClass: 2
Flags: HW
LayerCount: 2
Fore
SplineSet
324 696 m 1,0,-1
 324 155 l 1,1,-1
 487 155 l 2,2,3
 674 155 674 155 766 226 c 128,-1,4
 858 297 858 297 858 431 c 0,5,6
 858 696 858 696 480 696 c 2,7,-1
 324 696 l 1,0,-1
324 1496 m 1,8,-1
 324 849 l 1,9,-1
 460 849 l 2,10,11
 721 849 721 849 873 741.5 c 128,-1,12
 1025 634 1025 634 1025 433.5 c 128,-1,13
 1025 233 1025 233 883 116.5 c 128,-1,14
 741 0 741 0 467 0 c 2,15,-1
 147 0 l 1,16,-1
 147 1496 l 1,17,-1
 324 1496 l 1,8,-1
EndSplineSet
EndChar

StartChar: afii10047
Encoding: 1069 1069 489
Width: 1325
GlyphClass: 2
Flags: HW
LayerCount: 2
Fore
SplineSet
520 -23 m 0,0,1
 239 -23 239 -23 72 113 c 1,2,-1
 136 248 l 1,3,4
 203 196 203 196 302.5 162.5 c 128,-1,5
 402 129 402 129 515 129 c 128,-1,6
 628 129 628 129 723 171 c 0,7,8
 818 212 818 212 881 286 c 0,9,10
 1009 435 1009 435 1031 664 c 1,11,-1
 342 664 l 1,12,-1
 342 818 l 1,13,-1
 1033 818 l 1,14,15
 1014 1115 1014 1115 842 1262 c 0,16,17
 712 1373 712 1373 500 1373 c 0,18,19
 394 1373 394 1373 298 1338.5 c 128,-1,20
 202 1304 202 1304 135 1250 c 1,21,-1
 77 1395 l 1,22,23
 226 1525 226 1525 523 1525 c 0,24,25
 922 1525 922 1525 1110 1210 c 0,26,27
 1224 1021 1224 1021 1224 757 c 0,28,29
 1224 420 1224 420 1046 202 c 0,30,31
 960 96 960 96 824.5 36.5 c 128,-1,32
 689 -23 689 -23 520 -23 c 0,0,1
EndSplineSet
EndChar

StartChar: uni042E
Encoding: 1070 1070 490
Width: 2042
GlyphClass: 2
Flags: HW
LayerCount: 2
Fore
SplineSet
1284 1373 m 0,0,1
 1192 1373 1192 1373 1116.5 1339 c 128,-1,2
 1041 1305 1041 1305 988 1246.5 c 0,3,4
 936 1188 936 1188 898 1108 c 0,5,6
 826 953 826 953 825 746 c 0,7,8
 826 494 826 494 942 316 c 0,9,10
 998 230 998 230 1088 179.5 c 128,-1,11
 1178 129 1178 129 1290.5 129 c 128,-1,12
 1403 129 1403 129 1492.5 178.5 c 128,-1,13
 1582 228 1582 228 1638 314 c 0,14,15
 1752 489 1752 489 1752 748 c 0,16,17
 1752 1062 1752 1062 1586 1244 c 0,18,19
 1468 1372 1468 1372 1284 1373 c 0,0,1
1567 37.5 m 128,-1,21
 1442 -23 1442 -23 1293 -23 c 128,-1,22
 1144 -23 1144 -23 1024.5 32.5 c 0,23,24
 904 88 904 88 824 185 c 0,25,26
 659 384 659 384 637 686 c 1,27,-1
 324 686 l 1,28,-1
 324 0 l 1,29,-1
 147 0 l 1,30,-1
 147 1495 l 1,31,-1
 324 1495 l 1,32,-1
 324 837 l 1,33,-1
 640 837 l 1,34,35
 672 1262 672 1262 950 1436 c 0,36,37
 1090 1524 1090 1524 1262 1524.5 c 128,-1,38
 1434 1525 1434 1525 1559.5 1465.5 c 128,-1,39
 1685 1406 1685 1406 1768 1301 c 0,40,41
 1941 1082 1941 1082 1941 742 c 0,42,43
 1941 418 1941 418 1773 202 c 0,44,20
 1692 98 1692 98 1567 37.5 c 128,-1,21
EndSplineSet
EndChar

StartChar: uni042F
Encoding: 1071 1071 491
Width: 1305
GlyphClass: 2
Flags: HW
LayerCount: 2
Fore
SplineSet
631 792 m 2,0,-1
 981 792 l 1,1,-1
 981 1341 l 1,2,-1
 631 1341 l 2,3,4
 445 1341 445 1341 358.5 1274 c 128,-1,5
 272 1207 272 1207 272 1072 c 0,6,7
 272 862 272 862 456 812 c 0,8,9
 528 792 528 792 631 792 c 2,0,-1
981 0 m 1,10,-1
 981 639 l 1,11,-1
 796 639 l 2,12,13
 671 639 671 639 554 648 c 1,14,-1
 241 0 l 1,15,-1
 38 0 l 1,16,17
 103 142 103 142 310 549 c 1,18,-1
 376 681 l 1,19,20
 247 730 247 730 174.5 831 c 128,-1,21
 102 932 102 932 102 1074 c 0,22,23
 102 1496 102 1496 672 1496 c 2,24,-1
 1158 1496 l 1,25,-1
 1158 0 l 1,26,-1
 981 0 l 1,10,-1
EndSplineSet
EndChar

StartChar: afii10066
Encoding: 1073 1073 493
Width: 1015
GlyphClass: 2
Flags: HW
LayerCount: 2
Fore
SplineSet
115 1098 m 1,0,-1
 844 1098 l 1,1,-1
 844 956 l 1,2,-1
 283 956 l 1,3,-1
 283 715 l 1,4,-1
 565 715 l 2,5,6
 755 715 755 715 855 614.5 c 128,-1,7
 955 514 955 514 955 368 c 0,8,9
 956 226 956 226 862 117 c 0,10,11
 816 64 816 64 739 32 c 128,-1,12
 662 0 662 0 565 0 c 2,13,-1
 115 0 l 1,14,-1
 115 1098 l 1,0,-1
583 579 m 2,15,-1
 283 579 l 1,16,-1
 283 134 l 1,17,-1
 583 134 l 2,18,19
 646 134 646 134 696 173 c 0,20,21
 794 250 794 250 793 371 c 0,22,23
 793 451 793 451 735 515 c 128,-1,24
 677 579 677 579 583 579 c 2,15,-1
EndSplineSet
EndChar

StartChar: afii10067
Encoding: 1074 1074 494
Width: 1033
GlyphClass: 2
Flags: HW
LayerCount: 2
Fore
SplineSet
283 637 m 1,0,-1
 576 637 l 2,1,2
 670 637 670 637 722 685 c 128,-1,3
 774 733 774 733 774 800 c 128,-1,4
 774 867 774 867 723 911.5 c 128,-1,5
 672 956 672 956 576 956 c 2,6,-1
 283 956 l 1,7,-1
 283 637 l 1,0,-1
576 500 m 2,8,-1
 283 500 l 1,9,-1
 283 134 l 1,10,-1
 576 134 l 2,11,12
 685 134 685 134 746 186.5 c 128,-1,13
 807 239 807 239 807 326 c 1,14,15
 803 395 803 395 741.5 447.5 c 128,-1,16
 680 500 680 500 576 500 c 2,8,-1
968 316 m 1,17,18
 968 182 968 182 865.5 91 c 128,-1,19
 763 0 763 0 567 0 c 2,20,-1
 115 0 l 1,21,-1
 115 1098 l 1,22,-1
 567 1098 l 2,23,24
 749 1098 749 1098 841.5 1014 c 128,-1,25
 934 930 934 930 934 808 c 0,26,27
 934 736 934 736 897.5 673.5 c 128,-1,28
 861 611 861 611 788 575 c 1,29,30
 873 539 873 539 918.5 467 c 128,-1,31
 964 395 964 395 968 316 c 1,17,18
EndSplineSet
EndChar

StartChar: uni0433
Encoding: 1075 1075 495
Width: 666
GlyphClass: 2
Flags: HW
LayerCount: 2
Fore
SplineSet
649 956 m 1,0,-1
 283 956 l 1,1,-1
 283 0 l 1,2,-1
 115 0 l 1,3,-1
 115 1098 l 1,4,-1
 649 1098 l 1,5,-1
 649 956 l 1,0,-1
EndSplineSet
EndChar

StartChar: uni0434
Encoding: 1076 1076 496
Width: 1104
GlyphClass: 2
Flags: HW
LayerCount: 2
Fore
SplineSet
294 134 m 1,0,-1
 781 134 l 1,1,-1
 781 956 l 1,2,-1
 409 956 l 1,3,-1
 397 634 l 1,4,5
 353 373 353 373 294 134 c 1,0,-1
168 0 m 1,6,-1
 168 -268 l 1,7,-1
 10 -268 l 1,8,-1
 10 136 l 1,9,-1
 106 136 l 1,10,11
 202 252 202 252 222 581 c 2,12,-1
 254 1098 l 1,13,-1
 949 1098 l 1,14,-1
 949 134 l 1,15,-1
 1036 134 l 1,16,-1
 1036 -268 l 1,17,-1
 873 -268 l 1,18,-1
 873 0 l 1,19,-1
 168 0 l 1,6,-1
EndSplineSet
EndChar

StartChar: afii10072
Encoding: 1078 1078 498
Width: 1506
GlyphClass: 2
Flags: HW
LayerCount: 2
Fore
SplineSet
671 593 m 1,0,-1
 671 1098 l 1,1,-1
 836 1098 l 1,2,-1
 836 593 l 1,3,-1
 1281 1098 l 1,4,-1
 1480 1098 l 1,5,-1
 988 562 l 1,6,-1
 1490 0 l 1,7,-1
 1287 0 l 1,8,-1
 836 509 l 1,9,-1
 836 0 l 1,10,-1
 671 0 l 1,11,-1
 671 509 l 1,12,-1
 220 0 l 1,13,-1
 17 0 l 1,14,-1
 519 562 l 1,15,-1
 27 1098 l 1,16,-1
 226 1098 l 1,17,-1
 671 593 l 1,0,-1
EndSplineSet
EndChar

StartChar: afii10073
Encoding: 1079 1079 499
Width: 956
GlyphClass: 2
Flags: HW
LayerCount: 2
Fore
SplineSet
70 1013 m 1,0,1
 177 1124 177 1124 427 1124 c 0,2,3
 730 1124 730 1124 812 932 c 0,4,5
 834 880 834 880 835 808 c 0,6,7
 835 640 835 640 668 574 c 1,8,9
 860 521 860 521 870 311 c 1,10,11
 870 170 870 170 767 76 c 0,12,13
 657 -25 657 -25 424 -25 c 0,14,15
 319 -25 319 -25 221.5 2.5 c 128,-1,16
 124 30 124 30 70 86 c 1,17,18
 80 107 80 107 99 141.5 c 128,-1,19
 118 176 118 176 128 201 c 1,20,21
 232 114 232 114 436 114 c 0,22,23
 566 114 566 114 636 171 c 128,-1,24
 706 228 706 228 706 310 c 128,-1,25
 706 392 706 392 646.5 447 c 128,-1,26
 587 502 587 502 478 502 c 2,27,-1
 284 502 l 1,28,-1
 284 633 l 1,29,-1
 478 633 l 2,30,31
 573 633 573 633 622.5 685.5 c 128,-1,32
 672 738 672 738 672 812.5 c 128,-1,33
 672 887 672 887 610.5 936.5 c 128,-1,34
 549 986 549 986 444 986 c 128,-1,35
 339 986 339 986 252.5 956.5 c 128,-1,36
 166 927 166 927 128 890 c 1,37,38
 85 978 85 978 70 1013 c 1,0,1
EndSplineSet
EndChar

StartChar: uni0438
Encoding: 1080 1080 500
Width: 1117
GlyphClass: 2
Flags: HW
LayerCount: 2
Fore
SplineSet
1002 0 m 1,0,-1
 834 0 l 1,1,-1
 834 746 l 1,2,-1
 273 0 l 1,3,-1
 115 0 l 1,4,-1
 115 1098 l 1,5,-1
 283 1098 l 1,6,-1
 283 261 l 1,7,-1
 834 995 l 1,8,-1
 834 1098 l 1,9,-1
 1002 1098 l 1,10,-1
 1002 0 l 1,0,-1
EndSplineSet
EndChar

StartChar: afii10076
Encoding: 1082 1082 502
Width: 997
GlyphClass: 2
Flags: HW
LayerCount: 2
Fore
SplineSet
283 605 m 1,0,-1
 485 834 l 2,1,2
 507 859 507 859 544 901.5 c 128,-1,3
 581 944 581 944 596 960.5 c 128,-1,4
 611 977 611 977 638.5 1006.5 c 128,-1,5
 666 1036 666 1036 680 1046.5 c 128,-1,6
 694 1057 694 1057 718 1073.5 c 128,-1,7
 742 1090 742 1090 761 1096 c 0,8,9
 811 1110 811 1110 843 1110 c 128,-1,10
 875 1110 875 1110 937 1098 c 1,11,-1
 937 947 l 1,12,13
 876 956 876 956 865 956 c 0,14,15
 822 956 822 956 778 918 c 128,-1,16
 734 880 734 880 656.5 788 c 128,-1,17
 579 696 579 696 524 642 c 2,18,-1
 423 542 l 1,19,-1
 990 0 l 1,20,-1
 763 0 l 1,21,-1
 283 474 l 1,22,-1
 283 0 l 1,23,-1
 115 0 l 1,24,-1
 115 1098 l 1,25,-1
 283 1098 l 1,26,-1
 283 605 l 1,0,-1
EndSplineSet
EndChar

StartChar: uni043B
Encoding: 1083 1083 503
Width: 1172
GlyphClass: 2
Flags: HW
LayerCount: 2
Fore
SplineSet
202 1098 m 1,0,-1
 1057 1098 l 1,1,-1
 1057 0 l 1,2,-1
 889 0 l 1,3,-1
 889 956 l 1,4,-1
 370 956 l 1,5,-1
 370 419 l 2,6,7
 370 186 370 186 357.5 147 c 128,-1,8
 345 108 345 108 330 75 c 128,-1,9
 315 42 315 42 293 28 c 128,-1,10
 271 14 271 14 238 -1 c 0,11,12
 185 -25 185 -25 61 -25 c 2,13,-1
 24 -25 l 1,14,-1
 14 128 l 1,15,-1
 61 128 l 2,16,17
 119 128 119 128 138 139 c 128,-1,18
 157 150 157 150 167 157.5 c 128,-1,19
 177 165 177 165 184 185.5 c 128,-1,20
 191 206 191 206 194.5 221 c 128,-1,21
 198 236 198 236 200 271 c 0,22,23
 202 329 202 329 202 409 c 2,24,-1
 202 1098 l 1,0,-1
EndSplineSet
EndChar

StartChar: uni043C
Encoding: 1084 1084 504
Width: 1178
GlyphClass: 2
Flags: HW
LayerCount: 2
Fore
SplineSet
648 385 m 1,0,-1
 541 385 l 1,1,-1
 282 811 l 1,2,-1
 282 0 l 1,3,-1
 114 0 l 1,4,-1
 114 1098 l 1,5,-1
 262 1098 l 1,6,-1
 588 583 l 1,7,-1
 916 1098 l 1,8,-1
 1063 1098 l 1,9,-1
 1063 0 l 1,10,-1
 895 0 l 1,11,-1
 895 811 l 1,12,-1
 648 385 l 1,0,-1
EndSplineSet
EndChar

StartChar: uni043D
Encoding: 1085 1085 505
Width: 1117
GlyphClass: 2
Flags: HW
LayerCount: 2
Fore
SplineSet
115 1098 m 1,0,-1
 283 1098 l 1,1,-1
 283 653 l 1,2,-1
 834 653 l 1,3,-1
 834 1098 l 1,4,-1
 1002 1098 l 1,5,-1
 1002 0 l 1,6,-1
 834 0 l 1,7,-1
 834 518 l 1,8,-1
 283 518 l 1,9,-1
 283 0 l 1,10,-1
 115 0 l 1,11,-1
 115 1098 l 1,0,-1
EndSplineSet
EndChar

StartChar: uni043F
Encoding: 1087 1087 507
Width: 1194
GlyphClass: 2
Flags: HW
LayerCount: 2
Fore
SplineSet
152 1098 m 1,0,-1
 1039 1098 l 1,1,-1
 1039 0 l 1,2,-1
 871 0 l 1,3,-1
 871 956 l 1,4,-1
 320 956 l 1,5,-1
 320 0 l 1,6,-1
 152 0 l 1,7,-1
 152 1098 l 1,0,-1
EndSplineSet
EndChar

StartChar: uni0442
Encoding: 1090 1090 510
Width: 847
GlyphClass: 2
Flags: HW
LayerCount: 2
Fore
SplineSet
43 1098 m 1,0,-1
 805 1098 l 1,1,-1
 805 956 l 1,2,-1
 512 956 l 1,3,-1
 512 0 l 1,4,-1
 344 0 l 1,5,-1
 344 956 l 1,6,-1
 43 956 l 1,7,-1
 43 1098 l 1,0,-1
EndSplineSet
EndChar

StartChar: uni0443
Encoding: 1091 1091 511
Width: 1095
GlyphClass: 2
Flags: HW
LayerCount: 2
Fore
SplineSet
551 202 m 1,0,-1
 856 1098 l 1,1,-1
 1039 1098 l 1,2,-1
 650 22 l 2,3,4
 638 -12 638 -12 614 -81.5 c 128,-1,5
 590 -151 590 -151 576.5 -185.5 c 128,-1,6
 563 -220 563 -220 537 -268.5 c 128,-1,7
 511 -317 511 -317 485 -335.5 c 0,8,9
 460 -354 460 -354 416 -376 c 0,10,11
 349 -410 349 -410 176 -410 c 2,12,-1
 119 -410 l 1,13,-1
 93 -245 l 1,14,-1
 166 -245 l 2,15,16
 269 -245 269 -245 304 -231 c 128,-1,17
 339 -217 339 -217 354 -202.5 c 128,-1,18
 369 -188 369 -188 385 -158 c 0,19,20
 412 -106 412 -106 453 30 c 1,21,-1
 44 1098 l 1,22,-1
 229 1098 l 1,23,-1
 551 202 l 1,0,-1
EndSplineSet
EndChar

StartChar: uni0444
Encoding: 1092 1092 512
Width: 1409
GlyphClass: 2
Flags: HW
LayerCount: 2
Fore
SplineSet
363 224 m 0,0,1
 415 168 415 168 487 168 c 128,-1,2
 559 168 559 168 620 196 c 1,3,-1
 620 906 l 1,4,5
 563 934 563 934 487.5 934 c 128,-1,6
 412 934 412 934 361 880 c 0,7,8
 260 774 260 774 260 556 c 0,9,10
 260 336 260 336 363 224 c 0,0,1
1046.5 880.5 m 128,-1,12
 995 934 995 934 924 934 c 128,-1,13
 853 934 853 934 788 902 c 1,14,-1
 788 198 l 1,15,16
 846 168 846 168 924 168 c 0,17,18
 1025 168 1025 168 1087 284 c 128,-1,19
 1149 400 1149 400 1149 528.5 c 128,-1,20
 1149 657 1149 657 1123.5 742 c 128,-1,11
 1098 827 1098 827 1046.5 880.5 c 128,-1,12
620 1312 m 1,21,-1
 788 1312 l 1,22,-1
 788 1039 l 1,23,24
 865 1070 865 1070 927 1070 c 0,25,26
 1043 1070 1043 1070 1134 1001.5 c 128,-1,27
 1225 933 1225 933 1274 817 c 128,-1,28
 1323 701 1323 701 1323 558.5 c 128,-1,29
 1323 416 1323 416 1274 296.5 c 128,-1,30
 1225 177 1225 177 1133.5 104.5 c 128,-1,31
 1042 32 1042 32 946 32 c 128,-1,32
 850 32 850 32 788 57 c 1,33,-1
 788 -195 l 1,34,-1
 620 -195 l 1,35,-1
 620 57 l 1,36,37
 558 32 558 32 461.5 32 c 128,-1,38
 365 32 365 32 274 104 c 128,-1,39
 183 176 183 176 134.5 296 c 128,-1,40
 86 416 86 416 86 558 c 0,41,42
 86 777 86 777 195.5 923.5 c 128,-1,43
 305 1070 305 1070 480 1070 c 0,44,45
 543 1070 543 1070 620 1039 c 1,46,-1
 620 1312 l 1,21,-1
EndSplineSet
EndChar

StartChar: afii10088
Encoding: 1094 1094 514
Width: 1106
GlyphClass: 2
Flags: HW
LayerCount: 2
Fore
SplineSet
913 0 m 1,0,-1
 128 0 l 1,1,-1
 128 1098 l 1,2,-1
 296 1098 l 1,3,-1
 296 134 l 1,4,-1
 789 134 l 1,5,-1
 789 1098 l 1,6,-1
 957 1098 l 1,7,-1
 957 136 l 1,8,-1
 1056 136 l 1,9,-1
 1056 -269 l 1,10,-1
 923 -269 l 1,11,-1
 913 0 l 1,0,-1
EndSplineSet
EndChar

StartChar: uni0447
Encoding: 1095 1095 515
Width: 1030
GlyphClass: 2
Flags: HW
LayerCount: 2
Fore
SplineSet
242 862 m 2,0,1
 242 686 242 686 301 612 c 128,-1,2
 360 538 360 538 488 538 c 0,3,4
 577 538 577 538 650 594 c 128,-1,5
 723 650 723 650 747 753 c 1,6,-1
 747 1098 l 1,7,-1
 915 1098 l 1,8,-1
 915 0 l 1,9,-1
 747 0 l 1,10,-1
 747 548 l 1,11,12
 712 476 712 476 633.5 435.5 c 128,-1,13
 555 395 555 395 457 395 c 0,14,15
 269 395 269 395 171.5 514 c 128,-1,16
 74 633 74 633 74 844 c 2,17,-1
 74 1098 l 1,18,-1
 242 1098 l 1,19,-1
 242 862 l 2,0,1
EndSplineSet
EndChar

StartChar: uni0448
Encoding: 1096 1096 516
Width: 1322
GlyphClass: 2
Flags: HW
LayerCount: 2
Fore
SplineSet
283 144 m 1,0,-1
 577 144 l 1,1,-1
 577 1098 l 1,2,-1
 745 1098 l 1,3,-1
 745 144 l 1,4,-1
 1039 144 l 1,5,-1
 1039 1098 l 1,6,-1
 1207 1098 l 1,7,-1
 1207 0 l 1,8,-1
 115 0 l 1,9,-1
 115 1098 l 1,10,-1
 283 1098 l 1,11,-1
 283 144 l 1,0,-1
EndSplineSet
EndChar

StartChar: afii10091
Encoding: 1097 1097 517
Width: 1372
GlyphClass: 2
Flags: HW
LayerCount: 2
Fore
SplineSet
1170 -238 m 1,0,-1
 1170 0 l 1,1,-1
 115 0 l 1,2,-1
 115 1098 l 1,3,-1
 283 1098 l 1,4,-1
 283 134 l 1,5,-1
 577 134 l 1,6,-1
 577 1098 l 1,7,-1
 745 1098 l 1,8,-1
 745 134 l 1,9,-1
 1039 134 l 1,10,-1
 1039 1098 l 1,11,-1
 1207 1098 l 1,12,-1
 1207 134 l 1,13,-1
 1307 134 l 1,14,-1
 1307 -238 l 1,15,-1
 1170 -238 l 1,0,-1
EndSplineSet
EndChar

StartChar: uni044A
Encoding: 1098 1098 518
Width: 1152
GlyphClass: 2
Flags: HW
LayerCount: 2
Fore
SplineSet
740 520 m 2,0,-1
 429 520 l 1,1,-1
 429 134 l 1,2,-1
 746 134 l 2,3,4
 838 134 838 134 888 196.5 c 128,-1,5
 938 259 938 259 938 333 c 128,-1,6
 938 407 938 407 885.5 463.5 c 128,-1,7
 833 520 833 520 740 520 c 2,0,-1
429 1098 m 1,8,-1
 429 656 l 1,9,-1
 719 656 l 2,10,11
 907 656 907 656 1003.5 563.5 c 128,-1,12
 1100 471 1100 471 1100 337 c 0,13,14
 1100 200 1100 200 1014 104 c 0,15,16
 920 -1 920 -1 725 0 c 2,17,-1
 261 0 l 1,18,-1
 261 956 l 1,19,-1
 27 956 l 1,20,-1
 27 1098 l 1,21,-1
 429 1098 l 1,8,-1
EndSplineSet
EndChar

StartChar: afii10093
Encoding: 1099 1099 519
Width: 1322
GlyphClass: 2
Flags: HW
LayerCount: 2
Fore
SplineSet
532 562 m 2,0,-1
 283 562 l 1,1,-1
 283 134 l 1,2,-1
 539 134 l 2,3,4
 601 134 601 134 645 171 c 0,5,6
 725 238 725 238 725 361 c 0,7,8
 725 443 725 443 675 502.5 c 128,-1,9
 625 562 625 562 532 562 c 2,0,-1
283 1098 m 1,10,-1
 283 698 l 1,11,-1
 508 698 l 2,12,13
 787 698 787 698 865 488 c 0,14,15
 887 428 887 428 887 358 c 128,-1,16
 887 288 887 288 866 226 c 128,-1,17
 845 164 845 164 802 112 c 0,18,19
 709 0 709 0 515 0 c 2,20,-1
 115 0 l 1,21,-1
 115 1098 l 1,22,-1
 283 1098 l 1,10,-1
1207 1098 m 1,23,-1
 1207 0 l 1,24,-1
 1039 0 l 1,25,-1
 1039 1098 l 1,26,-1
 1207 1098 l 1,23,-1
EndSplineSet
EndChar

StartChar: afii10094
Encoding: 1100 1100 520
Width: 952
GlyphClass: 2
Flags: HW
LayerCount: 2
Fore
SplineSet
532 562 m 2,0,-1
 283 562 l 1,1,-1
 283 134 l 1,2,-1
 539 134 l 2,3,4
 601 134 601 134 645 171 c 0,5,6
 725 238 725 238 725 361 c 0,7,8
 725 443 725 443 675 502.5 c 128,-1,9
 625 562 625 562 532 562 c 2,0,-1
283 1098 m 1,10,-1
 283 698 l 1,11,-1
 508 698 l 2,12,13
 787 698 787 698 865 488 c 0,14,15
 887 428 887 428 887 358 c 128,-1,16
 887 288 887 288 866 226 c 128,-1,17
 845 164 845 164 802 112 c 0,18,19
 709 0 709 0 515 0 c 2,20,-1
 115 0 l 1,21,-1
 115 1098 l 1,22,-1
 283 1098 l 1,10,-1
EndSplineSet
EndChar

StartChar: afii10095
Encoding: 1101 1101 521
Width: 1002
GlyphClass: 2
Flags: HW
LayerCount: 2
Fore
SplineSet
613 22 m 0,0,1
 509 -25 509 -25 393 -25 c 0,2,3
 163 -25 163 -25 55 70 c 1,4,-1
 101 195 l 1,5,6
 236 113 236 113 380 113 c 128,-1,7
 524 113 524 113 622.5 211.5 c 128,-1,8
 721 310 721 310 738 477 c 1,9,-1
 275 477 l 1,10,-1
 275 619 l 1,11,-1
 738 619 l 1,12,13
 721 790 721 790 627.5 888 c 128,-1,14
 534 986 534 986 382.5 986 c 128,-1,15
 231 986 231 986 100 902 c 1,16,-1
 54 1024 l 1,17,18
 110 1073 110 1073 197.5 1098.5 c 128,-1,19
 285 1124 285 1124 397.5 1124 c 128,-1,20
 510 1124 510 1124 614.5 1077 c 0,21,22
 720 1030 720 1030 784 950 c 0,23,24
 916 786 916 786 915 545 c 0,25,26
 916 315 916 315 782 149 c 0,27,28
 718 69 718 69 613 22 c 0,0,1
EndSplineSet
EndChar

StartChar: uni044E
Encoding: 1102 1102 522
Width: 1468
GlyphClass: 2
Flags: HW
LayerCount: 2
Fore
SplineSet
926 113 m 0,0,1
 1004 113 1004 113 1061 148.5 c 128,-1,2
 1118 184 1118 184 1148 247 c 0,3,4
 1206 368 1206 368 1207 547 c 0,5,6
 1207 986 1207 986 923 986 c 0,7,8
 766 986 766 986 694 848 c 0,9,10
 628 724 628 724 629 544 c 0,11,12
 628 367 628 367 694 246 c 0,13,14
 766 113 766 113 926 113 c 0,0,1
1381 539 m 0,15,16
 1381 431 1381 431 1355 330.5 c 128,-1,17
 1329 230 1329 230 1276 149 c 128,-1,18
 1223 68 1223 68 1132.5 21.5 c 128,-1,19
 1042 -25 1042 -25 926.5 -25 c 128,-1,20
 811 -25 811 -25 724 13.5 c 128,-1,21
 637 52 637 52 582 121 c 0,22,23
 472 259 472 259 458 478 c 1,24,-1
 283 478 l 1,25,-1
 283 0 l 1,26,-1
 115 0 l 1,27,-1
 115 1098 l 1,28,-1
 283 1098 l 1,29,-1
 283 618 l 1,30,-1
 458 618 l 1,31,32
 474 838 474 838 584 976 c 0,33,34
 701 1124 701 1124 926 1124 c 0,35,36
 1208 1124 1208 1124 1317 888 c 0,37,38
 1381 750 1381 750 1381 539 c 0,15,16
EndSplineSet
EndChar

StartChar: afii10097
Encoding: 1103 1103 523
Width: 1045
GlyphClass: 2
Flags: HW
LayerCount: 2
Fore
SplineSet
444 579 m 2,0,-1
 762 579 l 1,1,-1
 762 956 l 1,2,-1
 444 956 l 2,3,4
 350 956 350 956 294 896.5 c 128,-1,5
 238 837 238 837 238 765 c 128,-1,6
 238 693 238 693 294 636 c 128,-1,7
 350 579 350 579 444 579 c 2,0,-1
762 0 m 1,8,-1
 762 439 l 1,9,-1
 475 439 l 1,10,-1
 274 0 l 1,11,-1
 74 0 l 1,12,-1
 302 459 l 1,13,14
 191 493 191 493 132.5 576.5 c 128,-1,15
 74 660 74 660 74 744 c 128,-1,16
 74 828 74 828 96.5 887 c 128,-1,17
 119 946 119 946 163 994 c 0,18,19
 258 1098 258 1098 455 1098 c 2,20,-1
 930 1098 l 1,21,-1
 930 0 l 1,22,-1
 762 0 l 1,8,-1
EndSplineSet
EndChar

StartChar: afii10099
Encoding: 1106 1106 526
Width: 1113
GlyphClass: 2
Flags: HW
LayerCount: 2
Fore
SplineSet
283 495 m 1,0,-1
 283 0 l 1,1,-1
 115 0 l 1,2,-1
 115 1098 l 1,3,-1
 21 1098 l 1,4,-1
 21 1214 l 1,5,-1
 115 1214 l 1,6,-1
 115 1510 l 1,7,-1
 283 1510 l 1,8,-1
 283 1214 l 1,9,-1
 698 1214 l 1,10,-1
 698 1098 l 1,11,-1
 283 1098 l 1,12,-1
 283 713 l 1,13,14
 425 892 425 892 636 892 c 0,15,16
 1008 892 1008 892 1008 445 c 2,17,-1
 1008 158 l 2,18,19
 1008 -49 1008 -49 991.5 -97.5 c 128,-1,20
 975 -146 975 -146 959 -176.5 c 128,-1,21
 943 -207 943 -207 919.5 -224.5 c 128,-1,22
 896 -242 896 -242 863 -256 c 0,23,24
 803 -282 803 -282 688 -283 c 2,25,-1
 617 -283 l 1,26,-1
 605 -141 l 1,27,-1
 648 -141 l 2,28,29
 738 -141 738 -141 767.5 -127.5 c 128,-1,30
 797 -114 797 -114 808.5 -99 c 128,-1,31
 820 -84 820 -84 828 -54 c 0,32,33
 840 -9 840 -9 840 104 c 2,34,-1
 840 368 l 2,35,36
 840 610 840 610 778 680 c 0,37,38
 726 738 726 738 613 738.5 c 128,-1,39
 500 739 500 739 403 660.5 c 128,-1,40
 306 582 306 582 283 495 c 1,0,-1
EndSplineSet
EndChar

StartChar: afii10101
Encoding: 1108 1108 528
Width: 1002
GlyphClass: 2
Flags: HW
LayerCount: 2
Fore
SplineSet
914 70 m 1,0,1
 806 -25 806 -25 589 -25 c 0,2,3
 460 -25 460 -25 356 22 c 128,-1,4
 252 69 252 69 188 149 c 0,5,6
 54 315 54 315 54 545 c 0,7,8
 54 786 54 786 186 950 c 0,9,10
 250 1030 250 1030 354.5 1077 c 0,11,12
 460 1124 460 1124 572 1124 c 0,13,14
 801 1124 801 1124 915 1024 c 1,15,-1
 869 902 l 1,16,17
 738 986 738 986 586.5 986 c 128,-1,18
 435 986 435 986 341.5 888 c 128,-1,19
 248 790 248 790 231 619 c 1,20,-1
 694 619 l 1,21,-1
 694 477 l 1,22,-1
 231 477 l 1,23,24
 248 310 248 310 346.5 211.5 c 128,-1,25
 445 113 445 113 589 113 c 128,-1,26
 733 113 733 113 868 195 c 1,27,-1
 914 70 l 1,0,1
EndSplineSet
EndChar

StartChar: uni0456
Encoding: 1110 1110 530
Width: 489
GlyphClass: 2
Flags: HW
LayerCount: 2
Fore
SplineSet
329 1490 m 1,0,-1
 329 1292 l 1,1,-1
 160 1292 l 1,2,-1
 160 1490 l 1,3,-1
 329 1490 l 1,0,-1
329 1098 m 1,4,-1
 329 0 l 1,5,-1
 160 0 l 1,6,-1
 160 1098 l 1,7,-1
 329 1098 l 1,4,-1
EndSplineSet
EndChar

StartChar: afii10106
Encoding: 1113 1113 533
Width: 952
GlyphClass: 2
Flags: HW
LayerCount: 2
Fore
SplineSet
316 409 m 2,0,-1
 316 1098 l 1,1,-1
 1123 1098 l 1,2,-1
 1123 698 l 1,3,-1
 1334 698 l 2,4,5
 1613 698 1613 698 1691 488 c 0,6,7
 1713 428 1713 428 1713 358 c 128,-1,8
 1713 288 1713 288 1692 226 c 128,-1,9
 1671 164 1671 164 1628 112 c 0,10,11
 1535 0 1535 0 1341 0 c 2,12,-1
 955 0 l 1,13,-1
 955 956 l 1,14,-1
 484 956 l 1,15,-1
 484 419 l 2,16,17
 484 186 484 186 471.5 147 c 128,-1,18
 459 108 459 108 444 75 c 128,-1,19
 429 42 429 42 407 28 c 128,-1,20
 385 14 385 14 352 -1 c 0,21,22
 299 -25 299 -25 175 -25 c 2,23,-1
 138 -25 l 1,24,-1
 128 128 l 1,25,-1
 175 128 l 2,26,27
 233 128 233 128 252 139 c 128,-1,28
 271 150 271 150 281 157.5 c 128,-1,29
 291 165 291 165 298 185.5 c 128,-1,30
 305 206 305 206 308.5 221 c 128,-1,31
 312 236 312 236 314 271 c 0,32,33
 316 329 316 329 316 409 c 2,0,-1
1123 562 m 1,34,-1
 1123 134 l 1,35,-1
 1365 134 l 2,36,37
 1427 134 1427 134 1471 171 c 0,38,39
 1551 238 1551 238 1551 361 c 0,40,41
 1551 443 1551 443 1501 502.5 c 128,-1,42
 1451 562 1451 562 1358 562 c 2,43,-1
 1123 562 l 1,34,-1
EndSplineSet
EndChar

StartChar: afii10107
Encoding: 1114 1114 534
Width: 1621
GlyphClass: 2
Flags: HW
LayerCount: 2
Fore
SplineSet
115 1098 m 1,0,-1
 283 1098 l 1,1,-1
 283 653 l 1,2,-1
 765 653 l 1,3,-1
 765 1098 l 1,4,-1
 933 1098 l 1,5,-1
 933 698 l 1,6,-1
 1140 698 l 2,7,8
 1419 698 1419 698 1497 488 c 0,9,10
 1519 428 1519 428 1519 358 c 128,-1,11
 1519 288 1519 288 1498 226 c 128,-1,12
 1477 164 1477 164 1434 112 c 0,13,14
 1341 0 1341 0 1147 0 c 2,15,-1
 765 0 l 1,16,-1
 765 518 l 1,17,-1
 283 518 l 1,18,-1
 283 0 l 1,19,-1
 115 0 l 1,20,-1
 115 1098 l 1,0,-1
933 562 m 1,21,-1
 933 134 l 1,22,-1
 1171 134 l 2,23,24
 1233 134 1233 134 1277 171 c 0,25,26
 1357 238 1357 238 1357 361 c 0,27,28
 1357 443 1357 443 1307 502.5 c 128,-1,29
 1257 562 1257 562 1164 562 c 2,30,-1
 933 562 l 1,21,-1
EndSplineSet
EndChar

StartChar: afii10108
Encoding: 1115 1115 535
Width: 1113
GlyphClass: 2
Flags: HW
LayerCount: 2
Fore
SplineSet
283 495 m 1,0,-1
 283 0 l 1,1,-1
 115 0 l 1,2,-1
 115 1099 l 1,3,-1
 21 1099 l 1,4,-1
 21 1215 l 1,5,-1
 115 1215 l 1,6,-1
 115 1510 l 1,7,-1
 283 1510 l 1,8,-1
 283 1215 l 1,9,-1
 698 1215 l 1,10,-1
 698 1099 l 1,11,-1
 283 1099 l 1,12,-1
 283 713 l 1,13,14
 425 892 425 892 636 892 c 0,15,16
 1008 892 1008 892 1008 445 c 2,17,-1
 1008 0 l 1,18,-1
 840 0 l 1,19,-1
 840 368 l 2,20,21
 840 610 840 610 778 680 c 0,22,23
 726 738 726 738 613 738.5 c 128,-1,24
 500 739 500 739 403 660.5 c 128,-1,25
 306 582 306 582 283 495 c 1,0,-1
EndSplineSet
EndChar

StartChar: afii10193
Encoding: 1119 1119 538
Width: 1106
GlyphClass: 2
Flags: HW
LayerCount: 2
Fore
SplineSet
488 0 m 1,0,-1
 115 0 l 1,1,-1
 115 1098 l 1,2,-1
 283 1098 l 1,3,-1
 283 134 l 1,4,-1
 789 134 l 1,5,-1
 789 1098 l 1,6,-1
 957 1098 l 1,7,-1
 957 0 l 1,8,-1
 636 0 l 1,9,-1
 629 -278 l 1,10,-1
 493 -278 l 1,11,-1
 488 0 l 1,0,-1
EndSplineSet
EndChar

StartChar: endash
Encoding: 8211 8211 565
Width: 1317
GlyphClass: 2
Flags: HW
LayerCount: 2
Fore
SplineSet
1186 675 m 1,0,-1
 1186 527 l 1,1,-1
 139 527 l 1,2,-1
 139 675 l 1,3,-1
 1186 675 l 1,0,-1
EndSplineSet
EndChar

StartChar: emdash
Encoding: 8212 8212 566
Width: 2427
GlyphClass: 2
Flags: HW
LayerCount: 2
Fore
SplineSet
2296 675 m 1,0,-1
 2296 527 l 1,1,-1
 139 527 l 1,2,-1
 139 675 l 1,3,-1
 2296 675 l 1,0,-1
EndSplineSet
EndChar

StartChar: quoteleft
Encoding: 8216 8216 567
Width: 510
GlyphClass: 2
Flags: HW
LayerCount: 2
Fore
SplineSet
382 1574 m 1,0,-1
 291 1102 l 1,1,-1
 129 1102 l 1,2,-1
 265 1574 l 1,3,-1
 382 1574 l 1,0,-1
EndSplineSet
EndChar

StartChar: quoteright
Encoding: 8217 8217 568
Width: 504
GlyphClass: 2
Flags: HW
LayerCount: 2
Fore
SplineSet
249 1102 m 1,0,-1
 133 1102 l 1,1,-1
 226 1574 l 1,2,-1
 383 1574 l 1,3,-1
 249 1102 l 1,0,-1
EndSplineSet
EndChar

StartChar: quotesinglbase
Encoding: 8218 8218 569
Width: 504
GlyphClass: 2
Flags: HW
LayerCount: 2
Fore
SplineSet
126 -256 m 1,0,-1
 218 216 l 1,1,-1
 379 216 l 1,2,-1
 245 -256 l 1,3,-1
 126 -256 l 1,0,-1
EndSplineSet
EndChar

StartChar: quotedblleft
Encoding: 8220 8220 570
Width: 818
GlyphClass: 2
Flags: HW
LayerCount: 2
Fore
SplineSet
129 1102 m 1,0,-1
 263 1574 l 1,1,-1
 383 1574 l 1,2,-1
 289 1102 l 1,3,-1
 129 1102 l 1,0,-1
438 1102 m 1,4,-1
 573 1574 l 1,5,-1
 690 1574 l 1,6,-1
 600 1102 l 1,7,-1
 438 1102 l 1,4,-1
EndSplineSet
EndChar

StartChar: quotedblright
Encoding: 8221 8221 571
Width: 795
GlyphClass: 2
Flags: HW
LayerCount: 2
Fore
SplineSet
420 1102 m 1,0,-1
 511 1574 l 1,1,-1
 674 1574 l 1,2,-1
 537 1102 l 1,3,-1
 420 1102 l 1,0,-1
133 1102 m 1,4,-1
 226 1574 l 1,5,-1
 385 1574 l 1,6,-1
 250 1102 l 1,7,-1
 133 1102 l 1,4,-1
EndSplineSet
EndChar

StartChar: quotedblbase
Encoding: 8222 8222 572
Width: 819
GlyphClass: 2
Flags: HW
LayerCount: 2
Fore
SplineSet
441 -256 m 1,0,-1
 532 216 l 1,1,-1
 694 216 l 1,2,-1
 559 -256 l 1,3,-1
 441 -256 l 1,0,-1
126 -256 m 1,4,-1
 216 216 l 1,5,-1
 377 216 l 1,6,-1
 244 -256 l 1,7,-1
 126 -256 l 1,4,-1
EndSplineSet
EndChar

StartChar: dagger
Encoding: 8224 8224 573
Width: 876
GlyphClass: 2
Flags: HW
LayerCount: 2
Fore
SplineSet
366 121 m 1,0,-1
 366 1007 l 1,1,-1
 71 1007 l 1,2,-1
 71 1149 l 1,3,-1
 366 1149 l 1,4,-1
 366 1561 l 1,5,-1
 496 1561 l 1,6,-1
 496 1149 l 1,7,-1
 806 1149 l 1,8,-1
 806 1007 l 1,9,-1
 478 1007 l 1,10,-1
 478 121 l 1,11,-1
 366 121 l 1,0,-1
EndSplineSet
EndChar

StartChar: daggerdbl
Encoding: 8225 8225 574
Width: 950
GlyphClass: 2
Flags: HW
LayerCount: 2
Fore
SplineSet
421 604 m 1,0,-1
 421 1059 l 1,1,-1
 112 1059 l 1,2,-1
 112 1199 l 1,3,-1
 428 1199 l 1,4,-1
 401 1561 l 1,5,-1
 538 1561 l 1,6,-1
 538 1199 l 1,7,-1
 850 1199 l 1,8,-1
 850 1059 l 1,9,-1
 530 1059 l 1,10,-1
 530 604 l 1,11,-1
 843 604 l 1,12,-1
 843 467 l 1,13,-1
 530 467 l 1,14,-1
 556 121 l 1,15,-1
 398 121 l 1,16,-1
 421 467 l 1,17,-1
 107 467 l 1,18,-1
 107 604 l 1,19,-1
 421 604 l 1,0,-1
EndSplineSet
EndChar

StartChar: bullet
Encoding: 8226 8226 575
Width: 867
GlyphClass: 2
Flags: HW
LayerCount: 2
Fore
SplineSet
644 987.5 m 128,-1,1
 731 889 731 889 731 752 c 128,-1,2
 731 615 731 615 642 515 c 128,-1,3
 553 415 553 415 431 415 c 128,-1,4
 309 415 309 415 223 513 c 128,-1,5
 137 611 137 611 137 747.5 c 128,-1,6
 137 884 137 884 227 985 c 128,-1,7
 317 1086 317 1086 437 1086 c 128,-1,0
 557 1086 557 1086 644 987.5 c 128,-1,1
EndSplineSet
EndChar

StartChar: perthousand
Encoding: 8240 8240 577
Width: 2303
GlyphClass: 2
Flags: HW
LayerCount: 2
Fore
SplineSet
395 -22 m 1,0,-1
 259 -22 l 1,1,-1
 1115 1547 l 1,2,-1
 1272 1547 l 1,3,-1
 395 -22 l 1,0,-1
530.5 1366 m 128,-1,5
 487 1438 487 1438 405 1438 c 128,-1,6
 323 1438 323 1438 280 1364.5 c 128,-1,7
 237 1291 237 1291 237 1177.5 c 128,-1,8
 237 1064 237 1064 280.5 991.5 c 128,-1,9
 324 919 324 919 406 919 c 128,-1,10
 488 919 488 919 531 993 c 128,-1,11
 574 1067 574 1067 574 1180.5 c 128,-1,4
 574 1294 574 1294 530.5 1366 c 128,-1,5
1254.5 539.5 m 128,-1,13
 1204 610 1204 610 1107 610 c 128,-1,14
 1010 610 1010 610 959 537.5 c 128,-1,15
 908 465 908 465 908 352 c 128,-1,16
 908 239 908 239 959.5 166 c 128,-1,17
 1011 93 1011 93 1106.5 93 c 128,-1,18
 1202 93 1202 93 1253.5 168.5 c 128,-1,19
 1305 244 1305 244 1305 356.5 c 128,-1,12
 1305 469 1305 469 1254.5 539.5 c 128,-1,13
1349 76.5 m 128,-1,21
 1264 -30 1264 -30 1103.5 -30 c 128,-1,22
 943 -30 943 -30 860 73 c 128,-1,23
 777 176 777 176 777 350.5 c 128,-1,24
 777 525 777 525 861 630 c 128,-1,25
 945 735 945 735 1107.5 735 c 128,-1,26
 1270 735 1270 735 1352 633.5 c 128,-1,27
 1434 532 1434 532 1434 357.5 c 128,-1,20
 1434 183 1434 183 1349 76.5 c 128,-1,21
622 902.5 m 128,-1,29
 542 796 542 796 403 796 c 128,-1,30
 264 796 264 796 186 900 c 128,-1,31
 108 1004 108 1004 108 1176.5 c 128,-1,32
 108 1349 108 1349 186.5 1454 c 128,-1,33
 265 1559 265 1559 407 1559 c 128,-1,34
 549 1559 549 1559 625.5 1457 c 128,-1,35
 702 1355 702 1355 702 1182 c 128,-1,28
 702 1009 702 1009 622 902.5 c 128,-1,29
2121.5 76.5 m 128,-1,37
 2036 -30 2036 -30 1876.5 -30 c 128,-1,38
 1717 -30 1717 -30 1633.5 73 c 128,-1,39
 1550 176 1550 176 1550 350.5 c 128,-1,40
 1550 525 1550 525 1635 630 c 128,-1,41
 1720 735 1720 735 1881.5 735 c 128,-1,42
 2043 735 2043 735 2125 634 c 128,-1,43
 2207 533 2207 533 2207 358 c 128,-1,36
 2207 183 2207 183 2121.5 76.5 c 128,-1,37
2028 538 m 128,-1,45
 1975 610 1975 610 1878.5 610 c 128,-1,46
 1782 610 1782 610 1729.5 537.5 c 128,-1,47
 1677 465 1677 465 1677 351.5 c 128,-1,48
 1677 238 1677 238 1729.5 165.5 c 128,-1,49
 1782 93 1782 93 1879 93 c 128,-1,50
 1976 93 1976 93 2028.5 168 c 128,-1,51
 2081 243 2081 243 2081 354.5 c 128,-1,44
 2081 466 2081 466 2028 538 c 128,-1,45
EndSplineSet
EndChar

StartChar: guilsinglleft
Encoding: 8249 8249 578
Width: 620
GlyphClass: 2
Flags: HW
LayerCount: 2
Fore
SplineSet
361 982 m 1,0,-1
 501 982 l 1,1,-1
 269 583 l 1,2,-1
 495 182 l 1,3,-1
 356 182 l 1,4,-1
 120 583 l 1,5,-1
 361 982 l 1,0,-1
EndSplineSet
EndChar

StartChar: guilsinglright
Encoding: 8250 8250 579
Width: 617
GlyphClass: 2
Flags: HW
LayerCount: 2
Fore
SplineSet
505 585 m 1,0,-1
 264 182 l 1,1,-1
 124 182 l 1,2,-1
 355 585 l 1,3,-1
 130 982 l 1,4,-1
 269 982 l 1,5,-1
 505 585 l 1,0,-1
EndSplineSet
EndChar

StartChar: fraction
Encoding: 8260 8260 580
Width: 1135
GlyphClass: 2
Flags: HW
LayerCount: 2
Fore
SplineSet
936 1547 m 1,0,-1
 1066 1547 l 1,1,-1
 191 0 l 1,2,-1
 60 0 l 1,3,-1
 936 1547 l 1,0,-1
EndSplineSet
EndChar

StartChar: foursuperior
Encoding: 8308 8308 581
Width: 756
GlyphClass: 2
Flags: HW
LayerCount: 2
Fore
SplineSet
213 978 m 1,0,-1
 422 978 l 1,1,-1
 422 1230 l 2,2,3
 422 1311 422 1311 423 1339 c 1,4,-1
 213 978 l 1,0,-1
530 661 m 1,5,-1
 423 661 l 1,6,-1
 423 865 l 1,7,-1
 92 865 l 1,8,-1
 92 964 l 1,9,-1
 413 1519 l 1,10,-1
 532 1519 l 1,11,-1
 532 978 l 1,12,-1
 626 978 l 1,13,-1
 636 865 l 1,14,-1
 530 865 l 1,15,-1
 530 661 l 1,5,-1
EndSplineSet
EndChar

StartChar: Euro
Encoding: 8364 8364 582
Width: 1210
GlyphClass: 2
Flags: HW
LayerCount: 2
Fore
SplineSet
407 845 m 1,0,1
 403 803 403 803 403 743 c 128,-1,2
 403 683 403 683 402 683 c 2,3,-1
 951 683 l 1,4,-1
 941 580 l 1,5,-1
 419 580 l 1,6,7
 441 396 441 396 531 270 c 0,8,9
 627 135 627 135 787.5 135 c 128,-1,10
 948 135 948 135 1088 244 c 1,11,-1
 1087 69 l 1,12,13
 962 -22 962 -22 781 -22 c 0,14,15
 496 -22 496 -22 340 242 c 0,16,17
 253 389 253 389 227 580 c 1,18,-1
 106 580 l 1,19,-1
 123 683 l 1,20,-1
 215 683 l 1,21,22
 213 715 213 715 213 733.5 c 128,-1,23
 213 752 213 752 218 845 c 1,24,-1
 105 845 l 1,25,-1
 124 957 l 1,26,-1
 234 957 l 1,27,28
 272 1210 272 1210 410 1364 c 0,29,30
 553 1524 553 1524 796 1524 c 0,31,32
 977 1524 977 1524 1088 1429 c 1,33,-1
 1087 1249 l 1,34,35
 977 1369 977 1369 815 1369 c 128,-1,36
 653 1369 653 1369 555 1259.5 c 128,-1,37
 457 1150 457 1150 425 957 c 1,38,-1
 983 957 l 1,39,-1
 966 845 l 1,40,-1
 407 845 l 1,0,1
EndSplineSet
EndChar

StartChar: trademark
Encoding: 8482 8482 584
Width: 1812
GlyphClass: 2
Flags: HW
LayerCount: 2
Fore
SplineSet
90 1496 m 1,0,-1
 727 1496 l 1,1,-1
 727 1394 l 1,2,-1
 463 1394 l 1,3,-1
 463 609 l 1,4,-1
 349 609 l 1,5,-1
 349 1394 l 1,6,-1
 90 1394 l 1,7,-1
 90 1496 l 1,0,-1
849 1496 m 1,8,-1
 1006 1496 l 1,9,-1
 1274 824 l 1,10,-1
 1555 1496 l 1,11,-1
 1704 1496 l 1,12,-1
 1704 609 l 1,13,-1
 1590 609 l 1,14,-1
 1590 1349 l 1,15,-1
 1310 680 l 1,16,-1
 1224 680 l 1,17,-1
 960 1349 l 1,18,-1
 960 609 l 1,19,-1
 849 609 l 1,20,-1
 849 1496 l 1,8,-1
EndSplineSet
EndChar

StartChar: partialdiff
Encoding: 8706 8706 585
Width: 1208
GlyphClass: 2
Flags: HW
LayerCount: 2
Fore
SplineSet
917 901 m 1,0,-1
 918 980 l 1,1,2
 918 1227 918 1227 832 1367 c 128,-1,3
 746 1507 746 1507 596.5 1507 c 128,-1,4
 447 1507 447 1507 301 1405 c 1,5,-1
 288 1553 l 1,6,7
 434 1652 434 1652 609 1652 c 0,8,9
 1069 1652 1069 1652 1069 917 c 0,10,11
 1070 620 1070 620 986 384 c 0,12,13
 894 125 894 125 720 26 c 0,14,15
 626 -28 626 -28 517.5 -28 c 128,-1,16
 409 -28 409 -28 332 8.5 c 0,17,18
 256 45 256 45 208 111 c 0,19,20
 114 242 114 242 113.5 434.5 c 128,-1,21
 113 627 113 627 175.5 770 c 128,-1,22
 238 913 238 913 351 995 c 128,-1,23
 464 1077 464 1077 606 1077 c 0,24,25
 811 1077 811 1077 917 901 c 1,0,-1
329 209.5 m 128,-1,27
 397 119 397 119 506.5 119 c 128,-1,28
 616 119 616 119 701 199 c 0,29,30
 870 358 870 358 904 705 c 1,31,32
 876 803 876 803 804.5 869 c 128,-1,33
 733 935 733 935 631 935 c 128,-1,34
 529 935 529 935 443.5 868.5 c 128,-1,35
 358 802 358 802 309.5 690.5 c 128,-1,36
 261 579 261 579 261 439.5 c 128,-1,26
 261 300 261 300 329 209.5 c 128,-1,27
EndSplineSet
EndChar

StartChar: uni2206
Encoding: 8710 8710 586
Width: 1339
GlyphClass: 2
Flags: HW
LayerCount: 2
Fore
SplineSet
284 174 m 1,0,-1
 1062 174 l 1,1,-1
 704 1195 l 1,2,-1
 668 1312 l 1,3,-1
 636 1195 l 1,4,-1
 284 174 l 1,0,-1
1263 86 m 1,5,-1
 1263 0 l 1,6,-1
 83 0 l 1,7,-1
 83 86 l 1,8,-1
 578 1541 l 1,9,-1
 768 1541 l 1,10,-1
 1263 86 l 1,5,-1
EndSplineSet
EndChar

StartChar: product
Encoding: 8719 8719 587
Width: 1463
GlyphClass: 2
Flags: HW
LayerCount: 2
Fore
SplineSet
1139 1342 m 1,0,-1
 324 1342 l 1,1,-1
 324 0 l 1,2,-1
 147 0 l 1,3,-1
 147 1496 l 1,4,-1
 1316 1496 l 1,5,-1
 1316 0 l 1,6,-1
 1139 0 l 1,7,-1
 1139 1342 l 1,0,-1
EndSplineSet
EndChar

StartChar: summation
Encoding: 8721 8721 588
Width: 1286
GlyphClass: 2
Flags: HW
LayerCount: 2
Fore
SplineSet
1203 -195 m 1,0,-1
 1203 -356 l 1,1,-1
 82 -356 l 1,2,-1
 82 -257 l 1,3,-1
 702 596 l 1,4,-1
 104 1430 l 1,5,-1
 104 1532 l 1,6,-1
 1163 1532 l 1,7,-1
 1163 1379 l 1,8,-1
 317 1379 l 1,9,-1
 913 604 l 1,10,-1
 292 -195 l 1,11,-1
 1203 -195 l 1,0,-1
EndSplineSet
EndChar

StartChar: minus
Encoding: 8722 8722 589
Width: 1274
GlyphClass: 2
Flags: HW
LayerCount: 2
Fore
SplineSet
140 682 m 1,0,-1
 1141 682 l 1,1,-1
 1141 534 l 1,2,-1
 140 534 l 1,3,-1
 140 682 l 1,0,-1
EndSplineSet
EndChar

StartChar: radical
Encoding: 8730 8730 590
Width: 1216
GlyphClass: 2
Flags: HW
LayerCount: 2
Fore
SplineSet
1035 1718 m 1,0,-1
 1148 1718 l 1,1,-1
 708 -166 l 1,2,-1
 569 -166 l 1,3,-1
 236 743 l 1,4,-1
 84 712 l 1,5,-1
 68 833 l 1,6,-1
 328 889 l 1,7,-1
 569 230 l 1,8,-1
 628 44 l 1,9,10
 763 602 763 602 1035 1718 c 1,0,-1
EndSplineSet
EndChar

StartChar: infinity
Encoding: 8734 8734 591
Width: 1811
GlyphClass: 2
Flags: HW
LayerCount: 2
Fore
SplineSet
1585.5 913.5 m 128,-1,1
 1678 810 1678 810 1678 641 c 128,-1,2
 1678 472 1678 472 1576 363 c 128,-1,3
 1474 254 1474 254 1323 254 c 0,4,5
 1211 254 1211 254 1112 320 c 128,-1,6
 1013 386 1013 386 909 525 c 1,7,8
 810 395 810 395 710 324.5 c 128,-1,9
 610 254 610 254 496.5 254 c 0,10,11
 382 254 382 254 300 310 c 0,12,13
 134 422 134 422 135 659 c 0,14,15
 135 808 135 808 237.5 912.5 c 128,-1,16
 340 1017 340 1017 474.5 1017 c 128,-1,17
 609 1017 609 1017 709 947.5 c 128,-1,18
 809 878 809 878 909 745 c 1,19,20
 1004 876 1004 876 1103.5 946.5 c 128,-1,21
 1203 1017 1203 1017 1326 1017 c 0,22,0
 1493 1017 1493 1017 1585.5 913.5 c 128,-1,1
313.5 819 m 128,-1,24
 248 745 248 745 248 640.5 c 128,-1,25
 248 536 248 536 318 458.5 c 128,-1,26
 388 381 388 381 495 381 c 0,27,28
 666 381 666 381 838 636 c 1,29,30
 675 893 675 893 487 893 c 0,31,23
 379 893 379 893 313.5 819 c 128,-1,24
1496.5 460.5 m 128,-1,33
 1555 540 1555 540 1555 650 c 128,-1,34
 1555 760 1555 760 1488.5 826.5 c 128,-1,35
 1422 893 1422 893 1324 893 c 128,-1,36
 1226 893 1226 893 1143 823.5 c 128,-1,37
 1060 754 1060 754 982 638 c 1,38,39
 1081 503 1081 503 1158 442 c 128,-1,40
 1235 381 1235 381 1336.5 381 c 128,-1,32
 1438 381 1438 381 1496.5 460.5 c 128,-1,33
EndSplineSet
EndChar

StartChar: integral
Encoding: 8747 8747 592
Width: 698
GlyphClass: 2
Flags: HW
LayerCount: 2
Fore
SplineSet
277 -50 m 2,0,-1
 277 1351 l 2,1,2
 277 1756 277 1756 540 1756 c 0,3,4
 582 1756 582 1756 661 1733 c 1,5,-1
 662 1594 l 1,6,7
 629 1610 629 1610 555 1610 c 128,-1,8
 481 1610 481 1610 451 1555.5 c 128,-1,9
 421 1501 421 1501 421 1379 c 2,10,-1
 421 -25 l 2,11,12
 420 -321 420 -321 286 -399 c 0,13,14
 234 -429 234 -429 171.5 -429 c 128,-1,15
 109 -429 109 -429 41 -409 c 1,16,-1
 40 -270 l 1,17,18
 69 -284 69 -284 143.5 -284 c 128,-1,19
 218 -284 218 -284 247.5 -228.5 c 128,-1,20
 277 -173 277 -173 277 -50 c 2,0,-1
EndSplineSet
EndChar

StartChar: approxequal
Encoding: 8776 8776 593
Width: 1314
GlyphClass: 2
Flags: HW
LayerCount: 2
Fore
SplineSet
896 810 m 0,0,1
 1017 810 1017 810 1077 988 c 1,2,-1
 1176 959 l 1,3,4
 1123 684 1123 684 892 684 c 0,5,6
 779 684 779 684 638.5 772 c 128,-1,7
 498 860 498 860 424 860 c 0,8,9
 286 860 286 860 239 684 c 1,10,-1
 136 712 l 1,11,12
 160 842 160 842 235 915 c 128,-1,13
 310 988 310 988 427 988 c 0,14,15
 531 988 531 988 689 893 c 0,16,17
 827 810 827 810 896 810 c 0,0,1
898 411 m 0,18,19
 1017 411 1017 411 1080 589 c 1,20,-1
 1178 558 l 1,21,22
 1152 426 1152 426 1085 354 c 128,-1,23
 1018 282 1018 282 902 282 c 128,-1,24
 786 282 786 282 642 370.5 c 128,-1,25
 498 459 498 459 427 459 c 0,26,27
 292 459 292 459 239 280 c 1,28,-1
 138 312 l 1,29,30
 163 444 163 444 237 516.5 c 128,-1,31
 311 589 311 589 428 589 c 0,32,33
 544 589 544 589 687 500 c 128,-1,34
 830 411 830 411 898 411 c 0,18,19
EndSplineSet
EndChar

StartChar: notequal
Encoding: 8800 8800 594
Width: 1191
GlyphClass: 2
Flags: HW
LayerCount: 2
Fore
SplineSet
798 1207 m 1,0,-1
 913 1191 l 1,1,-1
 796 915 l 1,2,-1
 1074 915 l 1,3,-1
 1083 783 l 1,4,-1
 737 783 l 1,5,-1
 581 479 l 1,6,-1
 1076 479 l 1,7,-1
 1083 352 l 1,8,-1
 521 352 l 1,9,-1
 376 48 l 1,10,-1
 263 68 l 1,11,-1
 382 352 l 1,12,-1
 121 352 l 1,13,-1
 114 479 l 1,14,-1
 446 479 l 1,15,-1
 598 783 l 1,16,-1
 121 783 l 1,17,-1
 112 915 l 1,18,-1
 657 915 l 1,19,-1
 798 1207 l 1,0,-1
EndSplineSet
EndChar

StartChar: lessequal
Encoding: 8804 8804 595
Width: 1183
GlyphClass: 2
Flags: HW
LayerCount: 2
Fore
SplineSet
1066 141 m 1,0,-1
 1066 8 l 1,1,-1
 101 8 l 1,2,-1
 101 141 l 1,3,-1
 1066 141 l 1,0,-1
1041 383 m 1,4,-1
 1041 232 l 1,5,-1
 131 716 l 1,6,-1
 131 806 l 1,7,-1
 1041 1312 l 1,8,-1
 1041 1162 l 1,9,-1
 285 766 l 1,10,-1
 1041 383 l 1,4,-1
EndSplineSet
EndChar

StartChar: greaterequal
Encoding: 8805 8805 596
Width: 1183
GlyphClass: 2
Flags: HW
LayerCount: 2
Fore
SplineSet
150 1164 m 1,0,-1
 150 1314 l 1,1,-1
 1063 806 l 1,2,-1
 1063 719 l 1,3,-1
 146 234 l 1,4,-1
 146 385 l 1,5,-1
 908 762 l 1,6,-1
 150 1164 l 1,0,-1
1080 141 m 1,7,-1
 1080 8 l 1,8,-1
 120 8 l 1,9,-1
 120 141 l 1,10,-1
 1080 141 l 1,7,-1
EndSplineSet
EndChar

StartChar: lozenge
Encoding: 9674 9674 597
Width: 1142
GlyphClass: 2
Flags: HW
LayerCount: 2
Fore
SplineSet
630 1583 m 1,0,-1
 1055 768 l 1,1,-1
 621 -48 l 1,2,-1
 512 -48 l 1,3,-1
 87 766 l 1,4,-1
 519 1583 l 1,5,-1
 630 1583 l 1,0,-1
565 106 m 1,6,7
 683 326 683 326 923 766 c 1,8,9
 734 1116 734 1116 577 1424 c 1,10,11
 457 1206 457 1206 219 768 c 1,12,13
 252 705 252 705 374 468.5 c 128,-1,14
 496 232 496 232 565 106 c 1,6,7
EndSplineSet
EndChar

StartChar: ff
Encoding: 64256 64256 598
Width: 1187
GlyphClass: 2
Flags: HW
LayerCount: 2
Fore
SplineSet
181 0 m 1,0,-1
 181 980 l 1,1,-1
 20 980 l 1,2,-1
 20 1098 l 1,3,-1
 181 1098 l 1,4,5
 181 1304 181 1304 228 1404 c 0,6,7
 272 1498 272 1498 396 1524 c 0,8,9
 454 1536 454 1536 539 1536 c 2,10,-1
 612 1536 l 1,11,-1
 632 1408 l 1,12,-1
 538 1408 l 2,13,14
 440 1408 440 1408 408 1379 c 0,15,16
 376 1351 376 1351 368.5 1326 c 128,-1,17
 361 1301 361 1301 357.5 1282.5 c 128,-1,18
 354 1264 354 1264 352 1230 c 0,19,20
 349 1180 349 1180 349 1098 c 1,21,-1
 766 1098 l 1,22,23
 766 1304 766 1304 813 1404 c 0,24,25
 858 1498 858 1498 982 1524 c 0,26,27
 1040 1536 1040 1536 1124 1536 c 2,28,-1
 1197 1536 l 1,29,-1
 1217 1408 l 1,30,-1
 1123 1408 l 2,31,32
 1024 1408 1024 1408 992 1379 c 0,33,34
 960 1351 960 1351 953 1326 c 128,-1,35
 946 1301 946 1301 942.5 1282.5 c 128,-1,36
 939 1264 939 1264 937 1230 c 0,37,38
 934 1180 934 1180 934 1098 c 1,39,-1
 1183 1098 l 1,40,-1
 1183 980 l 1,41,-1
 934 980 l 1,42,-1
 934 0 l 1,43,-1
 766 0 l 1,44,-1
 766 980 l 1,45,-1
 349 980 l 1,46,-1
 349 0 l 1,47,-1
 181 0 l 1,0,-1
EndSplineSet
EndChar

StartChar: fi
Encoding: 64257 64257 599
Width: 1088
GlyphClass: 2
Flags: HW
LayerCount: 2
Fore
SplineSet
181 0 m 1,0,-1
 181 980 l 1,1,-1
 20 980 l 1,2,-1
 20 1098 l 1,3,-1
 181 1098 l 1,4,5
 181 1304 181 1304 228 1404 c 0,6,7
 272 1498 272 1498 396 1524 c 0,8,9
 454 1536 454 1536 539 1536 c 2,10,-1
 612 1536 l 1,11,-1
 632 1408 l 1,12,-1
 538 1408 l 2,13,14
 440 1408 440 1408 408 1379 c 0,15,16
 376 1351 376 1351 368.5 1326 c 128,-1,17
 361 1301 361 1301 357.5 1282.5 c 128,-1,18
 354 1264 354 1264 352 1230 c 0,19,20
 349 1180 349 1180 349 1098 c 1,21,-1
 956 1098 l 1,22,-1
 956 0 l 1,23,-1
 788 0 l 1,24,-1
 788 980 l 1,25,-1
 349 980 l 1,26,-1
 349 0 l 1,27,-1
 181 0 l 1,0,-1
788 1496 m 1,28,-1
 956 1496 l 1,29,-1
 956 1298 l 1,30,-1
 788 1298 l 1,31,-1
 788 1496 l 1,28,-1
EndSplineSet
EndChar

StartChar: fl
Encoding: 64258 64258 600
Width: 1237
GlyphClass: 2
Flags: HW
LayerCount: 2
Fore
SplineSet
580 1384 m 1,0,-1
 557 1383 l 1,1,2
 438 1383 438 1383 393.5 1322 c 128,-1,3
 349 1261 349 1261 349 1098 c 1,4,-1
 598 1098 l 1,5,-1
 598 980 l 1,6,-1
 349 980 l 1,7,-1
 349 0 l 1,8,-1
 181 0 l 1,9,-1
 181 980 l 1,10,-1
 20 980 l 1,11,-1
 20 1098 l 1,12,-1
 181 1098 l 1,13,14
 181 1336 181 1336 278 1427 c 0,15,16
 369 1512 369 1512 550 1512 c 0,17,18
 590 1512 590 1512 976 1490 c 1,19,-1
 976 450 l 2,20,21
 976 251 976 251 1000 189.5 c 128,-1,22
 1024 128 1024 128 1134 128 c 0,23,24
 1155 128 1155 128 1207 132 c 1,25,-1
 1218 1 l 1,26,27
 1103 -12 1103 -12 1078 -12 c 128,-1,28
 1053 -12 1053 -12 1020 -8.5 c 128,-1,29
 987 -5 987 -5 960 5 c 128,-1,30
 933 15 933 15 912.5 26.5 c 128,-1,31
 892 38 892 38 876 59.5 c 128,-1,32
 860 81 860 81 849 101 c 128,-1,33
 838 121 838 121 830.5 154.5 c 128,-1,34
 823 188 823 188 818.5 218 c 128,-1,35
 814 248 814 248 812 296 c 0,36,37
 808 362 808 362 808 487 c 2,38,-1
 808 1376 l 1,39,40
 682 1384 682 1384 636 1384 c 2,41,-1
 580 1384 l 1,0,-1
EndSplineSet
EndChar

StartChar: ffi
Encoding: 64259 64259 601
Width: 1585
GlyphClass: 2
Flags: HW
LayerCount: 2
Fore
SplineSet
349 980 m 1,0,-1
 349 0 l 1,1,-1
 181 0 l 1,2,-1
 181 980 l 1,3,-1
 20 980 l 1,4,-1
 20 1098 l 1,5,-1
 181 1098 l 1,6,7
 181 1304 181 1304 228 1404 c 0,8,9
 272 1498 272 1498 396 1524 c 0,10,11
 454 1536 454 1536 539 1536 c 2,12,-1
 612 1536 l 1,13,-1
 632 1408 l 1,14,-1
 538 1408 l 2,15,16
 440 1408 440 1408 408 1379 c 0,17,18
 376 1351 376 1351 368.5 1326 c 128,-1,19
 361 1301 361 1301 357.5 1282.5 c 128,-1,20
 354 1264 354 1264 352 1230 c 0,21,22
 349 1180 349 1180 349 1098 c 1,23,-1
 738 1098 l 1,24,25
 738 1306 738 1306 776 1404 c 0,26,27
 812 1498 812 1498 932 1524 c 0,28,29
 987 1536 987 1536 1072 1536 c 2,30,-1
 1149 1536 l 1,31,-1
 1156 1408 l 1,32,-1
 1071 1408 l 2,33,34
 1013 1408 1013 1408 980.5 1398.5 c 128,-1,35
 948 1389 948 1389 931 1361 c 128,-1,36
 914 1333 914 1333 910 1299.5 c 128,-1,37
 906 1266 906 1266 906 1201 c 2,38,-1
 906 1098 l 1,39,-1
 1453 1098 l 1,40,-1
 1453 0 l 1,41,-1
 1285 0 l 1,42,-1
 1285 980 l 1,43,-1
 906 980 l 1,44,-1
 906 0 l 1,45,-1
 738 0 l 1,46,-1
 738 980 l 1,47,-1
 349 980 l 1,0,-1
1285 1496 m 1,48,-1
 1453 1496 l 1,49,-1
 1453 1298 l 1,50,-1
 1285 1298 l 1,51,-1
 1285 1496 l 1,48,-1
EndSplineSet
EndChar

StartChar: fj
Encoding: 65538 -1 602
Width: 1033
GlyphClass: 2
Flags: HW
LayerCount: 2
Fore
SplineSet
751 1496 m 1,0,-1
 919 1496 l 1,1,-1
 919 1298 l 1,2,-1
 751 1298 l 1,3,-1
 751 1496 l 1,0,-1
534 -502 m 1,4,-1
 512 -351 l 1,5,-1
 564 -351 l 2,6,7
 682 -351 682 -351 714 -312 c 0,8,9
 741 -279 741 -279 745 -244 c 0,10,11
 751 -192 751 -192 751 -121 c 2,12,-1
 751 980 l 1,13,-1
 348 980 l 1,14,-1
 348 0 l 1,15,-1
 180 0 l 1,16,-1
 180 980 l 1,17,-1
 20 980 l 1,18,-1
 20 1098 l 1,19,-1
 180 1098 l 1,20,21
 180 1304 180 1304 227 1404 c 0,22,23
 272 1498 272 1498 396 1524 c 0,24,25
 454 1536 454 1536 538 1536 c 2,26,-1
 611 1536 l 1,27,-1
 631 1408 l 1,28,-1
 537 1408 l 2,29,30
 438 1408 438 1408 406 1379 c 0,31,32
 374 1351 374 1351 367 1326 c 128,-1,33
 360 1301 360 1301 356.5 1282.5 c 128,-1,34
 353 1264 353 1264 351 1230 c 0,35,36
 348 1180 348 1180 348 1098 c 1,37,-1
 919 1098 l 1,38,-1
 919 -139 l 2,39,40
 919 -245 919 -245 905.5 -310 c 128,-1,41
 892 -375 892 -375 854.5 -420.5 c 128,-1,42
 817 -466 817 -466 753 -484 c 128,-1,43
 689 -502 689 -502 586 -502 c 2,44,-1
 534 -502 l 1,4,-1
EndSplineSet
EndChar

StartChar: commaaccentcomb
Encoding: 65539 -1 603
Width: 554
GlyphClass: 2
Flags: HW
LayerCount: 2
Fore
SplineSet
144 -648 m 1,0,-1
 239 -150 l 1,1,-1
 404 -150 l 1,2,-1
 260 -648 l 1,3,-1
 144 -648 l 1,0,-1
EndSplineSet
EndChar

StartChar: macron
Encoding: 65540 -1 604
Width: 770
GlyphClass: 2
Flags: HW
LayerCount: 2
Fore
SplineSet
637 1275 m 1,0,-1
 136 1275 l 1,1,-1
 136 1418 l 1,2,-1
 637 1418 l 1,3,-1
 637 1275 l 1,0,-1
EndSplineSet
EndChar

StartChar: middot
Encoding: 65541 -1 605
Width: 468
GlyphClass: 2
Flags: HW
LayerCount: 2
Fore
SplineSet
137.5 753.5 m 128,-1,1
 173 793 173 793 235.5 793 c 128,-1,2
 298 793 298 793 333 754 c 128,-1,3
 368 715 368 715 368 661 c 128,-1,4
 368 607 368 607 333 568 c 128,-1,5
 298 529 298 529 235.5 529 c 128,-1,6
 173 529 173 529 137.5 568.5 c 128,-1,7
 102 608 102 608 102 661 c 128,-1,0
 102 714 102 714 137.5 753.5 c 128,-1,1
EndSplineSet
EndChar

